<svg xmlns="http://www.w3.org/2000/svg" width="91" height="91" viewBox="0 0 91 91">
  <path fill="#464646" fill-rule="evenodd" d="M81.3543,9.3849 C61.4893,9.3849 45.3853,25.4889 45.3853,45.3539 C45.3853,65.2189 61.4893,81.3229 81.3543,81.3229 C101.2193,81.3229 117.3233,65.2189 117.3233,45.3539 C117.3233,25.4889 101.2193,9.3849 81.3543,9.3849 M126.7083,45.3539 C126.7083,70.4029 106.4023,90.7089 81.3543,90.7089 C56.3063,90.7089 36.0003,70.4029 36.0003,45.3539 C36.0003,20.3059 56.3063,-0.0001 81.3543,-0.0001 C106.4023,-0.0001 126.7083,20.3059 126.7083,45.3539 M83.6795,49.2247 C85.4095,45.5887 87.1405,41.9527 88.9235,38.2047 C89.4775,38.4357 89.9575,38.6377 90.5355,38.8787 C88.9475,42.3237 87.4665,45.6737 85.8205,48.9407 C85.5935,49.3927 84.5485,49.4337 83.8825,49.6647 C83.8145,49.5187 83.7465,49.3717 83.6795,49.2247 Z M82.908,35.5309 C82.138,37.2119 81.423,38.7929 80.693,40.3669 C79.438,43.0739 78.197,45.7879 76.891,48.4699 C76.691,48.8829 76.177,49.4259 75.804,49.4289 C68.629,49.4859 61.454,49.4709 54.205,49.4709 C54.151,49.0949 54.065,48.7909 54.069,48.4879 C54.109,45.4539 54.085,42.4169 54.243,39.3889 C54.351,37.3209 55.357,35.6719 57.379,34.9109 C59.443,34.1339 61.445,34.6689 62.843,36.1859 C65.374,38.9329 68.333,38.9779 71.578,38.1879 C74.161,37.5579 76.507,36.4849 78.527,34.7069 C78.871,34.4049 79.567,34.2459 80.009,34.3639 C80.966,34.6179 81.864,35.0939 82.908,35.5309 Z M54.0613,51.7257 L55.7643,51.7257 L106.9893,51.7257 C108.7443,51.7257 108.9363,51.9967 108.3493,53.6267 C107.7383,55.3247 106.1803,56.3717 104.1453,56.3757 C97.2883,56.3887 90.4303,56.3817 83.5723,56.3817 C74.5053,56.3827 65.4393,56.3827 56.3723,56.3817 C54.1953,56.3817 54.0633,56.2437 54.0613,54.0067 L54.0613,51.7257 Z M107.9793,49.4303 L88.1753,49.4303 C89.6663,46.1883 91.1053,43.0573 92.6343,39.7333 C97.1533,41.9563 101.5913,44.0413 105.9153,46.3403 C106.9003,46.8643 107.4923,48.1293 108.2643,49.0533 C108.1693,49.1793 108.0743,49.3043 107.9793,49.4303 Z M85.0076,36.4332 C85.6416,36.7092 86.1736,36.9402 86.8496,37.2342 C86.1506,38.7272 85.4846,40.1612 84.8076,41.5892 C83.7876,43.7422 82.6626,45.8502 81.7746,48.0562 C81.2236,49.4202 80.4246,49.7322 79.0186,49.3102 C81.0086,45.0312 82.9906,40.7692 85.0076,36.4332 Z" transform="translate(-36)"/>
</svg>
