<svg xmlns="http://www.w3.org/2000/svg" width="78" height="91" viewBox="0 0 78 91">
  <path fill="#464646" fill-rule="evenodd" d="M119.756176,0 C119.757176,20.282 119.750176,40.563 119.763176,60.845 C119.767176,66.493 116.832176,70.3 111.990176,72.579 C105.353176,75.703 98.7561755,75.329 92.6351755,71.135 C89.1011755,68.714 87.1281755,65.291 87.3401755,60.854 C87.4641755,58.284 88.4801755,56.059 90.1581755,54.146 C92.9691755,50.945 96.5891755,49.284 100.756176,48.706 C104.112176,48.241 107.382176,48.599 110.642176,49.815 L110.642176,18.054 C107.642176,18.771 104.678176,19.48 101.714176,20.189 C92.8901755,22.301 84.0691755,24.425 75.2371755,26.5 C74.5091755,26.672 74.3921755,26.974 74.3931755,27.627 C74.4081755,44.012 74.3581755,60.397 74.4341755,76.782 C74.4561755,81.541 72.4171755,85.047 68.6271755,87.645 C62.0511755,92.151 52.3621755,91.62 46.2871755,86.49 C40.5121755,81.614 40.5751755,73.452 46.4541755,68.683 C50.5681755,65.346 55.3241755,64.202 60.5211755,64.823 C62.1121755,65.014 63.6741755,65.449 65.3331755,65.79 L65.3331755,13.04 C69.1801755,12.11 72.9381755,11.195 76.6981755,10.295 C86.9781755,7.835 97.2591755,5.382 107.539176,2.926 C111.365176,2.012 115.191176,1.097 119.016176,0.178 C119.152176,0.146 119.274176,0.061 119.402176,0 L119.756176,0 Z" transform="translate(-42)"/>
</svg>
