<svg xmlns="http://www.w3.org/2000/svg" width="99" height="91" viewBox="0 0 99 91">
  <path fill="#464646" fill-rule="evenodd" d="M85.3938,61.6766 C86.9708,62.3286 88.4358,62.9466 89.9108,63.5416 C91.2678,64.0906 91.9578,63.8736 92.7038,62.6176 C93.8968,60.6056 95.0568,58.5736 96.2338,56.5516 C96.4148,56.2406 96.6108,55.9396 96.9218,55.4366 C97.2228,56.6356 97.4728,57.6256 97.7178,58.6156 C98.2138,60.6156 98.6588,60.9896 100.7068,60.9686 C104.7148,60.9266 108.7228,60.8566 112.7308,60.7986 C113.0998,60.7936 113.4698,60.7986 114.0968,60.7986 C113.4078,61.5886 112.8618,62.2456 112.2838,62.8736 C104.7318,71.0726 96.1938,78.1696 87.5028,85.0986 C85.3828,86.7896 83.2758,88.4966 81.1818,90.2206 C80.5198,90.7656 79.9298,90.9366 79.2208,90.3016 C71.6658,83.5406 64.0378,76.8606 56.5748,69.9996 C53.6618,67.3216 51.1158,64.2446 48.1558,61.0856 C48.8508,61.0286 49.1838,60.9776 49.5168,60.9776 C54.9048,60.9726 60.2918,60.9476 65.6798,61.0086 C66.2978,61.0156 67.0038,61.3866 67.5078,61.7906 C68.3728,62.4846 69.0718,63.3796 69.9098,64.1116 C71.0518,65.1086 72.6728,64.5466 72.8758,63.0716 C73.8088,56.2906 74.7058,49.5046 75.7178,42.7026 C75.9048,44.3526 76.0968,46.0016 76.2738,47.6526 C76.7128,51.7386 77.1498,55.8246 77.5778,59.9116 C77.8248,62.2686 78.0678,64.6266 78.2818,66.9866 C78.3698,67.9476 78.6478,68.7736 79.6788,69.0146 C80.7358,69.2616 81.4218,68.7256 81.9268,67.8066 C83.0328,65.7926 84.1858,63.8036 85.3938,61.6766 Z M81.2864,61.2205 C81.0944,59.5025 80.8954,57.7845 80.7104,56.0655 C80.2704,51.9795 79.8274,47.8935 79.4044,43.8065 C79.0044,39.9395 78.6294,36.0695 78.2404,32.2005 C78.0854,30.6535 77.9404,29.1045 77.7584,27.5595 C77.5824,26.0775 76.9274,25.3505 75.8624,25.3755 C74.7764,25.4015 74.2364,26.1195 74.0384,27.6155 C73.3354,32.8985 72.5924,38.1765 71.8864,43.4595 C71.2534,48.1925 70.6514,52.9295 70.0294,57.6645 C69.9794,58.0505 69.8774,58.4295 69.7374,59.1085 C68.5334,57.0905 66.7774,57.2885 65.0624,57.2925 C58.8194,57.3065 52.5764,57.3125 46.3344,57.2705 C45.8124,57.2675 45.0954,57.0415 44.8054,56.6615 C39.9484,50.3115 35.8044,43.5575 33.5664,35.8015 C31.5734,28.8885 31.1524,21.9585 34.2654,15.2545 C38.3684,6.4205 45.2944,1.1435 55.0314,0.1615 C65.9124,-0.9365 74.1774,3.5905 79.9654,12.7745 C80.8824,14.2295 81.7394,14.2575 82.6844,12.7865 C87.0104,6.0535 93.1314,1.9845 101.0394,0.8685 C113.9014,-0.9445 126.5344,7.3165 129.5724,20.7105 C130.9914,26.9665 129.9444,33.0135 127.8464,38.9345 C125.5384,45.4505 121.8874,51.2055 117.6074,56.5815 C117.3164,56.9465 116.6864,57.2255 116.2104,57.2315 C111.5284,57.2915 106.8464,57.2655 102.1644,57.3155 C101.3384,57.3245 100.9644,57.0395 100.7854,56.2555 C100.3734,54.4505 99.8724,52.6655 99.4654,50.8595 C99.2424,49.8715 98.8494,49.0725 97.7554,48.9425 C96.6954,48.8165 96.1804,49.5535 95.7144,50.3635 C94.0824,53.1945 92.4004,55.9975 90.8024,58.8465 C90.3574,59.6405 89.9364,59.7735 89.1404,59.3805 C88.0774,58.8555 86.9594,58.4425 85.8604,57.9935 C84.3284,57.3665 83.6214,57.6025 82.8074,59.0035 C82.3814,59.7405 81.9654,60.4825 81.5444,61.2225 C81.4584,61.2215 81.3724,61.2215 81.2864,61.2205 Z" transform="translate(-32)"/>
</svg>
