<svg xmlns="http://www.w3.org/2000/svg" width="91" height="91" viewBox="0 0 91 91">
  <path fill="#464646" fill-rule="evenodd" d="M55.8575,19.9915 C58.5525,22.6515 61.1255,25.1905 63.8745,27.9035 C54.5015,29.6145 45.3375,31.2865 36.0005,32.9925 C37.7055,23.6475 39.3785,14.4835 41.0675,5.2275 C43.6825,7.8775 46.1975,10.4275 48.5835,12.8455 C51.3245,10.8385 53.7745,8.7915 56.4595,7.1245 C65.4165,1.5625 75.2375,-0.7105 85.7125,0.1915 C105.6365,1.9065 122.2555,17.0055 125.9865,36.6075 C130.3525,59.5405 117.1785,81.7165 94.9405,88.6085 C83.5625,92.1345 72.4205,91.1685 61.6395,86.1025 C61.3505,85.9675 61.0865,85.7785 60.7445,85.5755 C62.4225,82.7075 64.0625,79.9065 65.6525,77.1885 C68.0495,78.0015 70.3145,78.9265 72.6605,79.5405 C92.2815,84.6855 112.3475,72.0915 116.2345,52.2425 C120.0195,32.9095 107.5945,14.2685 88.0725,10.6095 C76.4175,8.4265 65.8905,11.4585 56.8155,19.2125 C56.5385,19.4495 56.2495,19.6735 55.8575,19.9915 Z M75.5665,23.0809 L84.3645,23.0809 L84.3645,45.3119 L104.3235,45.3119 L104.3235,54.1889 L75.5665,54.1889 L75.5665,23.0809 Z M46.941,74.6395 C49.692,72.6845 52.339,70.8035 55.011,68.9045 C56.719,70.4875 58.396,72.0405 60.144,73.6595 C58.528,76.4285 56.877,79.2565 55.163,82.1945 C52.089,80.0385 49.418,77.5515 46.941,74.6395 Z M48.1305,57.4115 C49.1725,59.5795 50.1325,61.5795 51.1295,63.6545 C48.5075,65.5175 45.8385,67.4155 42.9135,69.4945 C41.3855,66.2795 39.9145,63.1815 38.3655,59.9215 C41.8215,59.0335 44.9745,58.2225 48.1305,57.4115 Z M46.0197,44.4027 C46.1797,46.6277 46.3347,48.8007 46.4987,51.0717 C43.3637,51.8807 40.1977,52.6957 36.7837,53.5757 C36.5407,50.4847 36.3037,47.4837 36.0617,44.4027 L46.0197,44.4027 Z" transform="translate(-36)"/>
</svg>
