<svg xmlns="http://www.w3.org/2000/svg" width="81" height="91" viewBox="0 0 81 91">
  <path fill="#464646" fill-rule="evenodd" d="M60.1416,81.1551 C46.2676,72.7551 37.5716,55.0411 42.2966,36.4221 C46.0236,21.7321 61.4046,7.0971 73.1316,7.1341 C71.6486,10.4121 70.2256,13.6411 68.7066,16.8231 C68.4746,17.3111 67.8386,17.6701 67.3146,17.9451 C46.1046,29.0931 43.3846,56.9881 62.0686,72.0541 C62.8536,72.6871 63.1766,73.1761 62.7526,74.1981 C61.8286,76.4291 61.0456,78.7191 60.1416,81.1551 Z M61.6787,91.5618 C66.9187,77.2938 72.1577,63.0268 77.4287,48.6758 L59.9327,48.6758 C60.2007,47.9748 60.3847,47.4008 60.6317,46.8568 C67.2847,32.1858 73.9637,17.5258 80.5707,2.8338 C81.1617,1.5198 81.7757,0.9808 83.2937,0.9998 C90.7007,1.0958 98.1107,1.0438 105.9047,1.0438 C98.1497,12.8628 90.5617,24.4298 82.7327,36.3638 L103.2167,36.3638 C89.2587,55.0948 75.6167,73.4018 61.9747,91.7088 C61.8757,91.6598 61.7777,91.6108 61.6787,91.5618 Z M72.3686,86.1575 C74.1536,83.7705 75.8686,81.4155 77.6726,79.1315 C77.9416,78.7905 78.6456,78.6035 79.1246,78.6425 C95.6026,79.9715 109.9326,68.1635 112.6806,52.8825 C114.9306,40.3715 111.0046,29.9415 101.3636,21.6635 C100.7976,21.1785 100.1966,20.7335 99.6176,20.2645 C99.5776,20.2325 99.5756,20.1535 99.5076,19.9495 C100.9836,17.7035 102.5136,15.3785 104.0416,13.0535 C119.6476,23.1475 127.1796,45.0845 117.8956,64.3525 C108.1646,84.5465 86.5246,90.2765 72.3686,86.1575 Z" transform="translate(-41 -1)"/>
</svg>
