<svg xmlns="http://www.w3.org/2000/svg" width="66" height="91" viewBox="0 0 66 91">
  <path fill="#464646" fill-rule="evenodd" d="M63.283,73.4783 C68.409,80.6793 80.125,83.3773 89.459,79.6633 C99.837,75.5343 105.685,65.0393 104.017,53.5393 C102.797,45.1253 94.779,36.1093 87.913,35.4303 C95.703,50.1663 92.945,65.1093 81.486,70.2463 C84.417,59.7923 84.556,58.7483 83.262,56.2213 C79.97,65.8263 73.44,71.6113 63.283,73.4783 M57.047,29.7183 C57.093,37.9093 57.953,45.1043 64.859,50.8073 C60.594,29.9443 64.161,12.5933 83.803,0.9993 C79.926,10.9063 83.927,17.9203 90.946,23.8423 C93.69,26.1573 96.757,28.0853 99.547,30.3513 C119.651,46.6803 116.254,77.9753 93.231,88.7903 C72.784,98.3943 47.94,83.0913 47.06,60.4923 C46.658,50.1893 48.167,40.5543 54.866,32.2863 C55.415,31.6083 55.994,30.9563 57.047,29.7183" transform="translate(-47 -1)"/>
</svg>
