<svg xmlns="http://www.w3.org/2000/svg" width="197" height="100" viewBox="0 0 197 100">
  <g fill="none" fill-rule="evenodd">
    <path fill="#FEFEFE" d="M0,0.282457627 L0,88.8061864 L98.2443503,99.9508192 L196.488701,88.8061864 L196.488701,0.282457627 L0,0.282457627 Z M1.60141243,87.3759605 L1.60141243,1.88387006 L194.887288,1.88387006 L194.887288,87.3759605 L98.2443503,98.3389548 L1.60141243,87.3759605 Z"/>
    <g transform="translate(15 11.233)">
      <path fill="#FEFEFE" d="M28.3451695 70.7989831C28.3451695 71.4108475 27.8491243 71.9068927 27.2369774 71.9068927 26.625113 71.9068927 26.1290678 71.4108475 26.1290678 70.7989831 26.1290678 70.1868362 26.625113 69.690791 27.2369774 69.690791 27.8491243 69.690791 28.3451695 70.1868362 28.3451695 70.7989831M140.360056 70.7989831C140.360056 71.4108475 139.864011 71.9068927 139.251864 71.9068927 138.64 71.9068927 138.143672 71.4108475 138.143672 70.7989831 138.143672 70.1868362 138.64 69.690791 139.251864 69.690791 139.864011 69.690791 140.360056 70.1868362 140.360056 70.7989831"/>
      <path fill="#F7931D" d="M18.6353955 13.8125424C18.6396328 12.1323164 17.4260734 11.1427684 15.8365254 11.1930508 14.2461299 11.2430508 12.935113 12.3334463 12.9320056 14.0472881 12.9085593 26.7215819 12.885113 39.3961582 12.8616667 52.070452 12.8585593 53.7842938 14.1591243 54.6068927 15.7418927 54.3458757 17.324096 54.0848588 18.5382203 52.8676271 18.5424576 51.1876836 18.5735311 38.729209 18.6046045 26.2710169 18.6353955 13.8125424M15.7175989 65.369887C7.25714689 67.1063277.696694915 62.4772316.691892655 53.3893785L.691892655 15.4003955C.687655367 6.31875706 7.33652542.194745763 15.8602542.263954802 24.2882203.317909605 30.9164689 5.9179096 30.8882203 14.0882486 30.8489548 25.6535028 30.8102542 37.2184746 30.7709887 48.7837288 30.7435876 56.9585876 24.0859605 63.6614124 15.7175989 65.369887M58.5179096 57.6540113C55.8761017 50.1472316 53.2399435 42.5873446 50.6080226 34.9429944 49.6789266 32.3407345 48.750113 29.7283051 47.8218644 27.1045763 47.7859887 37.6000565 47.750113 48.0952542 47.7142373 58.5907345 44.1783616 58.9435593 40.6455932 59.3415819 37.1167797 59.7848023 37.1876836 40.2955367 37.2588701 20.8062712 37.329774 1.31700565 41.0125424 1.30881356 44.6953107 1.30146893 48.3783616 1.29497175 50.7549153 9.11333333 53.1342938 16.8359322 55.5176271 24.4887571 56.3535028 27.1235028 57.1899435 29.749774 58.0266667 32.3684181 58.0566102 22.0057062 58.0865537 11.6429944 58.1164972 1.28 61.6122599 1.27548023 65.1083051 1.27152542 68.6040678 1.26841808 68.5656497 19.8588136 68.5272316 38.4489266 68.4888136 57.039322 65.1633898 57.2042938 61.839661 57.4093785 58.5179096 57.6540113M75.4281638 56.5982768C75.4434181 38.1525141 75.4583898 19.7064689 75.4736441 1.26070621 83.9324011 1.25788136 92.3914407 1.25957627 100.85048 1.26607345L100.867429 10.7056215C96.3996328 10.6705932 91.9315537 10.6485593 87.4631921 10.6403672 87.4651695 15.0400847 87.4674294 19.4395198 87.4691243 23.8392373 90.4106497 23.8519492 93.3518927 23.8773729 96.2925706 23.9163559 96.2965254 26.8033616 96.3004802 29.6906497 96.304435 32.5779379 93.3609322 32.5248305 90.4171469 32.4898023 87.4730791 32.4728531 87.475339 37.2598588 87.4773164 42.0471469 87.4795763 46.834435 91.964887 46.8720056 96.4496328 46.9697458 100.932684 47.1273729 100.938616 50.385 100.944548 53.6429096 100.950198 56.9005367 92.4468079 56.5398023 83.935791 56.4392373 75.4281638 56.5982768"/>
      <path fill="#FEFEFE" d="M127.041299 11.1009322C123.857401 11.0305932 120.672938 10.9673164 117.48791 10.9108192 117.253164 15.3427401 117.018136 19.7692938 116.783107 24.1901977 118.650056 22.035113 121.457966 21.0102542 124.736215 21.1418927 129.795537 21.3320056 133.272655 25.3125141 133.292147 30.7300282 133.313616 36.6639266 133.335085 42.5978249 133.356554 48.5317232 133.38339 56.1972599 127.697232 60.664774 119.154576 59.7478249 110.704011 58.8707062 106.263051 52.5492373 106.248927 46.5517797L106.233107 40.8082768C109.614181 40.975226 112.993842 41.1709887 116.371808 41.3964124 116.377458 43.0817232 116.383107 44.7670339 116.388757 46.4526271 116.395254 48.5082768 117.618983 49.7175989 119.402316 49.8721186 121.278305 50.035678 122.400056 49.0170339 122.393842 47.2825706 122.375763 42.1738136 122.357684 37.064774 122.339605 31.9560169 122.333955 30.395565 121.017006 29.1130791 119.704859 29.0483898 118.298927 28.9788983 116.990169 30.0325706 116.994124 31.2322881 113.648362 30.7469774 110.301469 30.2885028 106.953729 29.8546045 107.42774 20.3475424 107.900621 10.8232486 108.372373 1.28002825 116.643842 1.2910452 124.915028 1.30658192 133.18565 1.32635593 132.743277 8.33002825 130.787345 11.1904802 127.041299 11.1009322M159.629379 12.2805367C156.451695 12.1559605 153.272881 12.0381638 150.09322 11.9271469 149.854802 16.7782768 149.616949 21.6186723 149.379096 26.4483333 151.241525 24.1559605 154.041243 23.1085028 157.307627 23.3477684 162.349435 23.6935311 165.798588 28.2344915 165.796893 34.295791L165.796893 54.1808192C165.792373 62.7638701 160.158192 67.3104802 151.701412 65.554548 143.333333 63.8463559 138.916949 56.6356215 138.897458 50.1875989L138.877684 43.9932486C142.24096 44.3830791 145.600847 44.8020056 148.957345 45.2503107 148.961582 47.0935311 148.965819 48.9367514 148.970339 50.7799718 148.975989 53.0268644 150.189548 54.4373164 151.958192 54.734774 153.819209 55.0477684 154.932768 54.0031356 154.929944 52.0909887 154.920339 46.4596328 154.910734 40.8282768 154.901412 35.1969209 154.898305 33.4760169 153.590113 32.0090678 152.284181 31.885339 150.884463 31.7520056 149.580791 32.8508757 149.583898 34.1633051 146.25452 33.4819492 142.922316 32.8325141 139.587571 32.2130226 140.05339 21.9709322 140.520339 11.6881638 140.988136 1.36330508 149.258192 1.38788136 157.527966 1.4169774 165.796893 1.45059322 165.328531 9.27771186 163.367232 12.4390113 159.629379 12.2805367"/>
    </g>
    <g fill="#FEFEFE" transform="translate(45 78.233)">
      <polygon points="6.12 6.966 4.525 6.966 4.525 4.533 2.444 4.533 2.444 6.966 .85 6.966 .85 .799 2.444 .799 2.444 3.081 4.525 3.081 4.525 .799 6.12 .799"/>
      <polygon points="13.191 2.251 10.682 2.251 10.682 3.173 12.839 3.173 12.839 4.508 10.682 4.508 10.682 5.514 13.258 5.514 13.258 6.966 9.088 6.966 9.088 .799 13.191 .799"/>
      <path d="M17.9893785,5.05276836 L19.1136723,5.05276836 L18.5515254,3.60954802 L17.9893785,5.05276836 Z M21.6563277,6.9660452 L19.8690395,6.9660452 L19.5840113,6.24485876 L17.5196045,6.24485876 L17.2342938,6.9660452 L15.4470056,6.9660452 L18.5351412,0.689774011 L18.5684746,0.689774011 L21.6563277,6.9660452 Z"/>
      <polygon points="25.674 5.565 28.074 5.565 28.074 6.966 24.08 6.966 24.08 .799 25.674 .799"/>
      <polygon points="34.45 2.2 32.57 2.2 32.57 6.966 30.976 6.966 30.976 2.2 29.096 2.2 29.096 .799 34.45 .799"/>
      <polygon points="42.268 6.966 40.674 6.966 40.674 4.533 38.593 4.533 38.593 6.966 36.999 6.966 36.999 .799 38.593 .799 38.593 3.081 40.674 3.081 40.674 .799 42.268 .799"/>
      <path d="M50.849209,2.90488701 C51.1011864,2.75432203 51.3110734,2.61957627 51.3110734,2.31731638 C51.3110734,2.07437853 51.1263277,1.92353107 50.8831073,1.92353107 C50.6311299,1.92353107 50.4215254,2.07437853 50.4215254,2.31731638 C50.4215254,2.53539548 50.6229379,2.71166667 50.849209,2.90488701 Z M51.3616384,5.54782486 L50.4720904,4.53313559 C50.2370621,4.69217514 50.1113559,4.88511299 50.1113559,5.17070621 C50.1113559,5.5229661 50.3624859,5.72437853 50.7655932,5.72437853 C50.9924294,5.72437853 51.1932768,5.65742938 51.3616384,5.54782486 Z M52.7288701,2.25064972 C52.7288701,3.06449153 52.1167232,3.43370056 51.6466667,3.74415254 L52.2672881,4.43228814 L52.7458192,3.76929379 L54.4910169,3.76929379 L53.2658757,5.53935028 L54.549774,6.96618644 L52.6031638,6.96618644 L52.2757627,6.58822034 C51.8396045,6.88200565 51.3192655,7.05036723 50.6650282,7.05036723 C49.5489266,7.05036723 48.5421469,6.42918079 48.5421469,5.29612994 C48.5421469,4.49048023 48.9531638,4.09669492 49.6664407,3.65206215 C49.3057062,3.26590395 48.9867797,2.83793785 48.9867797,2.25064972 C48.9867797,1.3529096 49.7167232,0.689632768 50.8576836,0.689632768 C51.9989266,0.689632768 52.7288701,1.3529096 52.7288701,2.25064972 Z"/>
      <polygon points="64.549 2.251 62.158 2.251 62.158 3.266 64.105 3.266 64.105 4.6 62.158 4.6 62.158 6.966 60.564 6.966 60.564 .799 64.549 .799"/>
      <polygon points="67.166 6.966 68.76 6.966 68.76 .799 67.166 .799"/>
      <polygon points="76.663 2.2 74.783 2.2 74.783 6.966 73.189 6.966 73.189 2.2 71.309 2.2 71.309 .799 76.663 .799"/>
      <polygon points="84.323 7.075 84.289 7.075 80.807 4.055 80.807 6.966 79.212 6.966 79.212 .69 79.246 .69 82.728 3.71 82.728 .799 84.323 .799"/>
      <polygon points="91.394 2.251 88.885 2.251 88.885 3.173 91.042 3.173 91.042 4.508 88.885 4.508 88.885 5.514 91.461 5.514 91.461 6.966 87.291 6.966 87.291 .799 91.394 .799"/>
      <path d="M98.4661299 1.3360452L97.644096 2.65355932C97.2915537 2.36768362 96.8472034 2.14169492 96.1921186 2.14169492 95.7392938 2.14169492 95.5212147 2.29225989 95.5212147 2.5860452 95.5212147 2.7959322 95.6723446 2.94706215 96.5031356 3.08971751 98.1723446 3.43378531 98.6339266 4.07163842 98.6339266 5.01118644 98.6339266 6.25271186 97.7277119 7.07531073 96.2005932 7.07531073 95.235904 7.07531073 94.3378814 6.78180791 93.7087853 6.22757062L94.564435 4.90214689C94.9590678 5.33858757 95.6472034 5.62361582 96.2511582 5.62361582 96.7966384 5.62361582 97.0401412 5.46429379 97.0401412 5.16231638 97.0401412 4.9439548 96.8638701 4.79282486 96.0330791 4.64169492 94.3714972 4.28971751 93.9186723 3.55977401 93.9186723 2.67022599 93.9186723 1.54564972 94.7994633.689717514 96.2005932.689717514 97.115565.689717514 97.9463559.932937853 98.4661299 1.3360452M105.471045 1.3360452L104.648729 2.65355932C104.296186 2.36768362 103.851836 2.14169492 103.197034 2.14169492 102.744209 2.14169492 102.52613 2.29225989 102.52613 2.5860452 102.52613 2.7959322 102.676977 2.94706215 103.507768 3.08971751 105.17726 3.43378531 105.638842 4.07163842 105.638842 5.01118644 105.638842 6.25271186 104.732345 7.07531073 103.205508 7.07531073 102.240819 7.07531073 101.342797 6.78180791 100.713418 6.22757062L101.56935 4.90214689C101.963701 5.33858757 102.652119 5.62361582 103.256073 5.62361582 103.801554 5.62361582 104.044774 5.46429379 104.044774 5.16231638 104.044774 4.9439548 103.868503 4.79282486 103.037712 4.64169492 101.376412 4.28971751 100.923588 3.55977401 100.923588 2.67022599 100.923588 1.54564972 101.804096.689717514 103.205508.689717514 104.12048.689717514 104.950989.932937853 105.471045 1.3360452"/>
    </g>
  </g>
</svg>
