<svg xmlns="http://www.w3.org/2000/svg" width="308" height="154" viewBox="0 0 308 154">
  <g fill="none" fill-rule="evenodd">
    <polygon fill="#F7931D" points="0 136.497 0 0 308 0 308 136.497 154 154"/>
    <g transform="translate(23 15)">
      <path fill="#000000" d="M44.2500535 112.809223C44.2500535 113.784152 43.45817 114.574537 42.4809425 114.574537 41.5041659 114.574537 40.7122825 113.784152 40.7122825 112.809223 40.7122825 111.833844 41.5041659 111.043459 42.4809425 111.043459 43.45817 111.043459 44.2500535 111.833844 44.2500535 112.809223M223.069927 112.809223C223.069927 113.784152 222.278044 114.574537 221.300816 114.574537 220.32404 114.574537 219.531705 113.784152 219.531705 112.809223 219.531705 111.833844 220.32404 111.043459 221.300816 111.043459 222.278044 111.043459 223.069927 111.833844 223.069927 112.809223"/>
      <path fill="#FFFFFF" d="M28.7494303 22.0085389C28.7561946 19.3313113 26.818876 17.7545918 24.2813314 17.8347105 21.7424339 17.9143792 19.6495345 19.6517865 19.644574 22.3825766 19.6071444 42.5774603 19.5697148 62.7727942 19.5322852 82.967678 19.5273247 85.6984681 21.6035386 87.0091753 24.1302602 86.5932779 26.6560799 86.1773804 28.5943005 84.2378757 28.6010648 81.5610983 28.6506703 61.7100951 28.7002758 41.8595421 28.7494303 22.0085389M24.0914778 104.158645C10.5852645 106.925444.11219946 99.5495649.104533162 85.0692206L.104533162 24.538582C.0977687813 10.06814 10.7119839.310302736 24.3192119.420578586 37.7735649.506548737 48.3548601 9.4294403 48.3097642 22.4478419 48.2470809 40.8756114 48.1852996 59.3029309 48.1226163 77.7307004 48.0788733 90.7563037 37.4506785 101.436407 24.0914778 104.158645M92.4176295 91.8643734C88.2002637 79.9032697 83.991917 67.8575461 79.7903347 55.677241 78.3071315 51.5308691 76.8243793 47.3682933 75.342529 43.1877134 75.2852572 59.9109334 75.2279855 76.6337033 75.1707137 93.3569233 69.5260636 93.9191051 63.886374 94.5533037 58.2529978 95.2595193 58.3661885 64.2058401 58.47983 33.152161 58.5930207 2.09848189 64.4721694 2.08542883 70.351318 2.07372609 76.2309176 2.06337366 80.0248333 14.5209438 83.8232584 26.8259281 87.6279971 39.0197364 88.9623839 43.2178705 90.2976726 47.4025014 91.6334123 51.5749794 91.6812139 35.063309 91.7290155 18.5516386 91.7768172 2.03951807 97.3574312 2.03231638 102.938496 2.02601491 108.51911 2.02106375 108.45778 31.6425071 108.396449 61.2635004 108.335119 90.8849438 103.026433 91.1478055 97.7204529 91.4745821 92.4176295 91.8643734M119.413055 90.1821941C119.437407 60.7912047 119.461307 31.3997652 119.485659 2.00877587 132.989167 2.00427481 146.493125 2.00697544 159.997084 2.01732787L160.024141 17.0580535C152.891778 17.0022404 145.758965 16.9671322 138.6257 16.9540791 138.628856 23.9644724 138.632464 30.9744155 138.63517 37.9848088 143.331003 38.0050636 148.026385 38.0455731 152.720865 38.1076876 152.727178 42.7077659 152.733492 47.3082943 152.739805 51.9088227 148.040816 51.8242028 143.341375 51.7683897 138.641483 51.7413834 138.645091 59.3688713 138.648248 66.9968094 138.651855 74.6247474 145.812178 74.6846114 152.971598 74.8403479 160.128313 75.0915068 160.137783 80.2821235 160.147253 85.4731903 160.156272 90.663807 146.581513 90.0890223 132.994578 89.9287847 119.413055 90.1821941"/>
      <path fill="#000000" d="M201.807946 17.6879311C196.72519 17.5758549 191.641533 17.4750312 186.556973 17.3850101 186.182227 24.4467154 185.807029 31.4998687 185.431831 38.5440199 188.412217 35.110165 192.894747 33.4771822 198.128123 33.6869314 206.204793 33.9898524 211.755644 40.3322891 211.78676 48.9644125 211.821033 58.4193288 211.855306 67.874245 211.889579 77.3291613 211.93242 89.5432243 202.855072 96.6616429 189.21763 95.2006005 175.7272 93.8030229 168.637678 83.7305618 168.61513 74.1743718L168.589876 65.0228266C173.987401 65.288839 179.382671 65.6007621 184.775235 65.9599463 184.784255 68.6452758 184.793274 71.3306052 184.802293 74.0163848 184.812665 77.2918025 186.766218 79.2187042 189.61312 79.4649119 192.607937 79.725523 194.398694 78.1024426 194.388773 75.3387948 194.359912 67.1986367 194.33105 59.0580285 194.302189 50.9178704 194.29317 48.4314876 192.1908 46.3880086 190.096097 46.2849344 187.851676 46.1742084 185.762384 47.853102 185.768697 49.7647001 180.427543 48.9914188 175.084584 48.2608976 169.740272 47.5695355 170.496981 32.4212347 171.251886 17.2454774 172.004987 2.03956308 185.209509 2.0571172 198.41358 2.081873 211.616749 2.11338039 210.910547 13.2728462 207.788109 17.8306146 201.807946 17.6879311M253.831354 19.5674817C248.75852 19.3689852 243.683881 19.1812912 238.60789 19.0043997 238.227281 26.7340616 237.847574 34.4466194 237.467866 42.1420733 240.441037 38.4894671 244.910489 36.8204759 250.124924 37.2017153 258.173635 37.7526444 263.679841 44.9880904 263.677135 54.6460043L263.677135 86.3302812C263.66992 100.006287 254.675549 107.250735 241.175198 104.452879 227.816448 101.731091 220.76616 90.2416981 220.735044 79.9675898L220.703476 70.0976762C226.072591 70.7188218 231.436294 71.3863283 236.794585 72.1006457 236.801349 75.0375842 236.808114 77.9745226 236.815329 80.911461 236.824348 84.4916002 238.761667 86.738977 241.585119 87.2129381 244.556035 87.711655 246.333715 86.0471648 246.329205 83.0004007 246.313872 74.0275474 246.29854 65.0546941 246.283658 56.0818408 246.278698 53.3397981 244.190308 51.0024002 242.105526 50.805254 239.871025 50.5928042 237.789851 52.3437146 237.794811 54.4349048 232.479812 53.3492503 227.160303 52.3144577 221.836736 51.3273764 222.580367 35.007901 223.325801 18.6236105 224.072589 2.17225419 237.274856 2.21141337 250.476672 2.25777423 263.677135 2.31133679 262.929446 14.7828602 259.79844 19.8199909 253.831354 19.5674817"/>
    </g>
    <g fill="#000000" transform="translate(71 123)">
      <polygon points="8.564 9.639 6.019 9.639 6.019 5.909 2.698 5.909 2.698 9.639 .153 9.639 .153 .183 2.698 .183 2.698 3.682 6.019 3.682 6.019 .183 8.564 .183"/>
      <polygon points="19.852 2.409 15.847 2.409 15.847 3.824 19.289 3.824 19.289 5.869 15.847 5.869 15.847 7.413 19.959 7.413 19.959 9.639 13.303 9.639 13.303 .183 19.852 .183"/>
      <path d="M27.5106736,6.70535593 L29.305268,6.70535593 L28.4079708,4.49241808 L27.5106736,6.70535593 Z M33.363847,9.63904708 L30.5109829,9.63904708 L30.0560217,8.53322787 L26.7608217,8.53322787 L26.3054095,9.63904708 L23.4525455,9.63904708 L28.3818184,0.0154312618 L28.435025,0.0154312618 L33.363847,9.63904708 Z"/>
      <polygon points="39.776 7.49 43.607 7.49 43.607 9.639 37.232 9.639 37.232 .183 39.776 .183"/>
      <polygon points="53.784 2.331 50.784 2.331 50.784 9.639 48.239 9.639 48.239 2.331 45.239 2.331 45.239 .183 53.784 .183"/>
      <polygon points="66.264 9.639 63.719 9.639 63.719 5.909 60.398 5.909 60.398 9.639 57.854 9.639 57.854 .183 60.398 .183 60.398 3.682 63.719 3.682 63.719 .183 66.264 .183"/>
      <path d="M79.9614382,3.41193785 C80.3636438,3.18107156 80.6986648,2.97446139 80.6986648,2.51099623 C80.6986648,2.13849153 80.4037742,1.90719209 80.0155466,1.90719209 C79.613341,1.90719209 79.2787709,2.13849153 79.2787709,2.51099623 C79.2787709,2.84538418 79.6002648,3.11566667 79.9614382,3.41193785 Z M80.7793765,7.46444256 L79.3594826,5.90858569 C78.9843312,6.15244633 78.7836793,6.44828437 78.7836793,6.88619397 C78.7836793,7.4263258 79.1845321,7.73515819 79.8279709,7.73515819 C80.1900461,7.73515819 80.5106382,7.63250282 80.7793765,7.46444256 Z M82.9617476,2.40877401 C82.9617476,3.65666478 81.9846405,4.22278531 81.2343377,4.69881168 L82.2249719,5.75395292 L82.9888018,4.73736158 L85.7744813,4.73736158 L83.8189144,7.45144821 L85.8682691,9.63926365 L82.7610957,9.63926365 L82.238499,9.05971563 C81.5423046,9.51018644 80.711741,9.76834087 79.6674494,9.76834087 C77.8859312,9.76834087 76.2789124,8.81585499 76.2789124,7.07851036 C76.2789124,5.84318079 76.9349765,5.23937665 78.0735069,4.5576064 C77.4977036,3.96549718 76.9886339,3.30928249 76.9886339,2.40877401 C76.9886339,1.03223917 78.1537676,0.0152146893 79.9749653,0.0152146893 C81.7966139,0.0152146893 82.9617476,1.03223917 82.9617476,2.40877401 Z"/>
      <polygon points="101.829 2.409 98.012 2.409 98.012 3.966 101.12 3.966 101.12 6.011 98.012 6.011 98.012 9.639 95.468 9.639 95.468 .183 101.829 .183"/>
      <polygon points="106.006 9.639 108.55 9.639 108.55 .183 106.006 .183"/>
      <polygon points="121.165 2.331 118.165 2.331 118.165 9.639 115.62 9.639 115.62 2.331 112.62 2.331 112.62 .183 121.165 .183"/>
      <polygon points="133.392 9.807 133.338 9.807 127.78 5.175 127.78 9.639 125.235 9.639 125.235 .016 125.288 .016 130.846 4.647 130.846 .183 133.392 .183"/>
      <polygon points="144.679 2.409 140.675 2.409 140.675 3.824 144.117 3.824 144.117 5.869 140.675 5.869 140.675 7.413 144.786 7.413 144.786 9.639 138.13 9.639 138.13 .183 144.679 .183"/>
      <path d="M155.967427 1.00638041L154.655299 3.02656874C154.092572 2.58822599 153.383301 2.24170998 152.337657 2.24170998 151.614859 2.24170998 151.266762 2.47257627 151.266762 2.92304708 151.266762 3.24487382 151.507995 3.4766064 152.834101 3.69534463 155.498488 4.22291525 156.235264 5.20095669 156.235264 6.64159699 156.235264 8.5452693 154.788766 9.80658757 152.351184 9.80658757 150.81135 9.80658757 149.377929 9.35654991 148.373768 8.5067194L149.739553 6.47440301C150.369465 7.14361205 151.467865 7.58065537 152.431896 7.58065537 153.30259 7.58065537 153.691268 7.33636158 153.691268 6.87332957 153.691268 6.53850847 153.409905 6.30677589 152.083799 6.07504331 149.431586 5.53534463 148.708789 4.41609793 148.708789 3.05212429 148.708789 1.32777401 150.114705.0153446328 152.351184.0153446328 153.811659.0153446328 155.137765.388282486 155.967427 1.00638041M167.148652 1.00638041L165.836073 3.02656874C165.273346 2.58822599 164.564075 2.24170998 163.518882 2.24170998 162.796084 2.24170998 162.447987 2.47257627 162.447987 2.92304708 162.447987 3.24487382 162.688769 3.4766064 164.014875 3.69534463 166.679713 4.22291525 167.416489 5.20095669 167.416489 6.64159699 167.416489 8.5452693 165.969541 9.80658757 163.532409 9.80658757 161.992575 9.80658757 160.559154 9.35654991 159.554542 8.5067194L160.920778 6.47440301C161.550239 7.14361205 162.64909 7.58065537 163.613121 7.58065537 164.483815 7.58065537 164.872042 7.33636158 164.872042 6.87332957 164.872042 6.53850847 164.590679 6.30677589 163.264573 6.07504331 160.612811 5.53534463 159.890014 4.41609793 159.890014 3.05212429 159.890014 1.32777401 161.295479.0153446328 163.532409.0153446328 164.992884.0153446328 166.31854.388282486 167.148652 1.00638041"/>
    </g>
  </g>
</svg>
