<svg xmlns="http://www.w3.org/2000/svg" width="100" height="21" viewBox="0 0 100 21">
  <g fill="none" fill-rule="evenodd">
    <path fill="#FFFFFF" d="M22.9617474,9.62959118 C22.6821057,9.2595141 22.3070472,8.95519103 21.8497897,8.73137448 C21.39088,8.50797943 20.8807508,8.3975464 20.3156847,8.3975464 L10.7066685,8.3975464 C10.3258271,8.3975464 10.022641,8.26477387 9.80330615,7.99037731 C9.58231902,7.72356775 9.51705553,7.39058267 9.61329853,6.99690158 L9.91648461,5.60047177 C10.0052925,5.20636918 10.2126487,4.8733841 10.5286396,4.60615304 C10.8504134,4.33259948 11.2060581,4.19898395 11.5868995,4.19898395 C11.5868995,4.19898395 24.5388107,4.21331495 24.6742944,4.20741395 C24.8101912,4.20024845 25.3170158,4.22511696 25.4847182,3.31594125 C25.4847182,3.31594125 25.4318465,3.5498738 25.4888488,3.31594125 C25.5458511,3.0811657 25.9998041,0.791155679 25.9998041,0.791155679 C26.0039347,0.630564143 25.9498239,0.000843000191 25.1476612,0.00295050067 C24.3454986,0.00547950124 25.1476612,0.000421500095 25.1472482,0 L8.32207278,0 C7.75741968,0 7.19854942,0.109168525 6.645462,0.334249576 C6.09898355,0.558909127 5.59876782,0.856066694 5.15390213,1.23162328 C4.70118831,1.60254336 4.32117305,2.05144096 4.00022539,2.56061308 C3.67803854,3.0756862 3.46448649,3.62237182 3.35750394,4.19898395 L2.47685989,8.3975464 C2.34674597,8.97415853 2.34055007,9.52000116 2.44794569,10.0367603 C2.56029802,10.5455109 2.76311051,10.9935655 3.05514397,11.3644856 C3.34593825,11.7408852 3.72017067,12.0388857 4.17784121,12.2631238 C4.63675094,12.4869403 5.14646705,12.5973734 5.71235933,12.5973734 L15.3205494,12.5973734 C15.7018038,12.5973734 15.999207,12.7301459 16.2127591,13.0028564 C16.4209414,13.2751455 16.480422,13.6039156 16.3903749,13.9975967 L16.1181683,15.3990845 C16.0223384,15.7936086 15.820352,16.1206927 15.4994044,16.3955107 C15.1780436,16.6669568 14.8277687,16.8009938 14.4407314,16.8009938 L1.51690831,16.8009938 C0.815119274,16.8486233 0.632133668,17.2595859 0.585870941,17.4353514 C0.585870941,17.4353514 0.0480667445,20.0102955 0.0084129789,20.2096651 C-0.0316538468,20.4081916 0.0447622641,21.0041928 0.832880856,20.9999778 C1.62058639,20.9949198 17.6816007,20.9999778 17.6816007,20.9999778 C18.2470799,20.9999778 18.8055371,20.8903877 19.3516025,20.6665712 C19.905103,20.4419116 20.3987097,20.1392746 20.8501844,19.7683545 C21.2962892,19.3915334 21.6829134,18.9493798 22.0038611,18.4389432 C22.3243957,17.9242916 22.5453828,17.3767629 22.6763229,16.8018368 L23.550771,12.5973734 C23.6622972,12.0199182 23.6622972,11.4740756 23.550771,10.9581595 C23.4429624,10.4477229 23.2455196,10.0064123 22.9617474,9.62959118"/>
    <path fill="#F47F28" d="M50.2127524 8.81485892C50.361703 8.14925833 49.6076403 8.00995591 49.4117194 8.00393419 49.2153753 7.99871537 36.9557201 7.99831392 36.9557201 7.99831392L36.9574127 8.00353274C36.9574127 8.00353274 36.3226798 7.96579664 36.1500324 8.83091684L36.1474935 8.83091684C35.936339 9.7602687 35.6227809 11.1476726 35.6126252 11.2359911 35.5969685 11.3704762 35.6557871 12.0031581 36.4826325 11.9979392 37.3094779 11.9919175 42.4715494 11.9979392 42.4715494 11.9979392L41.8808246 14.6659619C41.7826526 15.0421186 41.5757296 15.3540436 41.2465148 15.6141818 40.9177231 15.8751229 40.5588875 16.001579 40.1623909 16.001579L34.5403497 16.001579C34.1438532 16.001579 33.8400277 15.8751229 33.6267574 15.6141818 33.4143335 15.3540436 33.3521296 15.0421186 33.4439543 14.6659619L35.5267247 5.33390428C35.6189725 4.95855051 35.8318197 4.64622405 36.154264 4.38608582 36.4843251 4.12554614 36.849085 3.9994915 37.2383879 3.9994915 37.2383879 3.9994915 50.4040186 4.01033059 50.7230777 3.9994915 51.0421367 3.98825096 51.3303055 3.88829043 51.4720625 3.17411464 51.4720625 3.17411464 51.9722321.891481945 51.9942362.765427308 52.0276654.575943904 51.9379565.00347921504 51.1229594.0010705277 50.3083855-.00133815963 33.8941916.0010705277 33.8941916.0010705277 33.3157383.0010705277 32.7432092.105446979 32.1766042.318615808 31.6167698.531784637 31.1047519.820425669 30.6485904 1.17410126 30.1852354 1.53098843 29.7955094 1.95291016 29.4667177 2.43866211 29.1375029 2.92963288 28.9183084 3.45071224 28.8087112 3.9994915L26.1039026 16.001579C25.9773791 16.5499568 25.963415 17.0706348 26.0785133 17.562007 26.1889568 18.0481604 26.396726 18.474498 26.6946274 18.8269693 26.9997223 19.1850608 27.383101 19.4696873 27.8523803 19.6824547 28.3216595 19.8964264 28.8459489 20 29.4222864 20L43.4828905 20C44.061767 20 44.6326035 19.8964264 45.1937074 19.6824547 45.7603123 19.4696873 46.2659829 19.179842 46.7289148 18.8269693 47.1854994 18.4692792 47.5819959 18.0481604 47.9103644 17.562007 48.2387329 17.0706348 48.465121 16.5499568 48.5988381 16.001579L50.2127524 8.81485892zM75.9174886 2.55856882C75.802819 2.04879305 75.6009835 1.60052741 75.295903 1.2310453 74.9975927.853558444 74.6142323.557382933 74.1453985.333250113 73.6761415.107853387 73.151877 0 72.5738744 0L58.5152077 0C57.9367819 0 57.3634337.107853387 56.7972788.333250113 56.237471.557382933 55.7254774.859877978 55.2697608 1.2310453 54.8055815 1.60558304 54.4167202 2.04879305 54.0879442 2.55856882 53.758745 3.07340022 53.5391379 3.6202506 53.4295458 4.19617083 53.4295458 4.19617083 50.0258464 20.046827 50.0038433 20.1896484 49.9687231 20.4508559 50.1680198 20.9930719 50.8615384 20.9880163 51.5554801 20.983382 56.2353553 20.9880163 56.2353553 20.9880163L56.234509 20.9850672C56.234509 20.9850672 56.8421311 21.0267761 57.041851 20.1167632 57.2407245 19.2067502 57.0443898 20.1163418 57.045236 20.1163418L60.146817 5.59700095C60.2390605 5.2018194 60.4523206 4.87531013 60.7755959 4.60188494 61.1052182 4.32845975 61.4695376 4.19617083 61.8592451 4.19617083L67.4818655 4.19617083C67.8770738 4.19617083 68.1821542 4.32845975 68.3954144 4.60188494 68.6137521 4.86899059 68.6763761 5.2018194 68.5773625 5.59700095L67.9870889 8.39276296C67.9870889 8.39276296 62.0428858 8.3805452 61.6552939 8.39276296 61.2677021 8.40413812 60.9114223 8.67629941 60.8344117 8.97163231 60.7819429 9.17343611 60.2610635 11.6182533 60.2289052 11.8015198 60.1967469 11.9852076 60.2881441 12.5358497 61.0992943 12.5379562 61.9104445 12.5409053 67.104852 12.5307941 67.104852 12.5307941 67.104852 12.5307941 65.4723965 19.8382823 65.4863599 20.2654829 65.4994771 20.6939473 65.8773369 20.9623169 66.0889044 20.9880163 66.300472 21.0149796 71.7986907 20.9880163 71.7986907 20.9880163 71.9319783 20.9631595 72.309838 20.8414031 72.4613204 20.2595846L75.9174886 4.19617083C76.0275038 3.6202506 76.0275038 3.07340022 75.9174886 2.55856882"/>
    <path fill="#FFFFFF" d="M99.9190316,2.56034846 C99.8056549,2.05156667 99.6076625,1.60727835 99.3062973,1.23169875 C99.012435,0.862020514 98.6356243,0.558521849 98.1737811,0.33300548 C97.7106875,0.108753688 97.1946569,0 96.6248558,0 L82.7766459,0 C82.2068448,0 81.6420456,0.108753688 81.0834988,0.33300548 C80.5328716,0.558521849 80.0285122,0.862020514 79.5783401,1.23169875 C79.1223325,1.60727835 78.7388526,2.05156667 78.4149788,2.56034846 C78.0915218,3.07587467 77.8739386,3.62301532 77.7663975,4.19924125 L75.1028795,16.8007587 C74.976998,17.3765632 74.9640764,17.9241253 75.0782867,18.4400731 C75.1866615,18.950541 75.3896557,19.398623 75.6831012,19.7687228 C75.9853001,20.1443024 76.3629444,20.4418997 76.8247876,20.667416 C77.286214,20.8908248 77.8030782,21 78.3728793,21 L92.221506,21 C92.7913071,21 93.3561064,20.8908248 93.9084008,20.667416 C94.4644467,20.4418997 94.9629705,20.1379795 95.4181445,19.7687228 C95.8683166,19.3935647 96.2597162,18.950541 96.5819227,18.4400731 C96.9066301,17.9241253 97.129632,17.3765632 97.2621827,16.8007587 C97.2621827,16.8007587 97.6185689,15.0923142 97.6794255,14.788394 C97.7394485,14.4832092 97.5664657,14.0043558 96.8190967,13.9984544 C96.0721445,13.9912885 91.7325691,13.9959252 91.5541676,13.9984544 C91.3749324,14.0009836 90.9293454,13.959674 90.7592804,14.8680624 L90.642986,15.4000281 C90.547116,15.7941548 90.3424545,16.1225235 90.0194143,16.3935647 C89.6951237,16.6679781 89.3416553,16.8007587 88.9506725,16.8007587 L83.4123056,16.8007587 C83.0229901,16.8007587 82.7224585,16.6679781 82.5123782,16.3935647 C82.3027148,16.1225235 82.2431087,15.7941548 82.3331431,15.4000281 L84.3855942,5.60039342 C84.4752118,5.20542363 84.6848753,4.87789799 85.0033304,4.60601377 C85.3272042,4.33202192 85.6860913,4.19924125 86.0699881,4.19924125 L91.6091886,4.19924125 C91.9993378,4.19924125 92.2986188,4.33202192 92.5091159,4.60601377 C92.7254486,4.87789799 92.7858884,5.20542363 92.6891848,5.60039342 C92.6891848,5.60039342 92.5853951,6.05437684 92.5633033,6.19052972 C92.5403779,6.32794717 92.6049859,6.99564423 93.4227985,6.99480118 C94.2401943,6.99311508 98.6952304,7.0015456 98.6952304,7.0015456 L98.6943968,6.99901644 C98.6943968,6.99901644 99.2871234,7.0715189 99.4897008,6.13025151 C99.6910277,5.18771954 99.9190316,4.19924125 99.9190316,4.19924125 C100.026989,3.62301532 100.026989,3.07587467 99.9190316,2.56034846"/>
  </g>
</svg>
