<svg xmlns="http://www.w3.org/2000/svg" width="76" height="39" viewBox="0 0 76 39">
  <g fill="#FEFEFE" fill-rule="evenodd">
    <path d="M0,0.107858885 L0,33.9114095 L37.7646969,38.1670838 L75.5293938,33.9114095 L75.5293938,0.107858885 L0,0.107858885 Z M0.615575907,33.3652653 L0.615575907,0.719372055 L74.9138179,0.719372055 L74.9138179,33.3652653 L37.7646969,37.5515794 L0.615575907,33.3652653 Z"/>
    <polygon points="19.65 32.534 19.037 32.534 19.037 31.605 18.237 31.605 18.237 32.534 17.625 32.534 17.625 30.179 18.237 30.179 18.237 31.051 19.037 31.051 19.037 30.179 19.65 30.179"/>
    <polygon points="22.369 30.733 21.404 30.733 21.404 31.086 22.233 31.086 22.233 31.595 21.404 31.595 21.404 31.98 22.394 31.98 22.394 32.534 20.791 32.534 20.791 30.179 22.369 30.179"/>
    <path d="M24.2128406,31.8035174 L24.6450141,31.8035174 L24.4289273,31.2524113 L24.2128406,31.8035174 Z M25.6223997,32.5341187 L24.935374,32.5341187 L24.8258104,32.2587274 L24.0322615,32.2587274 L23.9225893,32.5341187 L23.2355636,32.5341187 L24.4226293,30.1374703 L24.4354425,30.1374703 L25.6223997,32.5341187 Z"/>
    <polygon points="27.167 31.999 28.089 31.999 28.089 32.534 26.554 32.534 26.554 30.179 27.167 30.179"/>
    <polygon points="30.54 30.714 29.818 30.714 29.818 32.534 29.205 32.534 29.205 30.714 28.482 30.714 28.482 30.179 30.54 30.179"/>
    <polygon points="33.545 32.534 32.933 32.534 32.933 31.605 32.133 31.605 32.133 32.534 31.52 32.534 31.52 30.179 32.133 30.179 32.133 31.051 32.933 31.051 32.933 30.179 33.545 30.179"/>
    <g transform="translate(5.766 4.29)">
      <path d="M31.078081,26.693785 C31.17494,26.6362905 31.2556196,26.5848366 31.2556196,26.4694161 C31.2556196,26.3766482 31.1846042,26.3190458 31.0911113,26.3190458 C30.9942523,26.3190458 30.9136813,26.3766482 30.9136813,26.4694161 C30.9136813,26.5526915 30.9911033,26.6200021 31.078081,26.693785 Z M31.2750566,27.7030136 L30.9331182,27.3155458 C30.8427744,27.3762764 30.7944535,27.4499514 30.7944535,27.5590076 C30.7944535,27.6935211 30.8909867,27.7704322 31.0459394,27.7704322 C31.1331343,27.7704322 31.2103391,27.7448671 31.2750566,27.7030136 Z M31.8006144,26.4439588 C31.8006144,26.7547314 31.5653079,26.895717 31.3846202,27.0142658 L31.6231844,27.2770363 L31.8071296,27.0238662 L32.477976,27.0238662 L32.007037,27.6997776 L32.5005619,28.2446273 L31.7522935,28.2446273 L31.626442,28.1002976 C31.4587847,28.2124821 31.2587686,28.2767724 31.0072827,28.2767724 C30.5782581,28.2767724 30.1912564,28.039567 30.1912564,27.6069018 C30.1912564,27.2992575 30.3492495,27.1488871 30.62343,26.9791003 C30.4847653,26.8316424 30.3621713,26.6682199 30.3621713,26.4439588 C30.3621713,26.101149 30.6427584,25.847871 31.0813386,25.847871 C31.5200274,25.847871 31.8006144,26.101149 31.8006144,26.4439588 Z"/>
      <polygon points="36.344 26.444 35.425 26.444 35.425 26.832 36.173 26.832 36.173 27.341 35.425 27.341 35.425 28.245 34.812 28.245 34.812 25.89 36.344 25.89"/>
      <polygon points="37.35 28.245 37.963 28.245 37.963 25.89 37.35 25.89"/>
      <polygon points="41.001 26.425 40.278 26.425 40.278 28.245 39.665 28.245 39.665 26.425 38.943 26.425 38.943 25.89 41.001 25.89"/>
      <polygon points="43.945 28.286 43.932 28.286 42.594 27.133 42.594 28.245 41.981 28.245 41.981 25.848 41.994 25.848 43.332 27.001 43.332 25.89 43.945 25.89"/>
      <polygon points="46.663 26.444 45.699 26.444 45.699 26.796 46.528 26.796 46.528 27.306 45.699 27.306 45.699 27.69 46.689 27.69 46.689 28.245 45.086 28.245 45.086 25.89 46.663 25.89"/>
      <path d="M49.3818163 26.0947092L49.0658301 26.5978133C48.9303144 26.4886492 48.7595081 26.4023535 48.5076964 26.4023535 48.3336325 26.4023535 48.2498038 26.459848 48.2498038 26.5720325 48.2498038 26.6521797 48.3078975 26.7098899 48.6272499 26.7643641 49.2688865 26.8957494 49.4463166 27.1393191 49.4463166 27.4980936 49.4463166 27.9721808 49.0979717 28.2862973 48.5109539 28.2862973 48.1401316 28.2862973 47.7949357 28.1742207 47.5531139 27.9625804L47.8820219 27.4564559C48.033717 27.6231146 48.2982333 27.7319551 48.5303909 27.7319551 48.7400711 27.7319551 48.8336725 27.6711166 48.8336725 27.5558039 48.8336725 27.4724206 48.7659147 27.4147104 48.4465623 27.3570001 47.8078575 27.2225945 47.6337936 26.9438593 47.6337936 26.6041777 47.6337936 26.1747485 47.9723658 25.8479034 48.5109539 25.8479034 48.8626651 25.8479034 49.1820175 25.9407792 49.3818163 26.0947092M52.074475 26.0947092L51.7583802 26.5978133C51.6228644 26.4886492 51.4520581 26.4023535 51.200355 26.4023535 51.0262911 26.4023535 50.9424625 26.459848 50.9424625 26.5720325 50.9424625 26.6521797 51.0004476 26.7098899 51.3198 26.7643641 51.9615452 26.8957494 52.1389753 27.1393191 52.1389753 27.4980936 52.1389753 27.9721808 51.7905217 28.2862973 51.2036126 28.2862973 50.8327903 28.2862973 50.4875944 28.1742207 50.245664 27.9625804L50.5746806 27.4564559C50.7262671 27.6231146 50.990892 27.7319551 51.2230496 27.7319551 51.4327298 27.7319551 51.5262226 27.6711166 51.5262226 27.5558039 51.5262226 27.4724206 51.4584647 27.4147104 51.1391123 27.3570001 50.5005161 27.2225945 50.3264522 26.9438593 50.3264522 26.6041777 50.3264522 26.1747485 50.6649158 25.8479034 51.2036126 25.8479034 51.5553237 25.8479034 51.8745676 25.9407792 52.074475 26.0947092M10.8957587 27.0352033C10.8957587 27.268849 10.7050811 27.4582681 10.4697745 27.4582681 10.2345765 27.4582681 10.0438989 27.268849 10.0438989 27.0352033 10.0438989 26.8014497 10.2345765 26.6120306 10.4697745 26.6120306 10.7050811 26.6120306 10.8957587 26.8014497 10.8957587 27.0352033M53.9537895 27.0352033C53.9537895 27.268849 53.7631119 27.4582681 53.5278053 27.4582681 53.2926073 27.4582681 53.1018211 27.268849 53.1018211 27.0352033 53.1018211 26.8014497 53.2926073 26.6120306 53.5278053 26.6120306 53.7631119 26.6120306 53.9537895 26.8014497 53.9537895 27.0352033M7.1633642 5.27443863C7.164993 4.63282982 6.69850612 4.25496236 6.08749084 4.27416316 5.4761498 4.29325609 4.97220064 4.70963303 4.97100619 5.36407833 4.96199353 10.2038669 4.95298086 15.0437633 4.9439682 19.8835519 4.94277375 20.5379972 5.44270521 20.8521137 6.05111442 20.7524421 6.65930646 20.6527705 7.12601051 20.1879601 7.1276393 19.5464592 7.1395838 14.789083 7.15152829 10.0318148 7.1633642 5.27443863M6.041776 24.9620561C2.7896154 25.6251309.267806467 23.8574706.265960499 20.3871954L.265960499 5.88077405C.264331704 2.41287197 2.82012816.0743653519 6.09661209.100793421 9.33628526.121396529 11.8841549 2.25980491 11.8732963 5.37971943 11.8582028 9.79601167 11.8433265 14.212196 11.828233 18.6284883 11.8177001 21.7501287 9.25853745 24.3096603 6.041776 24.9620561M22.4940275 22.0156823C21.4785282 19.1491536 20.4652005 16.2623454 19.4535017 13.3432843 19.0963613 12.3495888 18.7393294 11.3520101 18.3825147 10.3501166 18.3687243 14.3579064 18.3549338 18.3655883 18.3411433 22.3733781 16.9819682 22.5081073 15.6239876 22.6600957 14.2675271 22.8293432 14.2947823 15.3871988 14.3221461 7.94505439 14.3494012.502909985 15.7650412.499781764 17.1806812.496977153 18.5964298.49449615 19.5099666 3.48000506 20.4245892 6.42894615 21.3407321 9.35124344 21.6620391 10.3573439 21.9835632 11.3602082 22.3051959 12.3601601 22.3167061 8.40306902 22.3282162 4.44597797 22.3397264.488779058 23.6834822.487053143 25.0273466.485542967 26.3711025.484356401 26.3563347 7.58325951 26.341567 14.6820548 26.3267992 21.7809579 25.048521 21.8439538 23.7708942 21.9222671 22.4940275 22.0156823M28.994255 21.6125409C29.0001187 14.5688671 29.0058738 7.5250854 29.0117374.481411559 32.2632465.480332862 35.5148642.48098008 38.7664818.483461083L38.772997 4.08803404C37.0555956 4.0746582 35.3380856 4.06624437 33.620467 4.06311615 33.6212271 5.74318629 33.6220958 7.42314856 33.6227473 9.1032187 34.7534568 9.10807283 35.8840577 9.11778111 37.0144414 9.13266712 37.0159616 10.2350952 37.0174818 11.3376311 37.019002 12.440167 35.8875324 12.4198875 34.7559543 12.4065117 33.6242676 12.4000395 33.6251362 14.2279989 33.6258963 16.0560663 33.626765 17.8841336 35.3508988 17.8984803 37.0748154 17.9358032 38.7980804 17.9959945 38.8003607 19.2399475 38.8026411 20.4840084 38.8048128 21.7279615 35.5361471 21.5902119 32.2645495 21.5518103 28.994255 21.6125409M48.8341177 4.23898686C47.6102412 4.21212731 46.3861475 4.18796451 45.1618366 4.16639057 45.0716014 5.85875785 44.9812576 7.54907561 44.8909137 9.23723598 45.6085608 8.41429825 46.6879089 8.02294708 47.9480533 8.07321435 49.8928344 8.14581064 51.2294236 9.66580219 51.236916 11.7345268 51.2451686 14.0004371 51.2534212 16.2663474 51.2616737 18.5322577 51.2719894 21.4594092 49.0862552 23.165368 45.802496 22.8152231 42.5541359 22.4802877 40.8470502 20.0663802 40.8416209 17.7761992L40.83554 15.582993C42.1352098 15.646744 43.4343367 15.7214977 44.732812 15.8075777 44.7349838 16.4511282 44.7371555 17.0946786 44.7393272 17.738337 44.7418247 18.5233046 45.2122207 18.9850946 45.8977262 19.0440993 46.618848 19.1065559 47.0500443 18.7175778 47.0476554 18.0552581 47.0407059 16.104435 47.0337564 14.1535041 47.0268068 12.2026811 47.0246351 11.6068091 46.5184056 11.1170808 46.0140221 11.0923786 45.473588 11.0658427 44.9705075 11.4681965 44.9720277 11.926319 43.6859312 11.7409989 42.3994004 11.5659265 41.1125438 11.4002386 41.2947516 7.76988483 41.4765252 4.13295097 41.6578643.488789845 44.8373807.492996762 48.0167884.498929594 51.195979.506480471 51.0259328 3.18089325 50.2740811 4.27318155 48.8341177 4.23898686M61.3608323 4.68942904C60.1393446 4.64185851 58.9174226 4.59687686 57.6951749 4.55448408 57.6035281 6.40692995 57.5120984 8.25527678 57.4206687 10.0995246 58.1365783 9.22416218 59.2127775 8.82418143 60.4683612 8.91554704 62.40641 9.04757952 63.7322491 10.7815845 63.7315976 13.0961441L63.7315976 20.6894139C63.7298602 23.966926 61.5641059 25.7030884 58.3133569 25.0325705 55.096704 24.3802826 53.3990653 21.6268013 53.3915729 19.1645682L53.3839718 16.799202C54.6768007 16.9480622 55.9683265 17.1080329 57.2585493 17.2792221 57.2601781 17.9830717 57.2618069 18.6869213 57.2635442 19.3907709 57.265716 20.2487663 57.7322029 20.7873595 58.4120619 20.9009463 59.1274286 21.0204659 59.5554759 20.6215638 59.5543901 19.891394 59.5506981 17.7410121 59.5470062 15.5906302 59.5434228 13.4402483 59.5422284 12.7831063 59.0393651 12.2229391 58.5373705 12.1756921 57.9993252 12.1247777 57.4981993 12.5443907 57.4993938 13.0455532 56.2195953 12.7853715 54.9387109 12.5373792 53.6568493 12.300821 53.8359081 8.38979026 54.0154013 4.46322633 54.1952203.520589824 57.3741937.529974485 60.5530585.541085062 63.7315976.553921552 63.5515615 3.54277442 62.7976466 4.74994392 61.3608323 4.68942904"/>
    </g>
  </g>
</svg>
