<svg xmlns="http://www.w3.org/2000/svg" width="115" height="62" viewBox="0 0 115 62" xmlns:xlink="http://www.w3.org/1999/xlink">
  <defs>
    <polygon id="a" points="8.957 .029 8.957 14.955 .042 14.955 .042 .029 8.957 .029"/>
  </defs>
  <g fill="none" fill-rule="evenodd">
    <path fill="#B40937" d="M39.7593784 15C39.7593784 15 45.8070937 21.933519 52 21.0668694 52 21.0668694 49.1232359 22.6709333 43.1728783 21.6728479 43.1728783 21.6728479 35.2722859 20.0263317 36.0544695 16.9495323 36.0544695 16.9495323 36.2476751 15.6928689 39.7593784 15M68.5096981 15C68.5096981 15 64.1838424 20.0523727 57 21.0974521 57 21.0974521 60.1071439 22.6915322 66.3252814 21.6426767 66.3252814 21.6426767 73.9684995 19.9596045 72.8970227 17.3663782 72.8970227 17.3663782 72.847166 15.6817843 68.5096981 15"/>
    <path fill="#B40937" d="M43.5414121 7.37577466C43.5414121 7.37577466 45.1412033 16.1873561 50 20 50 20 40.7233882 17.9229288 39.0245987 9.50434657 39.0245987 9.50434657 38.3921161 5.84080933 43.5414121 7.37577466M64.5859119 7.36664271C64.5859119 7.36664271 64.1571586 13.3710059 60 18 60 18 66.5324095 15.5193308 68.6590961 10.1262936 70.4062755 5.6972659 64.8838928 7.22826595 64.5859119 7.36664271M49.7487931 11.2174944C49.7487931 11.2174944 49.8985715 16.2812613 51 18 51 18 47.0011017 14.0202581 46 9 46 9 48.1986483 9.72290731 49.7487931 11.2174944M51 3.83614813C51 3.83614813 50.1324538 7.04002658 50.2408887 8 50.2408887 8 46.8324654 6.3188688 46.0187679 6.27830584 46.0187679 6.27830584 45.8033063 4.03727692 46.8324654 3.39560864 48.5975334 2.29659057 51 3.83614813 51 3.83614813M51 3.43878423C51 3.43878423 53.048047 5.74087863 53.4980755 7 53.4980755 7 55.2744959 4.15963303 56 3.52937293 56 3.52937293 55.1243364-.0282058603 53.5494117.000386372619 53.5494117.000386372619 52.0487168-.11079321 51 3.43878423M58 3.92896159C58 3.92896159 58.8705561 7.13993909 58.8038729 8 58.8038729 8 61.6443218 6.53808942 62.982729 6.32864157 62.982729 6.32864157 63.283271 3.53640331 61.376921 3.09367352 59.4737113 2.64953558 58 3.92896159 58 3.92896159M59.4434544 10.2132032C59.4434544 10.2132032 61.5235587 8.41226705 62.9995383 8 62.9995383 8 63.1503587 12.8357042 58 19 58 19 59.627342 15.0189002 59.4434544 10.2132032"/>
    <path fill="#B40937" d="M50.4935293 5C50.4935293 5 52.5663848 7.53278898 53 8.69409713 53 8.69409713 51.9057147 11.5237476 51.8762966 12 51.8762966 12 50.5215658 10.3905418 50.0047048 10.0041337 50.0047048 10.0041337 49.9175443 7.29362082 50.4935293 5M55 8.58760757C55 8.58760757 55.8570047 6.72105565 57.5725504 5 57.5725504 5 58.1634842 7.7259323 57.9557327 9.36081469 57.9557327 9.36081469 56.3601936 10.653471 56.0941227 11 56.0941227 11 55.2658345 8.90327022 55 8.58760757M57 13.3318193C57 13.3318193 58.291797 12.3643411 59 12 59 12 58.9195963 15.3923813 57.8328955 17 57.8328955 17 57.707786 14.9403464 57 13.3318193M50 13C50 13 51.8637478 13.9893564 52 14.4526905 52 14.4526905 51.3175584 17.4769408 51.5913344 18 51.5913344 18 50.2282678 15.9934 50 13M54.50598 11C54.50598 11 51.7013391 16.1867142 53.7469004 19.4607293 53.7469004 19.4607293 54.4061531 20.5722088 55.2307296 19.603786 55.2307296 19.603786 57.3738116 17.5531557 54.50598 11"/>
    <path fill="#FEFEFE" d="M39 23.1710128L36.1422983 26C36.1422983 26 32.6154836 22.6517507 23 25.1632849 23 25.1632849 33.9525329 17.3138805 39 23.1710128M40.8739845 24C40.8739845 24 40.5713302 32.5423765 43 32.9293745 43 32.9293745 40.5359188 33.510702 37.8353522 31.3377061 37.8353522 31.3377061 35.9119621 29.823671 37.90227 27.4943625L40.8739845 24zM45.4795362 25.2371496L50 25 48.0615052 28.358312C48.0615052 28.358312 46.2337426 31.1731472 45.4078558 31.6485215 45.4078558 31.6485215 44.1532515 32.631897 43.1829241 31.3089223 43.1829241 31.3089223 42.1796271 29.7159561 42 27.1711663L45.4795362 25.2371496zM53.6535559 24C53.6535559 24 51.418176 27.0549023 51.057227 27.7737162 50.6950775 28.4920176 49.3612697 30.1472262 50.3702577 32.0857455 50.3702577 32.0857455 50.9127102 33.0573405 51.9592565 32.5190274 51.9592565 32.5190274 55.3503135 30.6494846 55.7819774 28.9957569L59.6793006 32.8428355C59.6793006 32.8428355 60.2212386 33.3452078 59.896133 32.5536011 59.896133 32.5536011 59.2459789 30.07375 57.2260593 27.9528501 57.2260593 27.9528501 54.0162199 24.4311175 53.6535559 24"/>
    <path fill="#FEFEFE" d="M56.7698827 30C56.7698827 30 56.374415 31.011716 55.1190766 31.8758126 54.2157518 32.4990626 53 33.2127945 53 33.2127945 53 33.2127945 57.2713696 34.9094164 60 33.3211212 60 33.3211212 57.2713696 30.9755118 56.7698827 30M57 24C57 24 57.5725092 24.9736028 59.0627515 25.5593219 60.5503313 26.1458444 63.1498291 27.9386011 64.5246135 29.9672646L66.2048652 32.1888193C66.2048652 32.1888193 68.4573235 35.0781073 73 34.9983798 73 34.9983798 71.627031 33.2039545 71.0153097 30.4350612 71.0153097 30.4350612 70.3274031 24.508402 65.4023479 24.1936328 65.4023479 24.1936328 61.6206771 24.9361494 57 24M72.691693 22.1212779C72.691693 22.1212779 82.1430841 23.5237777 85 21 85 21 82.2194019 26.3962505 76.9411415 25.97675 76.9411415 25.97675 71.8584259 25.7662779 69 23.6626115L72.691693 22.1212779zM.00150737922 43L.00150737922 55.3717449C.00150737922 55.3717449-.0884758257 56.8906637 1.12202551 56.9974929L2.62938053 56.9974929 2.62938053 44.5974907 4.86896252 44.5974907C4.86896252 44.5974907 7.45757027 44.5283975 7.45757027 46.2529267L7.45757027 48.1862261C7.45757027 48.5362827 7.05716016 49.5295204 5.40468071 49.5295204L3.45807434 49.5295204 7.44781452 56.3258159C7.44781452 56.3258159 7.88561159 57.047748 8.66334522 56.9974929L11 56.9974929 6.86337815 50.8697148C6.86337815 50.8697148 9.9680108 50.6890828 9.9680108 47.9524179 9.9680108 47.9524179 9.96976805 47.0564114 9.96976805 46.5463495 9.96976805 44.8831039 9.00322118 43 5.0896486 43L.00150737922 43z"/>
    <path fill="#B40937" d="M83.0014573,43 L83.0014573,55.3717449 C83.0014573,55.3717449 82.9159334,56.8906637 84.0552259,56.9974929 L85.0665745,56.9974929 L85.0665745,44.2804606 L87.5805782,44.2804606 C87.5805782,44.2804606 90.2233809,44.3762612 90.2233809,46.3188604 C90.2233809,46.3188604 90.2264598,47.5319566 90.2264598,48.0544184 C90.2264598,48.5425422 89.6395947,49.7288118 88.0833448,49.7288118 L86.252278,49.7288118 L90.1123709,56.3258159 C90.1123709,56.3258159 90.5251092,57.047748 91.2544001,56.9974929 L93,56.9974929 L89.0169237,50.8570169 C89.0169237,50.8570169 92.2030312,50.4004888 92.2030312,48.0873852 C92.2030312,48.0873852 92.1805099,46.6516288 92.1805099,45.9924112 C92.1805099,45.4667899 91.5381684,43 87.855167,43 L83.0014573,43 Z"/>
    <path fill="#FEFEFE" d="M16.7137136 47L15.2857179 47C12.9173436 47 11 48.9062633 11 51.2573847L11 52.744097C11 55.0965815 12.9173436 57 15.2857179 57L16.7137136 57C19.082088 57 21.0011624 55.0965815 21.0011624 52.744097L21.0011624 51.2573847C21.0011624 48.9062633 19.082088 47 16.7137136 47L16.7137136 47zM18.4930085 53.1622256C18.4930085 54.5662012 17.346064 55.7050756 15.932273 55.7050756 14.5182434 55.7050756 13.3689115 54.5662012 13.3689115 53.1622256L13.3689115 50.9063463C13.3689115 49.5023114 14.5182434 48.3665189 15.932273 48.3665189 17.346064 48.3665189 18.4930085 49.5023114 18.4930085 50.9063463L18.4930085 53.1622256zM27.7142224 47L26.2844958 47C23.917912 47 21.9973455 48.9062633 21.9973455 51.2573847L21.9973455 52.744097C21.9973455 55.0965815 23.917912 57 26.2844958 57L27.7142224 57C30.0808659 57 32 55.0965815 32 52.744097L32 51.2573847C32 48.9062633 30.0808659 47 27.7142224 47L27.7142224 47zM29.5955766 53.1622256C29.5955766 54.5662012 28.4479756 55.7050756 27.0339459 55.7050756 25.6199162 55.7050756 24.4732105 54.5662012 24.4732105 53.1622256L24.4732105 50.9063463C24.4732105 49.5023114 25.6199162 48.3665189 27.0339459 48.3665189 28.4479756 48.3665189 29.5955766 49.5023114 29.5955766 50.9063463L29.5955766 53.1622256zM33.6336458 44L33.6336458 46.9947301 32.5011737 46.9947301 32 48.4374415 33.6006662 48.4374415 33.6006662 53.5446127C33.6006662 53.5446127 33.3006679 56.8936898 36.2006133 57L39 57 38.4317678 55.4848044 36.9657393 55.4848044C36.9657393 55.4848044 36.2333036 55.5541079 36.0338061 54.2852975L36.0338061 48.4036155 38.1979601 48.4036155 38.6663856 46.9238974 36.0664964 46.9238974 36.0664964 45.1269615C36.0664964 45.1269615 35.9332474 44 34.7323282 44L33.6336458 44zM40.0345082 47L40.0000115 52.5752157C40.0000115 52.5752157 39.965747 56.6276493 43.6459784 56.8365041L46.6560208 56.8365041C46.6560208 56.8365041 47.49155 60.9902079 43.2447362 60.4362284L42.6438311 61.960514C42.6438311 61.960514 46.8907031 62.4117198 48.2275963 60.263636 48.2275963 60.263636 48.93083 59.5370641 48.9978489 57.0090965L48.9978489 48.4563912C48.9978489 48.4563912 49.0982611 47.2437341 47.9269986 47.0696383L46.6560208 47.0696383 46.6560208 55.5195098 44.6158358 55.5195098C44.6158358 55.5195098 42.4422518 55.380173 42.4764581 52.7493115L42.4764581 48.2472958C42.4764581 48.2472958 42.4422518 47 41.3714014 47L40.0345082 47zM53.0001097 43L53.0001097 56.7573066C53.0001097 56.7573066 52.96572 57.9648648 54.1145439 57.9648648L55.6100457 57.9648648 55.6100457 50.8637415 61.353984 50.8637415 61.353984 56.8660161C61.353984 56.8660161 61.4922684 58 62.5360494 58L63.9994581 58 63.9994581 44.4617007C63.9994581 44.4617007 64.1045615 43 61.3872254 43L61.3872254 49.0708931 55.5773482 49.0708931 55.5773482 44.2041273C55.5773482 44.2041273 55.4358002 43 53.0001097 43M67 47L67 54.9326187C67 54.9326187 67.0166511 55.9970129 68.3093517 55.9970129L70 56 69.9815998 48.1138469C69.9815998 48.1138469 70.0221082 47 68.5726912 47L67 47zM71 42L71 55.8203715C71 55.8203715 71.0187601 56.9934675 72.3101944 56.9934675L74 57 73.9853 43.3724277C73.9853 43.3724277 74.0514502 42 72.3561845 42L71 42zM77 42L77 55.8203715C77 55.8203715 77.0184122 56.9934675 78.3099972 56.9934675L80 57 79.9852982 43.3724277C79.9852982 43.3724277 80.049776 42 78.357953 42L77 42zM67 43L67 44.6798085C67 44.6798085 67 45.9963927 68.2831514 45.9963927L70 46 69.963424 44.3986496C69.963424 44.3986496 70.0036854 43 68.5631041 43L67 43z"/>
    <path fill="#B40937" d="M103.328035,43 L102.852418,44.2075405 L98.5956019,44.2075405 C98.5956019,44.2075405 96.6571872,44.2313803 96.4424858,45.8625718 C96.4424858,45.8625718 96.1815698,46.920048 98.0326298,47.9396328 L102.138538,50.329493 C102.138538,50.329493 104.043666,51.4882131 103.9928,53.2427468 C103.9928,53.2427468 104.317148,56.7013125 100.611887,57 L94,57 L94.4770674,55.8050099 L98.6465285,55.8050099 C98.6465285,55.8050099 101.500838,55.7797289 101.688414,53.9398044 C101.804646,52.7984988 101.60112,52.6184095 100.436936,51.8849618 L96.2548486,49.3716394 C96.2548486,49.3716394 94.2400138,48.2509308 94.2400138,46.9579394 L94.2400138,45.4388608 C94.2400138,45.4388608 94.1017325,43.4346401 97.6081806,43 L103.328035,43 Z"/>
    <g transform="translate(106 43)">
      <mask id="b" fill="white">
        <use xlink:href="#a"/>
      </mask>
      <path fill="#B40937" d="M0.0423241611,0.0313797468 L0.0423241611,11.5434684 C0.0423241611,11.5434684 -0.016447651,14.7688481 3.50708255,14.9554304 L8.95733758,14.9554304 L8.60114295,13.652519 L3.89323691,13.652519 C3.89323691,13.652519 2.14427718,13.4027722 2.23518322,10.9203671 L2.23518322,1.11758228 C2.23518322,1.11758228 2.38129732,-0.0317848101 0.0423241611,0.0313797468" mask="url(#b)"/>
    </g>
  </g>
</svg>
