<svg xmlns="http://www.w3.org/2000/svg" width="112" height="44" viewBox="0 0 112 44">
  <g fill="#FEFEFE" fill-rule="evenodd">
    <path d="M111.940041,26.3205659 C111.900229,25.8814539 111.823482,25.4326522 111.710519,24.9739243 C111.597317,24.5151964 111.444303,24.0567048 111.251715,23.5977406 C111.058888,23.1390127 110.80946,22.7098268 110.50367,22.3099466 C110.197401,21.9103027 109.825417,21.5531992 109.38652,21.2386362 C108.947382,20.9240732 108.435335,20.6815926 107.849898,20.5111944 C107.477674,20.4064977 107.155096,20.3311065 106.882644,20.285021 C106.609712,20.2394082 106.347092,20.2098662 106.094546,20.1966314 C105.841521,20.183633 105.592092,20.1803243 105.346501,20.1867053 C105.099951,20.1935591 104.817905,20.1966314 104.498685,20.1966314 C104.471584,20.1966314 104.37541,20.1999401 104.209205,20.2065575 C104.042519,20.2131749 103.863123,20.219556 103.670775,20.2261734 C103.477708,20.2327908 103.30143,20.2457893 103.1417,20.2654052 C102.982209,20.285021 102.889153,20.3081819 102.862532,20.3341789 C102.104414,21.0552396 101.359487,21.7760639 100.62823,22.4966519 C99.896734,23.2177126 99.1518069,23.9451543 98.3936889,24.6789771 L98.3936889,34.7447573 L102.942157,34.7447573 L102.942157,23.479809 L104.598456,23.479809 C104.704703,23.479809 104.837812,23.4994249 104.997302,23.5386567 C105.157032,23.5781248 105.316522,23.6239739 105.476252,23.6764405 C105.635742,23.728907 105.781802,23.7846823 105.91515,23.8437662 C106.047779,23.9026139 106.154505,23.9517717 106.23437,23.9907671 C106.486676,24.1481668 106.693174,24.3741039 106.852664,24.669051 C107.012394,24.9639982 107.132072,25.2818699 107.211937,25.6226662 C107.291562,25.9634625 107.344566,26.3042588 107.371427,26.6448187 C107.398049,26.9858514 107.41124,27.2871796 107.41124,27.549276 C107.41124,27.8508406 107.398049,28.2145614 107.371427,28.6402023 C107.344566,29.0663158 107.261823,29.4791946 107.121999,29.8788385 C106.982415,30.2787187 106.762966,30.6228237 106.463652,30.9109171 C106.164338,31.1992469 105.741749,31.3502655 105.196844,31.3630276 C105.010253,31.3762624 104.814308,31.3958783 104.60829,31.4221116 C104.401792,31.4485812 104.212083,31.4613433 104.039641,31.4613433 L104.039641,34.7447573 L105.835285,34.7447573 C105.861427,34.7447573 105.944889,34.7348312 106.084713,34.7152153 C106.224297,34.6955994 106.38019,34.6726748 106.55335,34.6464416 C106.726271,34.619972 106.895835,34.5906663 107.06228,34.5578156 C107.228246,34.5252013 107.357996,34.4956593 107.451292,34.4691897 C108.448525,34.220328 109.246696,33.8400637 109.845324,33.3291055 C110.443712,32.8179111 110.902756,32.2412516 111.221736,31.5988908 C111.540956,30.9570026 111.750572,30.2787187 111.850343,29.5642755 C111.950114,28.8500685 112,28.1654036 112,27.5098079 C112,27.1560132 111.979854,26.759678 111.940041,26.3205659 L111.940041,26.3205659 Z M88.9971991,20 L88.3388524,20 C88.2719385,20 88.1923133,20.0068537 88.0994972,20.0196159 C88.0064413,20.0328507 87.9464826,20.0524666 87.9201007,20.0786998 C87.5337268,20.4324946 87.1320034,20.812759 86.7127721,21.2190203 C86.2937806,21.6252816 85.8683135,22.0445414 85.4358913,22.477036 C85.003469,22.9095306 84.5782418,23.3356442 84.1592503,23.7551403 C83.7404987,24.1746364 83.3445313,24.567663 82.9723076,24.9344562 C82.8924426,25.013156 82.7955494,25.1015456 82.6830668,25.1998613 C82.5698648,25.2981771 82.4636179,25.3934204 82.3638466,25.4848824 C82.2640753,25.5770534 82.1772551,25.665443 82.1045851,25.7502875 C82.0311957,25.8358411 81.9875457,25.9109959 81.9748345,25.9764609 C81.9477331,26.1076273 81.9278268,26.2551009 81.9148758,26.4188817 C81.901445,26.5828987 81.8916118,26.7400621 81.8851362,26.890608 C81.8779412,27.0413903 81.8750632,27.1725567 81.8750632,27.2838709 L81.8750632,27.4901921 C81.8750632,28.2112527 81.9477331,28.9450755 82.0945121,29.6921332 C82.2408113,30.4391908 82.5101459,31.143708 82.9025157,31.8054483 C83.2946457,32.467425 83.8301969,33.057083 84.5084499,33.5746585 C85.1867029,34.0927067 86.0577831,34.4890419 87.1219303,34.7643732 C87.2416079,34.7901338 87.3778341,34.8196757 87.5308488,34.8527628 C87.6833837,34.8851408 87.8301627,34.9118467 87.9699864,34.9312263 C88.1095703,34.9508421 88.2321259,34.9671493 88.3388524,34.9803841 C88.4453391,34.9933826 88.5115335,35 88.538395,35 L88.9971991,35 L88.9971991,31.618743 C88.4251929,31.5138099 87.9699864,31.3138698 87.6306201,31.0189226 C87.2914936,30.7242118 87.0353499,30.3834155 86.862429,29.9967701 C86.6895081,29.610361 86.5799036,29.1974822 86.5331358,28.7581339 C86.4866078,28.3192582 86.4633438,27.9096882 86.4633438,27.5294238 C86.4633438,27.1888639 86.4866078,26.799146 86.5331358,26.3597977 C86.5799036,25.9211584 86.6895081,25.4948085 86.862429,25.0819298 C87.0353499,24.669051 87.2914936,24.3053302 87.6306201,23.9907671 C87.9699864,23.6764405 88.4251929,23.4731916 88.9971991,23.3814933 L88.9971991,20 Z M97.0369431,25.6815138 C96.944127,25.0396256 96.7546575,24.3972648 96.4687744,23.7551403 C96.1826514,23.1130158 95.7734931,22.5134318 95.2417792,21.9561518 C94.7093459,21.3991082 94.0049509,20.943689 93.1269155,20.5898943 C93.100054,20.5768958 92.9938071,20.5407364 92.8079351,20.4816525 C92.6211038,20.4228048 92.4018947,20.3573398 92.1491088,20.285021 C91.8965627,20.2131749 91.6373012,20.1474736 91.3710845,20.0883896 C91.1051076,20.029542 90.8856587,20 90.7129776,20 L90.1544023,20 L90.1544023,23.440341 C90.7129776,23.5582725 91.1585908,23.7650664 91.4907621,24.0600135 C91.823413,24.354488 92.0728413,24.6886669 92.2390468,25.0623139 C92.4054922,25.4357245 92.5150967,25.8228426 92.5683401,26.2222502 C92.6211038,26.6221305 92.6482051,26.9986135 92.6482051,27.3526446 C92.6482051,27.6542091 92.6314167,27.9914604 92.5983194,28.3651074 C92.5649824,28.738518 92.4983083,29.1090926 92.398537,29.4758859 C92.2987657,29.8429154 92.156064,30.180403 91.9697123,30.4883486 C91.7836004,30.7962943 91.5440054,31.0357025 91.2514069,31.2058643 C91.0919167,31.2975626 90.9156381,31.3762624 90.7230507,31.4417275 C90.5297438,31.5074288 90.3402743,31.5665128 90.1544023,31.618743 L90.1544023,35 L90.7729363,35 C90.9590482,35 91.1816149,34.9735304 91.4408764,34.9213002 C91.7003777,34.8688336 91.9565214,34.8064409 92.2090675,34.7348312 C92.4618534,34.6627487 92.6880177,34.5906663 92.8875603,34.5185839 C93.0871029,34.4465014 93.2197316,34.3973436 93.2866455,34.370874 C94.1373397,33.9516142 94.8191902,33.4699617 95.3314775,32.9259166 C95.8432851,32.3823441 96.2358947,31.808757 96.5083471,31.2058643 C96.7810393,30.6032079 96.9606756,29.9804629 97.0470162,29.3381021 C97.1335966,28.6962139 97.1767669,28.0602341 97.1767669,27.4311081 C97.1767669,26.9071515 97.1302389,26.3238746 97.0369431,25.6815138 L97.0369431,25.6815138 Z M79.9796483,28.3355654 C79.5141288,27.7196742 78.7361046,27.2609463 77.6458153,26.9593817 C78.536562,26.5793537 79.1483807,26.1140084 79.4810316,25.5635822 C79.8134427,25.013156 79.9796483,24.4232617 79.9796483,23.7946084 C79.9796483,23.4275788 79.9300025,23.070239 79.8302312,22.7228253 C79.7304599,22.375648 79.5709697,22.0516315 79.3515208,21.7495943 C79.1320719,21.4482661 78.8428311,21.1764799 78.4835585,20.9337629 C78.1245257,20.6915187 77.6856279,20.4915786 77.1668651,20.3341789 C77.0073749,20.2819487 76.8078323,20.2394082 76.5684771,20.2065575 C76.3288821,20.1739432 76.1758675,20.1573997 76.1094332,20.1573997 L71.2815576,20.1573997 L67.0122573,24.3447982 L67.0122573,34.6856733 L71.5209127,34.6856733 L71.5209127,23.1061621 L74.1144869,23.1061621 C74.4867106,23.1061621 74.8092885,23.2309474 75.0817409,23.479809 C75.3544331,23.728907 75.4908991,24.0498511 75.4908991,24.443114 C75.4908991,24.6395091 75.4578019,24.8396855 75.3911278,25.042698 C75.3246936,25.2459468 75.1983006,25.4130363 75.0119489,25.5439663 C74.8790804,25.6361373 74.7128748,25.7110558 74.5135721,25.7699034 C74.3140295,25.8289874 74.1809211,25.8585294 74.1144869,25.8585294 L72.6582096,25.8585294 L72.6582096,28.6108967 L74.0746743,28.6108967 C74.2607861,28.6108967 74.470162,28.6305125 74.7028018,28.6697443 C74.9356814,28.708976 75.1551303,28.7812948 75.3611485,28.8859916 C75.5674064,28.991161 75.7403274,29.1350896 75.8799113,29.3187225 C76.019735,29.5021191 76.0895269,29.7445997 76.0895269,30.0459279 C76.0895269,30.3082607 76.0262105,30.5571224 75.8998176,30.7929856 C75.7734246,31.0288487 75.5774795,31.2124817 75.3112628,31.3434117 C75.205016,31.4091131 75.078623,31.4613433 74.9323237,31.5005751 C74.7860245,31.5400432 74.6795378,31.559659 74.6133434,31.559659 L72.6582096,31.559659 L72.6582096,34.7052892 L75.4110341,34.7052892 C75.4376558,34.7052892 75.4942568,34.6986718 75.5805974,34.6856733 C75.6671777,34.6726748 75.7635914,34.6561313 75.8698382,34.6365155 C75.9763249,34.6168996 76.0796937,34.6003561 76.179465,34.5873576 C76.2789965,34.5743591 76.3617395,34.5677417 76.4286534,34.5677417 C77.1198575,34.5547433 77.7321559,34.4299579 78.2641096,34.1940948 C78.7960633,33.9579952 79.2416764,33.656667 79.6009491,33.2896375 C79.9599818,32.9230806 80.2290766,32.5002757 80.408473,32.0216956 C80.5881093,31.5433519 80.6778076,31.0484646 80.6778076,30.5372702 C80.6778076,29.6855158 80.4454076,28.951693 79.9796483,28.3355654 L79.9796483,28.3355654 Z M49.0771669,34.6856733 L55.6009148,34.6856733 L55.6009148,31.4221116 L49.0771669,31.4221116 L49.0771669,34.6856733 Z M55.6009148,20.1573997 L47.8002861,20.1573997 L43.3914019,24.4823457 L43.3914019,34.6856733 L47.9199637,34.6856733 L47.9199637,23.2437095 L55.6009148,23.2437095 L55.6009148,20.1573997 Z M49.0771669,28.552049 L55.0622457,28.552049 L55.0622457,25.5635822 L49.0771669,25.5635822 L49.0771669,28.552049 Z M35.3715642,31.618743 C35.2648376,31.618743 35.1621883,31.6156706 35.062417,31.6088169 C34.9626457,31.6024358 34.879423,31.5988908 34.8129888,31.5988908 C34.0148184,31.5988908 33.386451,31.3762624 32.927647,30.930533 C32.4688429,30.4852763 32.2393209,29.8492965 32.2393209,29.0237754 L32.2393209,20.1966314 L27.7105193,24.698593 L27.7105193,29.2204068 C27.7105193,29.2991067 27.7237102,29.4595787 27.7505717,29.7018229 C27.7769536,29.9445399 27.8232417,30.1770943 27.8901556,30.3997227 C27.9299682,30.5571224 27.966663,30.7045959 28,30.8421434 C28.0328574,30.9796909 28.0628367,31.0945501 28.0896982,31.1862484 C28.1295108,31.4613433 28.2990741,31.802376 28.598388,32.208401 C28.8977019,32.6148986 29.253377,33.0046164 29.6656531,33.3782634 C30.0779292,33.751674 30.5036361,34.0761632 30.9425339,34.3512581 C31.3814316,34.6268257 31.7735616,34.7643732 32.1196433,34.7643732 C32.2258902,34.7643732 32.3390922,34.780444 32.4587698,34.813531 C32.5784474,34.845909 32.6782187,34.8626889 32.7580837,34.8626889 C32.8508998,34.8752147 32.9576263,34.8884495 33.0773039,34.9019206 C33.1969815,34.9146828 33.3094641,34.9279176 33.4164304,34.9413887 C33.5226772,34.9539145 33.6190909,34.9671493 33.7056712,34.9803841 C33.7920118,34.9933826 33.848373,35 33.8752345,35 L35.3715642,35 L35.3715642,31.618743 Z M41.8754058,20.2162473 L37.3264581,20.2162473 L37.3264581,29.2204068 C37.3264581,29.3775702 37.3067916,29.5446596 37.2664994,29.7214388 C37.2269266,29.8984544 37.1700857,30.0723975 37.0969361,30.2425594 C37.0240263,30.4129575 36.9376858,30.5703572 36.8379145,30.7142857 C36.7381432,30.8586869 36.6350142,30.96362 36.5287673,31.0288487 L36.5287673,34.9413887 L36.7081638,34.9413887 C36.8144106,34.9146828 36.9343281,34.8922309 37.0674364,34.8723786 C37.2000651,34.8527628 37.2998364,34.8359829 37.3665105,34.8232208 C37.4861881,34.7967512 37.6125811,34.7643732 37.7456894,34.7251414 C37.8783181,34.6856733 37.9982355,34.6528226 38.1047222,34.6268257 C38.5834326,34.4691897 39.0225702,34.2366352 39.4214155,33.9286896 C39.8205007,33.620744 40.1761758,33.2669492 40.4889205,32.867069 C40.8011855,32.467425 41.0604469,32.0446202 41.2669448,31.5988908 C41.4729629,31.1536341 41.6290954,30.7211395 41.7355821,30.301407 C41.7756345,30.1180104 41.8087317,29.9575383 41.8353534,29.8197545 C41.861975,29.6822071 41.8754058,29.580819 41.8754058,29.5151176 L41.8754058,20.2162473 Z M27.0325062,33.2208637 C26.7533384,32.7032882 26.507028,32.2348706 26.2940547,31.8151381 C26.1878078,31.6057445 26.0681302,31.3729537 25.9352617,31.1172383 C25.8021534,30.8617593 25.6524964,30.6032079 25.4862909,30.3408751 C25.3196056,30.0787786 25.140449,29.8232996 24.9476218,29.5742016 C24.7547946,29.3253399 24.5518943,29.1090926 24.3391607,28.9252233 C24.1662398,28.7812948 23.9731728,28.673053 23.7606791,28.6009706 C23.5477057,28.5291245 23.3416876,28.4404985 23.142145,28.3355654 C23.807207,28.1781657 24.3624247,27.9619184 24.8080379,27.6868235 C25.2536511,27.4114922 25.6126838,27.0938568 25.8853761,26.7332083 C26.1578285,26.3730325 26.3508955,25.9833147 26.4638577,25.5635822 C26.57682,25.1443224 26.633421,24.7054468 26.633421,24.2464825 C26.633421,23.3814933 26.4638577,22.6835936 26.1247313,22.1527832 C25.7856048,21.6219729 25.35678,21.2124029 24.8380173,20.9240732 C24.3192545,20.6359798 23.7537239,20.4424207 23.142145,20.344105 C22.5303263,20.2457893 21.9583201,20.1966314 21.4266063,20.1966314 L17.536245,20.1966314 L13.3266636,24.3447982 L13.3266636,34.7447573 L17.9151841,34.7447573 L17.9151841,23.1453938 L20.36102,23.1453938 C20.5480912,23.1453938 20.7416379,23.1718634 20.9423797,23.2240937 C21.1426418,23.2765602 21.3232374,23.3585688 21.4834471,23.4698829 C21.6438966,23.5814335 21.7772448,23.728907 21.884451,23.91254 C21.9914173,24.0959366 22.0449005,24.318565 22.0449005,24.5806614 C22.0449005,25.0396256 21.9218652,25.3738045 21.6757947,25.5831981 C21.4297241,25.7930643 21.143841,25.9341568 20.8179054,26.0060029 C20.4919698,26.0780854 20.1595587,26.110936 19.8204322,26.1043186 C19.4813057,26.0977012 19.2119712,26.1012463 19.0124286,26.1140084 L19.0124286,28.9843073 C19.1452971,29.0500087 19.2750478,29.1220911 19.4014407,29.2007909 C19.5278337,29.2794908 19.6240075,29.3709527 19.6909214,29.4758859 C19.8770332,29.7642156 20.0928846,30.1215554 20.339195,30.5471963 C20.5852656,30.9733098 20.8411694,31.428729 21.1073861,31.9134538 C21.3731231,32.3986513 21.6422178,32.8866848 21.9153897,33.3782634 C22.1878421,33.8696056 22.4370305,34.3252612 22.6634346,34.7447573 L27.8304368,34.7447573 C27.5776508,34.2465613 27.3119138,33.7386756 27.0325062,33.2208637 L27.0325062,33.2208637 Z M8.0200776,20.2162473 L3.71096474,20.1966314 L0,23.7747562 L3.49127601,23.7747562 L3.49127601,34.7447573 L8.0200776,34.7447573 L8.0200776,20.2162473 Z M12.7083694,20.2358632 L9.17728079,20.2162473 L9.17728079,23.7747562 L12.7083694,23.7747562 L12.7083694,20.2358632 Z"/>
    <path d="M62.6551445 29.9682623L62.6966486 33.828607C62.6966486 33.828607 62.6656371 34.1361377 62.2298442 33.9771276L61.7322616 33.8567377 62.4839984 30.1008104C62.4839984 30.1008104 62.6758965 29.268332 62.5098802 28.7593568L62.4814336 26.3703916C62.624133 26.9823538 62.7854859 27.7962374 62.8626649 28.6213256 62.8626649 28.6213256 62.6031478 29.4061248 62.6551445 29.9682623M78.9818702.124911224C78.3905537-.267488411 77.3429254.390007454 77.3429254.390007454 76.3265418.846058792 75.9530051.62339703 75.9530051.62339703L75.4344372.379279639C74.1377845.230997395 74.4334428 1.5300166 74.4334428 1.5300166 74.4803097 2.5162604 71.6016054 3.40714584 71.6016054 3.40714584 69.2055609 4.10707617 68.8007795 5.88884706 68.8007795 5.88884706 68.5522214 6.49341903 67.5405011 6.98642173 67.5405011 6.98642173L61.3664195 9.93871644C61.1605313 9.89342122 60.929694 9.85456269 60.6636481 9.82881593L53.8175735 8.68332368C53.8175735 8.68332368 52.1993807 8.22727234 51.743069 9.18180949 51.743069 9.18180949 50.0833721 13.9010945 48.9420099 15.6616482L47.0025103 19.1243485C47.0025103 19.1243485 46.9556433 19.2516519 47.2669239 19.2516519 47.2669239 19.2516519 48.4651793 19.3629828 48.8230937 18.5197765 48.8230937 18.5197765 49.6319569 17.2631918 50.0054937 17.2152742 50.0054937 17.2152742 51.2970167 16.8812816 50.4149384 15.6616482 50.4149384 15.6616482 50.3739007 15.4814209 50.6641961 15.2268141 50.6641961 15.2268141 53.1742602 13.943529 53.1122373 10.9316353 53.1122373 10.9316353 53.8798296 11.8225208 56.8671907 12.3951477 56.8671907 12.3951477 58.1223393 12.7026784 58.1325988 13.5830744 58.1325988 13.5830744 58.6929038 15.7889516 61.866567 15.3011936 61.866567 15.3011936 62.4371315 15.2163247 62.1883402 15.9479616 62.1883402 15.9479616 61.3948661 19.3789553 59.8233071 20.5561542 59.8233071 20.5561542 59.5017671 20.9006363 59.439511 21.6217838L59.0454554 21.7703045C59.0454554 21.7703045 58.5170944 21.5357229 57.8784446 21.5149825 57.8504643 20.9957562 57.4335581 20.5826161 56.918721 20.5826161 56.3859299 20.5826161 55.9543341 21.0241253 55.9543341 21.5688599 55.9543341 21.8361017 56.0592601 22.0778352 56.2283076 22.2554401 56.1369054 22.3798828 56.0531977 22.5222051 55.9802158 22.6876519 55.9802158 22.6876519 54.9792214 24.2307884 56.1511287 25.5352908 56.1511287 25.5352908 56.4211384 25.959397 56.8879427 25.9276904L57.3027503 25.8957453 57.8628222 26.5534796C57.8628222 26.5534796 58.0703426 26.7654136 58.3918827 26.4261762L58.4954097 26.3625245 58.640674 26.3837417C58.640674 26.3837417 58.7859383 26.563969 58.9001911 26.3942312 58.9001911 26.3942312 59.0659742 26.5215346 59.2009791 26.3517967L59.5952678 26.3093622C59.5952678 26.3093622 60.0620722 26.4261762 60.0410869 25.7050286L59.8543186 24.8830396 60.2898783 24.2944401C60.2898783 24.2944401 60.2280885 24.8882843 60.7259043 25.7579525 60.7259043 25.7579525 61.1199599 27.1153787 61.0782226 28.7274117 61.0782226 28.7274117 60.8191719 29.512211 60.8711685 30.0743485L60.9105741 33.7387317 59.8972217 33.9506657 59.3047393 33.8073897 57.0227144 34.2846583C57.0227144 34.2846583 56.753171 34.4012339 56.918721 34.592189L58.5891436 34.5709718 59.138723 34.7194924C59.138723 34.7194924 61.0861503 35.3197733 61.5142486 34.7640725 62.1671218 34.9056796 63.1524939 35.0348902 63.3499881 34.5816996L64.2682075 29.9947243C64.2682075 29.9947243 64.4598724 29.1622458 64.2938561 28.6532706L63.7088351 23.3148714C64.5344865 23.2557493 66.1181703 22.8807525 65.7462658 20.8369846L66.0782984 17.5707225C66.0782984 17.5707225 66.3893458 16.4252302 65.6217535 15.3436281L63.863193 12.456177C66.4527678 11.7452805 69.0654263 8.47115134 69.0654263 8.47115134 70.2273074 7.771221 70.4970839 7.11372514 70.4970839 7.11372514 70.6526076 6.8433842 71.3061803 6.31843645 71.3061803 6.31843645 72.0530206 5.88884706 73.0279001 4.8654135 73.0279001 4.8654135 73.3596996 4.50495891 75.3409365 2.83976362 75.3409365 2.83976362L76.4198094 2.16105052C77.2704099 1.82157477 78.6500708.580962562 78.6500708.580962562 79.1168751.347572986 78.9818702.124911224 78.9818702.124911224M108.658809 42.8235026L108.267215 42.8235026C108.267215 43.3952243 108.783831 44 109.592646 44 110.437387 44 110.888379 43.50852 110.983463 43.0555651 111.102498 42.3085428 110.561931 41.9406166 109.907837 41.799054L109.348828 41.6802872C108.771856 41.5558215 108.694495 41.2669972 108.694495 41.0632017 108.694495 40.6501396 109.134709 40.3727133 109.586659 40.3727133 110.092258 40.3727133 110.478822 40.6615376 110.478822 41.1142645L110.870655 41.1142645C110.870655 40.4349461 110.312365 40 109.586659 40 108.932565 40 108.302901 40.4294751 108.302901 41.0632017 108.302901 41.3914629 108.415709 41.8612868 109.26548 42.0425144L109.818741 42.1612811C110.282666 42.2631789 110.674739 42.5066393 110.597618 42.9876332 110.532232 43.2935545 110.211293 43.6272867 109.592646 43.6272867 109.021662 43.6272867 108.658809 43.2139967 108.658809 42.8235026L108.658809 42.8235026zM103.789632 43.1517638C103.486416 43.4460592 103.070153 43.6272867 102.600479 43.6272867 101.655145 43.6272867 101.00704 42.9028324 101.00704 42.0028495 101.00704 41.1028666 101.655145 40.3727133 102.600479 40.3727133 103.070153 40.3727133 103.480428 40.5539408 103.783883 40.8425372L104.057161 40.5822078C103.68856 40.2202086 103.177212 40 102.600479 40 101.441026 40 100.615446 40.8936 100.615446 42.0028495 100.615446 43.1066279 101.441026 44 102.600479 44 103.177212 44 103.694547 43.7797914 104.063388 43.4177922L103.789632 43.1517638zM95.621246 43.9434661L96.0130795 43.9434661 96.0130795 40.0451359 95.621246 40.0451359 95.621246 43.9434661zM88.1479097 40.0451359L88.1479097 40.4180772 89.461845 40.4180772 89.461845 43.9434661 89.8534389 43.9434661 89.8534389 40.4180772 91.1673742 40.4180772 91.1673742 40.0451359 88.1479097 40.0451359zM81.672599 42.8235026L81.2807656 42.8235026C81.2807656 43.3952243 81.7973821 44 82.6061972 44 83.4509383 44 83.90193 43.50852 83.9972537 43.0555651 84.1160492 42.3085428 83.5757214 41.9406166 82.9216279 41.799054L82.3623791 41.6802872C81.7854068 41.5558215 81.708046 41.2669972 81.708046 41.0632017 81.708046 40.6501396 82.1482598 40.3727133 82.600449 40.3727133 83.1058087 40.3727133 83.4926125 40.6615376 83.4926125 41.1142645L83.8842064 41.1142645C83.8842064 40.4349461 83.3259157 40 82.600449 40 81.9461159 40 81.3164521 40.4294751 81.3164521 41.0632017 81.3164521 41.3914629 81.4292599 41.8612868 82.2792702 42.0425144L82.8322918 42.1612811C83.2962168 42.2631789 83.6882897 42.5066393 83.6111685 42.9876332 83.5460226 43.2935545 83.2248437 43.6272867 82.6061972 43.6272867 82.0352125 43.6272867 81.672599 43.2139967 81.672599 42.8235026L81.672599 42.8235026zM76.2209411 42.5691001L74.6040295 42.5691001 75.4123655 40.5657947 76.2209411 42.5691001zM74.0507683 43.9434661L74.4610438 42.9192455 76.3576996 42.9192455 76.7737232 43.9434661 77.195974 43.9434661 75.6204971 40.0451359 75.2042339 40.0451359 73.628757 43.9434661 74.0507683 43.9434661zM69.234762 43.9434661L69.234762 40.0451359 68.8429285 40.0451359 68.8429285 43.2871716 66.7731092 40.0451359 66.3518164 40.0451359 66.3518164 43.9434661 66.7434103 43.9434661 66.7434103 40.6788625 68.8309532 43.9434661 69.234762 43.9434661zM59.2643259 43.0833761L57.706812 40.0451359 57.31426 40.0451359 56.814888 43.9434661 57.2014522 43.9434661 57.6174759 40.7128284 59.0681696 43.5192341 59.4607216 43.5192341 60.9054277 40.7128284 61.3214513 43.9434661 61.7080156 43.9434661 61.2086435 40.0451359 60.8160916 40.0451359 59.2643259 43.0833761zM51.2674273 42.1330142L52.8251807 40.0451359 52.3495198 40.0451359 51.0655229 41.7256511 49.7937408 40.0451359 49.3240676 40.0451359 50.863858 42.1330142 50.863858 43.9434661 51.2674273 43.9434661 51.2674273 42.1330142zM43.9310889 42.0315723L43.9310889 42.3819456 45.1264683 42.3819456C45.0788064 43.1572349 44.549496 43.6272867 43.6635596 43.6272867 42.7179861 43.6272867 41.9982676 42.9026044 41.9982676 42.0030774 41.9982676 41.1030945 42.7179861 40.3727133 43.6635596 40.3727133 44.0561116 40.3727133 44.4127375 40.502878 44.6922421 40.7180715L44.9717468 40.4520431C44.6151209 40.1693737 44.1629317 40 43.6635596 40 42.5038668 40 41.6066737 40.8936 41.6066737 42.0030774 41.6066737 43.1064 42.5038668 44 43.6635596 44 44.8290006 44 45.5657241 43.3555594 45.5657241 42.0315723L43.9310889 42.0315723zM29.3115828 40.0451359L29.3115828 40.4180772 30.6255181 40.4180772 30.6255181 43.9434661 31.017112 43.9434661 31.017112 40.4180772 32.3310473 40.4180772 32.3310473 40.0451359 29.3115828 40.0451359zM23.6335908 40.0451359L23.6335908 43.9434661 25.7613709 43.9434661 25.7613709 43.5707528 24.0251848 43.5707528 24.0251848 40.0451359 23.6335908 40.0451359zM17.3489277 43.6272867C16.7719553 43.6272867 16.2900673 43.2367926 16.2900673 42.625634L16.2900673 40.0451359 15.8984734 40.0451359 15.8984734 42.625634C15.8984734 43.4631561 16.5578361 44 17.3489277 44 18.1397797 44 18.7991424 43.4631561 18.7991424 42.625634L18.7991424 40.0451359 18.4075485 40.0451359 18.4075485 42.625634C18.4075485 43.2367926 17.9256605 43.6272867 17.3489277 43.6272867L17.3489277 43.6272867zM8.35304546 40.4180772L9.50076291 40.4180772C10.4463365 40.4180772 10.9222368 41.1028666 10.9222368 42.0028495 10.9222368 42.9028324 10.4463365 43.5707528 9.50076291 43.5707528L8.35304546 43.5707528 8.35304546 40.4180772zM9.50076291 43.9434661C10.6604557 43.9434661 11.3138308 43.1066279 11.3138308 42.0028495 11.3138308 40.8933721 10.6604557 40.0451359 9.50076291 40.0451359L7.96145155 40.0451359 7.96145155 43.9434661 9.50076291 43.9434661zM2.59242356 42.5691001L.975272426 42.5691001 1.78384799 40.5657947 2.59242356 42.5691001zM.422250807 43.9434661L.832526265 42.9192455 2.72918205 42.9192455 3.14520567 43.9434661 3.56745648 43.9434661 1.99174005 40.0451359 1.57571643 40.0451359 0 43.9434661.422250807 43.9434661z"/>
  </g>
</svg>
