<svg xmlns="http://www.w3.org/2000/svg" width="190" height="50" viewBox="0 0 190 50" xmlns:xlink="http://www.w3.org/1999/xlink">
  <defs>
    <polygon id="a" points="189.352 .355 189.352 21 0 21 0 .355"/>
    <polygon id="c" points=".001 .338 23.206 .338 23.206 21.85 .001 21.85"/>
  </defs>
  <g fill="none" fill-rule="evenodd" transform="translate(0 -1)">
    <g transform="translate(0 29.663)">
      <mask id="b" fill="white">
        <use xlink:href="#a"/>
      </mask>
      <path fill="#FBB237" d="M183.8804,0.8219 L182.0154,0.8219 L182.0154,7.4529 L183.2204,7.4529 L183.2204,2.2669 L183.2514,2.2669 L185.2324,7.4529 L186.1354,7.4529 L188.1154,2.2669 L188.1474,2.2669 L188.1474,7.4529 L189.3524,7.4529 L189.3524,0.8219 L187.5074,0.8219 L185.7044,5.5249 L183.8804,0.8219 Z M180.6634,0.8219 L175.3174,0.8219 L175.3174,1.8669 L177.3484,1.8669 L177.3484,7.4529 L178.6374,7.4529 L178.6374,1.8669 L180.6634,1.8669 L180.6634,0.8219 Z M157.7424,20.5319 L161.1974,20.5319 L161.1974,13.9069 L164.0094,11.1219 L170.4744,20.5319 L174.7764,20.5319 L166.3584,8.6899 L174.2254,0.8219 L169.9754,0.8219 L161.1974,9.7909 L161.1974,0.8219 L157.7424,0.8219 L157.7424,20.5319 Z M154.8534,7.0839 C154.4324,2.8329 150.9304,0.3749 146.4864,0.3549 C140.5734,0.3549 137.0394,5.0419 137.0394,10.6749 C137.0394,16.3079 140.5734,20.9999 146.4864,20.9999 C151.2624,20.9999 154.6044,17.7469 154.8794,13.0239 L151.5124,13.0239 C151.2314,15.8919 149.5474,18.1829 146.4864,18.1829 C142.2574,18.1829 140.4904,14.4579 140.4904,10.6749 C140.4904,6.8919 142.2574,3.1659 146.4864,3.1659 C149.3554,3.1659 150.8204,4.8229 151.4024,7.0839 L154.8534,7.0839 Z M118.3904,20.5319 L121.9444,20.5319 L123.7944,15.3149 L131.6664,15.3149 L133.5114,20.5319 L137.2164,20.5319 L129.6194,0.8219 L125.9504,0.8219 L118.3904,20.5319 Z M127.7174,4.2159 L127.7704,4.2159 L127.8004,4.2159 L130.7574,12.6909 L124.7354,12.6909 L127.7174,4.2159 Z M104.8904,3.7999 L111.1304,3.7999 L111.1304,20.5319 L114.5864,20.5319 L114.5864,3.7999 L120.8534,3.7999 L120.8534,0.8219 L104.8904,0.8219 L104.8904,3.7999 Z M87.9024,3.7999 L94.1384,3.7999 L94.1384,20.5319 L97.5884,20.5319 L97.5884,3.7999 L103.8604,3.7999 L103.8604,0.8219 L87.9024,0.8219 L87.9024,3.7999 Z M71.5244,20.5319 L75.0834,20.5319 L76.9334,15.3149 L84.8004,15.3149 L86.6504,20.5319 L90.3504,20.5319 L82.7584,0.8219 L79.0894,0.8219 L71.5244,20.5319 Z M80.8564,4.2159 L80.9134,4.2159 L80.9394,4.2159 L83.8914,12.6909 L77.8684,12.6909 L80.8564,4.2159 Z M63.5054,20.5319 L66.9554,20.5319 L66.9554,12.8049 L74.3244,0.8219 L70.4634,0.8219 L65.3244,9.6559 L60.1074,0.8219 L56.1064,0.8219 L63.5054,12.8049 L63.5054,20.5319 Z M39.8304,20.5319 L47.9994,20.5319 C54.0734,20.5319 56.6974,16.1149 56.6974,10.6749 C56.6974,5.2389 54.0734,0.8219 47.9994,0.8219 L39.8304,0.8219 L39.8304,20.5319 Z M43.2804,3.6339 L46.6744,3.6339 C52.0894,3.6339 53.2474,6.7309 53.2474,10.6749 C53.2474,14.6239 52.0894,17.7159 46.6744,17.7159 L43.2804,17.7159 L43.2804,3.6339 Z M27.4994,3.1659 C31.7294,3.1659 33.4964,6.8919 33.4964,10.6749 C33.4964,14.4579 31.7294,18.1829 27.4994,18.1829 C23.2794,18.1829 21.5134,14.4579 21.5134,10.6749 C21.5134,6.8919 23.2794,3.1659 27.4994,3.1659 L27.4994,3.1659 Z M27.4994,0.3549 C21.5964,0.3549 18.0634,5.0419 18.0634,10.6749 C18.0634,16.3079 21.5964,20.9999 27.4994,20.9999 C33.4124,20.9999 36.9464,16.3079 36.9464,10.6749 C36.9464,5.0419 33.4124,0.3549 27.4994,0.3549 L27.4994,0.3549 Z M3.4504,3.6339 L9.0834,3.6339 C10.9594,3.6339 11.9834,4.3559 11.9834,6.3409 C11.9834,8.1079 10.7404,9.0739 9.0834,9.0739 L3.4504,9.0739 L3.4504,3.6339 Z M-0.0006,20.5319 L9.0574,20.5319 C14.1604,20.5319 16.3174,18.1319 16.3174,15.0399 C16.3174,12.3579 15.0234,10.4819 12.6224,9.9579 L12.6224,9.9049 C14.4144,9.1259 15.4334,7.6919 15.4334,5.7069 C15.4334,2.4179 13.1154,0.8219 9.5824,0.8219 L-0.0006,0.8219 L-0.0006,20.5319 Z M3.4504,11.5579 L9.5514,11.5579 C11.6504,11.5579 12.8664,12.6649 12.8664,14.5979 C12.8664,16.5889 11.6504,17.7159 9.5514,17.7159 L3.4504,17.7159 L3.4504,11.5579 Z" mask="url(#b)"/>
    </g>
    <path fill="#0C0B0A" d="M153.3481 2.7549C158.1191 2.7499 171.5871 2.7549 171.5871 2.7549L170.9011 7.6809C170.9011 7.6809 156.0601 7.6659 155.7901 7.6759 155.3171 7.6759 155.2341 7.9459 155.2181 8.1229L154.9941 9.6869C154.9941 9.6869 154.8491 10.1759 155.3741 10.1959 155.4891 10.2069 164.2651 10.1909 168.4281 10.1859 170.6941 10.1599 170.2881 12.2439 170.2881 12.2439 170.2881 12.2439 169.3271 19.2539 169.2281 19.8569 169.0931 20.8379 169.0411 22.3559 166.5101 22.3869 161.6101 22.3769 148.0161 22.3769 148.0161 22.3769L148.6811 17.4499C148.6811 17.4499 162.9041 17.4299 163.5171 17.4299 164.1351 17.4299 164.1931 17.0039 164.1931 17.0039L164.4111 15.3929C164.4111 15.3929 164.5151 14.9619 163.9171 15.0129 161.7401 15.0129 154.5951 15.0239 151.6071 15.0079 149.7311 15.0079 149.0551 14.4569 149.2791 12.7839 149.5901 10.4619 150.1721 6.1169 150.2411 5.6339 150.3651 4.6619 150.5471 2.7919 153.3481 2.7549M52.5142 2.7939C57.2852 2.7939 70.7542 2.7989 70.7542 2.7989L70.0362 7.7099C70.0362 7.7099 55.2162 7.7099 54.9522 7.7199 54.4842 7.7199 54.4012 7.9899 54.3852 8.1619L54.1512 9.7209C54.1512 9.7209 54.0162 10.2139 54.5352 10.2349 54.6602 10.2509 63.4322 10.2299 67.5942 10.2299 69.8552 10.2039 69.4502 12.2879 69.4502 12.2879 69.4502 12.2879 68.4932 19.2929 68.3892 19.8959 68.2542 20.8879 68.2072 22.3899 65.6712 22.4319 60.7772 22.4209 47.0782 22.4209 47.0782 22.4209L47.7602 17.4839C47.7602 17.4839 62.0712 17.4739 62.6792 17.4739 63.3022 17.4739 63.3652 17.0429 63.3652 17.0429L63.5732 15.4369C63.5732 15.4369 63.6762 15.0059 63.0782 15.0519 60.9072 15.0519 53.7672 15.0629 50.7682 15.0469 48.8982 15.0519 48.2172 14.5019 48.4462 12.8179 48.7572 10.5009 49.3392 6.1609 49.4072 5.6779 49.5362 4.6859 49.7082 2.8359 52.5142 2.7939M41.9527 7.9912L41.6817 9.9552C41.6817 9.9552 41.6307 10.2152 41.3807 10.1792 41.1827 10.1842 32.8947 10.1892 31.4447 10.1952L31.2637 9.9662C31.3307 9.4572 31.4867 8.2722 31.5177 8.0852 31.5387 7.8462 31.6797 7.7992 31.8347 7.7732 31.9747 7.7682 40.0817 7.7682 41.6977 7.7682 42.0147 7.7312 41.9527 7.9912 41.9527 7.9912M45.7457 2.8462C42.1707 2.8312 33.5757 2.8052 29.8127 2.8102 28.6027 2.8162 26.9867 3.1532 26.6647 5.5382 26.3007 8.2412 25.2207 16.0302 24.6837 20.0002 24.3367 22.5002 26.4727 22.4422 26.8727 22.4422 27.2727 22.4422 45.2107 22.4532 45.2107 22.4532L45.9017 17.5062C45.9017 17.5062 31.3057 17.5782 31.0187 17.5632 31.0187 17.5422 30.3857 17.6252 30.4217 17.1322L30.6447 15.3962C30.6767 15.3082 30.7547 15.1052 31.1847 15.1052 34.0077 15.1052 41.3077 15.0952 44.2027 15.0952 46.4007 15.0742 46.5097 12.9182 46.5097 12.9182L47.5967 4.9512C47.5967 4.9512 48.2297 2.7952 45.7457 2.8462"/>
    <g transform="translate(0 .662)">
      <mask id="d" fill="white">
        <use xlink:href="#c"/>
      </mask>
      <path fill="#0C0B0A" d="M0.0249,19.1324 L2.6019,0.3474 L8.3439,0.3374 L6.2499,16.0874 C6.2289,16.3374 6.1569,16.8724 6.9669,16.8724 L23.2059,16.8564 L22.5199,21.8244 C22.5199,21.8244 2.9869,21.8454 2.4049,21.8504 C-0.1111,21.8504 -0.0481,19.8494 0.0249,19.1324" mask="url(#d)"/>
    </g>
    <path fill="#0C0B0A" d="M102.8657 19.8018L105.1367 2.7948 110.5137 2.7888 108.6847 16.7988C108.6647 17.0428 108.5917 17.5728 109.3607 17.5728L124.0557 17.5628 123.4017 22.4318C123.2097 22.4888 106.3937 22.4678 105.0897 22.4678 102.7457 22.4728 102.7977 20.4988 102.8657 19.8018M125.6089 19.7939L127.8839 2.7919 133.2629 2.7809 131.4329 16.7849C131.4129 17.0349 131.3399 17.5649 132.1089 17.5649L146.8309 17.5079 146.1609 22.3869C146.1609 22.3869 128.3829 22.4549 127.8379 22.4549 125.4839 22.4599 125.5509 20.4959 125.6089 19.7939"/>
    <polygon fill="#0C0B0A" points="97.553 2.874 94.908 22.433 100.541 22.423 103.186 2.869"/>
    <path fill="#0C0B0A" d="M72.8511,1.1074 C72.8511,1.1074 79.8091,1.0974 80.5681,1.0974 C81.3471,1.0974 81.5341,1.8504 81.5491,2.0164 L82.7131,12.1754 L82.9481,12.3264 C83.1551,12.3424 83.1921,12.1754 83.1921,12.1754 L86.9281,1.8504 C86.9691,1.7414 87.2131,1.0974 88.0711,1.1074 C88.4661,1.0974 95.9441,1.0974 95.9441,1.0974 L93.0291,22.4234 L87.1661,22.4284 L89.0891,8.7304 L89.0381,8.7304 L83.7271,22.4334 L79.1441,22.4334 L77.5531,8.7464 L77.4911,8.7414 L75.6251,22.4384 L69.9201,22.4334 L72.8511,1.1074 Z"/>
  </g>
</svg>
