<svg xmlns="http://www.w3.org/2000/svg" width="92" height="36" viewBox="0 0 92 36">
  <g fill="#FEFEFE" fill-rule="evenodd">
    <path d="M33 7.21079854C43.2575017 7.84795197 50.0963973 5.01952124 56 0 51.5804516 6.94480426 42.140621 9.43196284 33 7.21079854M11.1136968 26C7.32070035 26 4.71498227 19.9751274 2.21586879 17.9784746L2.21586879 26 0 26 0 15 .904033688 15C4.0589539 15 7.0724734 21.3465038 9.78435284 23.3600846L9.78435284 15 12 15 12 26 11.1136968 26zM22 17.0948505C19.5966657 17.0948505 18.3335771 18.6920687 18.3335771 20.999778 18.3335771 23.3074874 19.5966657 24.869636 22 24.869636 24.421322 24.869636 25.6844106 23.3074874 25.6844106 20.999778 25.6844106 18.6920687 24.421322 17.0948505 22 17.0948505M22 27C18.2986984 27 16 24.4789879 16 20.999778 16 17.46752 18.2986984 15 22 15 25.7195086 15 28 17.46752 28 20.999778 28 24.4789879 25.7195086 27 22 27"/>
    <polygon points="36.503 26 35.462 26 30 15 32.497 15 35.983 22.54 39.468 15 42 15"/>
    <path d="M48.9997806,17.0948505 C46.5965778,17.0948505 45.3332236,18.6920687 45.3332236,20.999778 C45.3332236,23.3074874 46.5965778,24.869636 48.9997806,24.869636 C51.4209718,24.869636 52.6841066,23.3074874 52.6841066,20.999778 C52.6841066,18.6920687 51.4209718,17.0948505 48.9997806,17.0948505 M48.9997806,27 C45.2983438,27 43,24.4789879 43,20.999778 C43,17.46752 45.2983438,15 48.9997806,15 C52.7196446,15 55,17.46752 55,20.999778 C55,24.4789879 52.7196446,27 48.9997806,27"/>
    <polygon points="65.061 16.912 65.061 26 62.939 26 62.939 16.912 59 16.912 59 15 69 15 69 16.912"/>
    <path d="M75.0256153 26C72.3617331 26 71 24.971032 71 22.1175128L71 15 78 15 78 16.9579436 72.8650506 16.9579436 72.8650506 19.3139899 77.6149251 19.3139899 77.6149251 21.2711037 72.8650506 21.2711037 72.8650506 22.1673016C72.8650506 23.6275649 73.5748764 24.0088639 75.0994475 24.0088639 76.4613656 24.0088639 77.2006133 23.9090789 78 23.75992L78 25.6848785C77.2006133 25.8506337 76.5055909 26 75.0256153 26M88.8346833 27C86.1109812 27 85 25.751207 85 22.6561557L85 15 86.9177222 15 86.9177222 22.6921394C86.9177222 24.3032589 87.40405 24.8278515 88.9718674 24.8278515 90.325632 24.8278515 91.1780375 24.7013428 92 24.5743814L92 26.6562311C91.1780375 26.8370549 90.3564556 27 88.8346833 27M26.1592741 32.0780478L28.4319665 32.0780478 28.4319665 32.4876407 26.5868435 32.4876407 26.5868435 33.7166299 28.3538649 33.7166299 28.3538649 34.1266435 26.5868435 34.1266435 26.5868435 34.7897339C26.5868435 35.3947618 26.7807363 35.5710529 27.4610365 35.5710529 27.7127203 35.5710529 28.0820799 35.5514884 28.4514395 35.5123593L28.4514395 35.9025981C28.1597627 35.9419375 27.868714 35.9810666 27.4021986 35.9810666 26.5091607 35.9810666 26.1592741 35.7075839 26.1592741 34.7897339L26.1592741 32.0780478zM54.5746292 32.0780478L56.8469028 32.0780478 56.8469028 32.4876407 55.0019892 32.4876407 55.0019892 33.7166299 56.7698482 33.7166299 56.7698482 34.1266435 55.0019892 34.1266435 55.0019892 34.7897339C55.0019892 35.3947618 55.1963008 35.5710529 55.8757634 35.5710529 56.1284942 35.5710529 56.4972256 35.5514884 56.8659571 35.5123593L56.8659571 35.9025981C56.5751178 35.9419375 56.2834409 35.9810666 55.8179724 35.9810666 54.924097 35.9810666 54.5746292 35.7075839 54.5746292 34.7897339L54.5746292 32.0780478zM31.6171698 34.9653939C31.6171698 35.4927948 31.8114814 35.5710529 32.4913628 35.5710529 32.7434654 35.5710529 33.0156692 35.5514884 33.3844006 35.5123593L33.3844006 35.9025981C33.0933519 35.9419375 32.8990403 35.9810666 32.4325249 35.9810666 31.5392776 35.9810666 31.1898098 35.8047754 31.1898098 35.0247186L31.1898098 32.0780478 31.6171698 32.0780478 31.6171698 34.9653939zM43.1393474 33.6194383C42.6236259 33.8091932 42.2092479 34.278742 42.2092479 34.9041759 42.2092479 35.5281372 42.6650846 36 43.4691328 36 44.6643169 36 45.280335 34.9919007 45.0634095 33.92637L44.6888152 33.92637C44.839993 34.9609761 44.3225964 35.6297465 43.5212703 35.6297465 42.9982202 35.6297465 42.617763 35.3878195 42.617763 34.9041759 42.617763 34.4745977 42.9027395 34.0542758 43.3920782 33.9124855L43.1393474 33.6194383zM45.1544931 35.9221626L45.6986913 35.9221626 43.717257 33.9320501C43.2901064 33.4831177 43.1604956 33.2874724 43.1604956 33.0144104 43.1604956 32.6050279 43.4842087 32.3893973 43.892305 32.3893973 44.1450358 32.3893973 44.3973478 32.4295782 44.6693422 32.5267697L44.6693422 32.1560955C44.4166114 32.0580625 44.1835631 32.0193542 43.892305 32.0193542 43.0380038 32.0193542 42.7147095 32.5067845 42.7147095 33.0144104 42.7147095 33.3068265 42.8824289 33.6585674 43.1152678 33.8925003L45.1544931 35.9221626zM80.6590822 36C80.2126679 36 79.7072064 35.8830336 79.4161577 35.7467129L79.4161577 35.3562638C79.7461525 35.4927948 80.1931949 35.610182 80.6590822 35.610182 81.2612808 35.610182 81.5718025 35.2975702 81.5718025 34.9073314 81.5718025 33.7755338 79.4360496 34.4973178 79.4360496 33.0335542 79.4360496 32.5067845 79.8043622 32 80.6785552 32 81.0667597 32 81.4750654 32.0780478 81.7663235 32.1952246L81.7663235 32.6050279C81.4555924 32.4876407 81.0667597 32.3893973 80.6980283 32.3893973 80.1345664 32.3893973 79.8437271 32.6630904 79.8437271 33.0335542 79.8437271 34.0679499 82 33.3850847 82 34.9073314 82 35.5514884 81.4555924 36 80.6590822 36L80.6590822 36zM60.4598848 36C60.0130518 36 59.5075903 35.8830336 59.216751 35.7467129L59.216751 35.3562638C59.5471645 35.4927948 59.9935788 35.610182 60.4598848 35.610182 61.0616646 35.610182 61.3728145 35.2975702 61.3728145 34.9073314 61.3728145 33.7755338 59.2366428 34.4973178 59.2366428 33.0335542 59.2366428 32.5067845 59.6055837 32 60.4791485 32 60.867353 32 61.2752399 32.0780478 61.5671262 32.1952246L61.5671262 32.6050279C61.2561857 32.4876407 60.867353 32.3893973 60.4982028 32.3893973 59.9349503 32.3893973 59.6439016 32.6630904 59.6439016 33.0335542 59.6439016 34.0679499 61.8001745 33.3850847 61.8001745 34.9073314 61.8001745 35.5514884 61.2561857 36 60.4598848 36L60.4598848 36zM49.8162973 33.9124855L50.7484907 33.9124855C51.2143779 33.9124855 51.5835282 33.6970653 51.5835282 33.1902808 51.5835282 32.7024298 51.233851 32.4876407 50.787018 32.4876407L49.8162973 32.4876407 49.8162973 33.9124855zM49.3885186 32.0780478L50.806491 32.0780478C51.4476357 32.0780478 52.0108882 32.4876407 52.0108882 33.1702956 52.0108882 33.8146629 51.6025824 34.1657726 51.1172221 34.2438203L52.2629908 35.9221626 51.7575292 35.9221626 50.6511255 34.3218681 49.8162973 34.3218681 49.8162973 35.9221626 49.3885186 35.9221626 49.3885186 32.0780478zM65.7425231 32.4095929C64.8492759 32.4095929 64.3676845 33.1702956 64.3676845 33.9899022 64.3676845 34.8288629 64.8492759 35.5906174 65.7425231 35.5906174 66.6361891 35.5906174 67.1181993 34.8288629 67.1181993 33.9899022 67.1181993 33.1902808 66.6361891 32.4095929 65.7425231 32.4095929L65.7425231 32.4095929zM65.7425231 36C64.5385448 36 63.9175013 35.0442832 63.9175013 33.9899022 63.9175013 32.9363627 64.5385448 32 65.7425231 32 66.9469203 32 67.5681731 32.9363627 67.5681731 33.9899022 67.5681731 35.0442832 66.9469203 36 65.7425231 36L65.7425231 36zM76.0948526 32.4876407L76.0948526 35.9221626 75.6674926 35.9221626 75.6674926 32.4876407 74.2880475 32.4876407 74.2880475 32.0780478 77.4740883 32.0780478 77.4740883 32.4876407 76.0948526 32.4876407zM70.2095969 33.9124855L71.1426278 33.9124855C71.6087245 33.9124855 71.9774559 33.6970653 71.9774559 33.1902808 71.9774559 32.7024298 71.6277787 32.4876407 71.180527 32.4876407L70.2095969 32.4876407 70.2095969 33.9124855zM69.7828651 32.0780478L71.2004188 32.0780478C71.8415634 32.0780478 72.4048159 32.4876407 72.4048159 33.1702956 72.4048159 33.8146629 71.996929 34.1657726 71.5115687 34.2438203L72.6571279 35.9221626 72.1520852 35.9221626 71.045472 34.3218681 70.2095969 34.3218681 70.2095969 35.9221626 69.7828651 35.9221626 69.7828651 32.0780478zM36.7833886 36C36.3365556 36 35.8317222 35.8830336 35.5406735 35.7467129L35.5406735 35.3562638C35.8710871 35.4927948 36.3177107 35.610182 36.7833886 35.610182 37.3853778 35.610182 37.6958995 35.2975702 37.6958995 34.9073314 37.6958995 33.7755338 35.5601466 34.4973178 35.5601466 33.0144104 35.5601466 32.4095929 36.0065608 32 36.8420171 32 37.1914849 32 37.5995812 32.0780478 37.8906299 32.1952246L37.8906299 32.585253C37.5798988 32.4676554 37.1914849 32.3893973 36.8998081 32.3893973 36.2978189 32.3893973 35.9676147 32.6050279 35.9676147 32.9946355 35.9676147 34.0679499 38.1236782 33.3850847 38.1236782 34.9073314 38.1236782 35.5514884 37.5798988 36 36.7833886 36L36.7833886 36zM22.4302914 32.4876407L22.4302914 35.9221626 22.0029314 35.9221626 22.0029314 32.4876407 20.6046414 32.4876407 20.6046414 32.0780478 23.8095271 32.0780478 23.8095271 32.4876407 22.4302914 32.4876407zM17.1275519 32.4095929C16.234514 32.4095929 15.7529227 33.1702956 15.7529227 33.9899022 15.7529227 34.8288629 16.234514 35.5906174 17.1275519 35.5906174 18.0212179 35.5906174 18.5028093 34.8288629 18.5028093 33.9899022 18.5028093 33.1902808 18.0212179 32.4095929 17.1275519 32.4095929L17.1275519 32.4095929zM17.1275519 36C15.9235735 36 15.3019019 35.0442832 15.3019019 33.9899022 15.3019019 32.9363627 15.9235735 32 17.1275519 32 18.331949 32 18.95383 32.9363627 18.95383 33.9899022 18.95383 35.0442832 18.331949 36 17.1275519 36L17.1275519 36zM12.6022684 35.9221626L12.6022684 34.1462081 10.4267318 34.1462081 10.4267318 35.9221626 10 35.9221626 10 32.0780478 10.4267318 32.0780478 10.4267318 33.7361944 12.6022684 33.7361944 12.6022684 32.0780478 13.0296283 32.0780478 13.0296283 35.9221626 12.6022684 35.9221626z"/>
  </g>
</svg>
