<svg xmlns="http://www.w3.org/2000/svg" width="88" height="27" viewBox="0 0 88 27" xmlns:xlink="http://www.w3.org/1999/xlink">
  <defs>
    <polygon id="a" points="0 21.12 0 .091 27.895 .091 27.895 21.12"/>
    <polygon id="c" points="23.986 4.996 23.986 .093 .15 .093 .15 4.996 23.986 4.996"/>
  </defs>
  <g fill="none" fill-rule="evenodd">
    <path fill="#ED202D" d="M54.9552604,0.31633191 C54.8728246,0.123471488 54.6902187,0 54.4883193,0 L36.5112828,0.0253065528 C36.3101629,0.0253065528 36.127557,0.149594381 36.0449263,0.341638463 C35.9624906,0.533682546 35.995231,0.759196585 36.1289212,0.917158455 L45.4850873,12 L54.870486,0.891647817 C55.004371,0.733890032 55.0376961,0.509192333 54.9552604,0.31633191"/>
    <path fill="#FEFEFE" d="M58.5262434,5 L57.2378548,5.00139274 C55.2380045,4.99064872 55.1453205,5.03342587 53.4208682,6.94486816 L45.0003062,16.1626479 L36.5797443,6.94486816 C34.8550878,5.03342587 34.7628121,4.99064872 32.7619411,5.00139274 L32.7619411,5 L31.4735524,5 C30.6634865,5 30,5.57560139 30,6.27953424 L30,24.7204658 C30,25.4238017 30.6634865,26 31.4735524,26 L34.0695198,26 C34.8795857,26 35.5430722,25.4238017 35.5430722,24.3613367 C35.5430722,24.3613367 35.5438888,13.7169886 35.5438888,13.2929974 C35.5438888,13.2929974 40.6253785,18.8369163 42.9606467,21.4321961 C43.6049431,22.1484647 44.3025226,22.5127668 45.0003062,22.5165471 C45.6980898,22.5127668 46.3950569,22.1484647 47.0397616,21.4321961 C49.3752339,18.8369163 54.4561112,13.2929974 54.4561112,13.2929974 C54.4561112,13.7169886 54.4573361,24.3613367 54.4573361,24.3613367 C54.4573361,25.4238017 55.120006,26 55.9302761,26 L58.5262434,26 C59.337126,26 60,25.4238017 60,24.7204658 L60,6.27953424 C60,5.57560139 59.337126,5 58.5262434,5"/>
    <g transform="translate(0 5)">
      <mask id="b" fill="white">
        <use xlink:href="#a"/>
      </mask>
      <path fill="#FEFEFE" d="M27.5920738,19.0636094 C26.8336908,17.7228878 26.0534638,16.3921286 25.2851518,15.0555912 C22.6289248,10.4376833 19.9661447,5.82256483 17.3273929,1.19688634 C16.8934922,0.437363321 16.2735206,0.0711504906 15.3252936,0.0914735094 L12.5691801,0.0914735094 C11.6209532,0.0711504906 11.0009816,0.437363321 10.5670809,1.19688634 C7.92832908,5.82256483 1.06018723,17.7228878 0.3024,19.0636094 C-0.400975887,20.3086931 0.147307801,21.1116516 1.68889645,21.1174297 L3.91837163,21.1196214 C4.8028539,21.1319746 5.42500993,20.8020245 5.80390355,20.0731852 C6.12977589,19.4445663 6.46438582,18.8187369 6.81289645,18.2002795 L9.82180426,12.6957301 L9.8116766,12.6957301 C10.4179461,11.591712 11.0162723,10.5030358 11.6159887,9.41216785 L11.625322,9.39483351 L11.6159887,9.41216785 C12.3823149,8.01765011 13.1508255,6.61854974 13.9433645,5.1774086 C13.9447546,5.18019804 13.9461447,5.18238974 13.9477333,5.18537842 C13.9491234,5.18238974 13.9497191,5.18019804 13.9513078,5.1774086 C14.5655206,6.29517464 15.1660312,7.38743728 15.762173,8.47173011 L15.7526411,8.45579049 L15.762173,8.47173011 C16.5356482,9.87959728 17.302173,11.274912 18.0829957,12.6957301 L18.0698894,12.6957301 L20.9592511,17.9836999 C21.2700312,18.5272411 21.5671092,19.0767595 21.8574355,19.6282705 L21.8778894,19.6661271 L21.8574355,19.6282705 C21.9356766,19.7767082 22.0139177,19.9249467 22.0907688,20.0731852 C22.4696624,20.8020245 23.0918184,21.1319746 23.9763007,21.1196214 L26.2057759,21.1174297 C27.747166,21.1116516 28.2954496,20.3086931 27.5920738,19.0636094" mask="url(#b)"/>
    </g>
    <path fill="#FEFEFE" d="M6.42244748 17C5.64038708 17 5 17.5933093 5 18.3178769L5 19.6823057C5 20.4066907 5.64038708 21 6.42244748 21L21.5775525 21C22.360204 21 23 20.4066907 23 19.6823057L23 18.3178769C23 17.5933093 22.360204 17 21.5775525 17L6.42244748 17zM64 24.5638815C64 25.3533686 64.6005396 26 65.333937 26L67.666063 26C68.3994604 26 69 25.3533686 69 24.5638815L69 6.43631747C69 5.64663136 68.3994604 5 67.666063 5L65.333937 5C64.6005396 5 64 5.64663136 64 6.43631747L64 24.5638815z"/>
    <g transform="translate(64 5)">
      <mask id="d" fill="white">
        <use xlink:href="#c"/>
      </mask>
      <path fill="#FEFEFE" d="M22.5051077,4.99602083 C23.3192615,4.99602083 23.9859282,4.3189375 23.9859282,3.4920625 L23.9859282,1.59622917 C23.9859282,0.769354167 23.3192615,0.0928958333 22.5051077,0.0928958333 L1.63044103,0.0928958333 C0.815671795,0.0928958333 0.149825641,0.769354167 0.149825641,1.59622917 L0.149825641,3.4920625 C0.149825641,4.3189375 0.815671795,4.99602083 1.63044103,4.99602083 L22.5051077,4.99602083 Z" mask="url(#d)"/>
    </g>
    <path fill="#FEFEFE" d="M67.399031,13 C66.6290698,13 66,13.6923142 66,14.5377897 L66,16.4630624 C66,17.3085378 66.6290698,18 67.399031,18 L83.6011628,18 C84.3707364,18 85,17.1632584 85,16.3169308 L85,14.5377897 C85,13.6923142 84.3707364,13 83.6011628,13 L67.399031,13 Z"/>
  </g>
</svg>
