<svg xmlns="http://www.w3.org/2000/svg" width="111" height="22" viewBox="0 0 111 22">
  <g fill="#FFFFFF" fill-rule="evenodd">
    <path d="M92.0579863 17C88.6113223 17 86.343793 14.6665471 86 12.0238138L89.0941367 12.0238138C89.439628 13.108201 90.4763445 13.8248572 92.0579863 13.8248572 93.8257178 13.8248572 94.9699151 12.6494902 94.9699151 10.8235417 94.9699151 8.97192573 93.8708451 7.8936377 91.9905378 7.74268245 91.024909 7.67355817 90.0820865 7.77165366 89.1877881 7.8936377L92.3098261 2.96116244 87.0313789 2.96116244 87.0313789 0 97.7481601 0 93.9402345 5.55637277C96.3974929 6.0366849 98 7.8936377 98 10.8235417 98 14.4047897 95.4995552 17 92.0579863 17M105.057111 16C101.612291 16 99.3455732 13.803809 99 11.3165306L102.094639 11.3165306C102.441667 12.3371304 103.474506 13.0116303 105.057111 13.0116303 106.82402 13.0116303 107.974719 11.9054026 107.974719 10.1868628 107.974719 8.4441654 106.869369 7.42930607 104.987996 7.28723054 104.026454 7.22217239 103.083827 7.31449756 102.190187 7.42930607L105.310531 2.78697641 100.034537 2.78697641 100.034537 0 110.748035 0 106.937029 5.22952731C109.396298 5.68158579 111 7.42930607 111 10.1868628 111 13.5574491 108.498777 16 105.057111 16M6.7126052 17C2.79569625 17 0 14.1109531 0 10.5209781 0 6.94001058 2.79569625 4 6.7126052 4 9.84473986 4 12.218707 5.68962311 12.9696634 8.4767427L9.41231829 8.4767427C8.96199311 7.63880532 7.92457919 6.91772879 6.7126052 6.91772879 4.87251339 6.91772879 3.38825555 8.55472895 3.38825555 10.549897 3.38825555 12.4990792 4.87251339 14.1109531 6.7126052 14.1109531 7.95118592 14.1109531 9.01197399 13.3898766 9.43892502 12.5194647L13 12.5194647C12.2453137 15.3388217 9.87482785 17 6.7126052 17M22.6702533 10.5500164C22.6702533 8.40571095 21.2401177 6.91801904 19.4833476 6.91801904 17.7337319 6.91801904 16.30705 8.40571095 16.30705 10.5500164 16.30705 12.6400387 17.7337319 14.087433 19.4833476 14.087433 21.2401177 14.087433 22.6702533 12.6400387 22.6702533 10.5500164M26 10.5229933C26 14.2296597 23.0726255 17 19.4833476 17 15.907885 17 13 14.2296597 13 10.5229933 13 6.81940848 15.907885 4 19.4833476 4 23.0726255 4 26 6.81940848 26 10.5229933M32.5387903 4C35.9727933 4 38 6.34630953 38 9.66450915L38 17 34.8556315 17 34.8556315 9.58982298C34.8556315 8.88175934 34.6148963 7.17755684 32.5387903 7.17755684 31.1540928 7.17755684 30.1495405 8.16326873 30.1495405 9.58982298L30.1495405 17 27 17 27 9.66450915C27 6.44354703 29.1955332 4 32.5387903 4M46.7119484 17C42.8040874 17 40 14.1109531 40 10.5209781 40 6.94001058 42.8040874 4 46.7119484 4 49.8436603 4 52.2166367 5.68962311 52.9768648 8.4767427L49.4125493 8.4767427C48.9605419 7.63880532 47.9244326 6.91772879 46.7119484 6.91772879 44.8710819 6.91772879 43.3772437 8.55472895 43.3772437 10.549897 43.3772437 12.4990792 44.8710819 14.1109531 46.7119484 14.1109531 47.9508018 14.1109531 49.0140266 13.3898766 49.4411573 12.5194647L53 12.5194647C52.2452447 15.3388217 49.873761 17 46.7119484 17"/>
    <path d="M61.1761209 7.89843551C60.5729502 7.20105029 59.6653456 6.79736333 58.6140699 6.79736333 56.7029973 6.79736333 55.1659648 8.23764633 55.0951201 10.3549287L61.1761209 7.89843551zM64.8986871 12.7604573C64.1419371 15.2897232 61.8568244 17 58.6390884 17 54.9621006 17 52 14.109004 52 10.521097 52 6.93982714 54.9621006 4 58.6390884 4 61.7537776 4 64.3688382 5.87952664 65 9.20289194L55.8451821 12.8825353C56.4973991 13.7223843 57.4850136 14.2071405 58.6140699 14.2071405 59.6940798 14.2071405 60.7983651 13.7477481 61.349517 12.7604573L64.8986871 12.7604573zM72.5156177 6.95221363C70.7204269 6.95221363 69.2700367 8.50128836 69.2700367 10.395643 69.2700367 12.3520731 70.7204269 13.9161396 72.5156177 13.9161396 74.3093557 13.9161396 75.7563561 12.3989225 75.7563561 10.395643 75.7563561 8.42422113 74.3093557 6.95221363 72.5156177 6.95221363M72.9555775 16.8231436C71.4826687 16.8231436 70.2284081 16.3417662 69.2700367 15.3949403L69.2700367 22 66 22 66 10.395643C66 6.88357929 68.6789845 4 72.5156177 4 76.3261003 4 79 6.88357929 79 10.395643 79 13.943078 76.2984969 16.8231436 72.9555775 16.8231436M86 15.9547211C82.079833 16.3521393 80 14.0972599 80 10.6133325L80 0 83.4299225 0 83.4299225 3.24001842 85.844594 3.24001842 85.844594 6.13500667 83.4299225 6.13500667 83.4299225 10.6323384C83.4299225 12.4164562 84.2859334 13.084343 86 12.9863895L86 15.9547211z"/>
  </g>
</svg>
