<?xml version="1.0" standalone="no"?>
<!DOCTYPE svg PUBLIC "-//W3C//DTD SVG 1.1//EN" "http://www.w3.org/Graphics/SVG/1.1/DTD/svg11.dtd">
<svg xmlns="http://www.w3.org/2000/svg">
<metadata>Copyright (C) 2017 by original authors @ fontello.com</metadata>
<defs>
<font id="one55" horiz-adv-x="1000" >
<font-face font-family="one55" font-weight="400" font-stretch="normal" units-per-em="1000" ascent="850" descent="-150" />
<missing-glyph horiz-adv-x="1000" />
<glyph glyph-name="left-open" unicode="&#xe800;" d="M654 682l-297-296 297-297q10-10 10-25t-10-25l-93-93q-11-10-25-10t-25 10l-414 415q-11 10-11 25t11 25l414 414q10 11 25 11t25-11l93-93q10-10 10-25t-10-25z" horiz-adv-x="714.3" />

<glyph glyph-name="right-open" unicode="&#xe801;" d="M618 361l-414-415q-11-10-25-10t-25 10l-93 93q-11 11-11 25t11 25l296 297-296 296q-11 11-11 25t11 25l93 93q10 11 25 11t25-11l414-414q10-11 10-25t-10-25z" horiz-adv-x="714.3" />

<glyph glyph-name="up-open" unicode="&#xe802;" d="M939 107l-92-92q-11-10-26-10t-25 10l-296 297-296-297q-11-10-25-10t-25 10l-93 92q-11 11-11 26t11 25l414 414q11 10 25 10t25-10l414-414q11-11 11-25t-11-26z" horiz-adv-x="1000" />

<glyph glyph-name="down-open" unicode="&#xe803;" d="M939 399l-414-413q-10-11-25-11t-25 11l-414 413q-11 11-11 26t11 25l93 92q10 11 25 11t25-11l296-296 296 296q11 11 25 11t26-11l92-92q11-11 11-25t-11-26z" horiz-adv-x="1000" />

<glyph glyph-name="ico-apparel" unicode="&#xe804;" d="M1101 582l0-6c-7-4-15-8-22-14-61-48-122-97-183-146-20 18-38 34-61 54l0-615-570 0 0 614c-23-20-41-36-60-53-68 55-136 109-205 164 6 7 10 12 15 16 57 57 115 113 173 170 4 3 9 6 14 8 58 23 116 46 174 68 8 3 23 0 30-6 90-77 200-77 288-1 7 7 23 9 33 6 34-11 68-28 102-39 57-18 103-49 143-93 41-44 86-85 129-127" horiz-adv-x="1103" />

<glyph glyph-name="ico-burn-rate" unicode="&#xe805;" d="M179 54c56-80 185-109 288-68 114 45 178 160 160 287-14 92-102 191-177 199 85-162 55-326-71-383 32 115 34 126 20 154-37-105-108-169-220-189m-69 480c1-90 10-169 86-231-47 229-7 420 208 547-42-109 2-186 79-251 30-25 64-47 94-71 221-180 184-524-69-643-225-105-498 63-507 311-5 114 12 219 85 310 7 8 13 15 24 28" horiz-adv-x="725" />

<glyph glyph-name="ok" unicode="&#xe806;" d="M933 534q0-22-16-38l-404-404-76-76q-16-15-38-15t-38 15l-76 76-202 202q-15 16-15 38t15 38l76 76q16 16 38 16t38-16l164-165 366 367q16 16 38 16t38-16l76-76q16-15 16-38z" horiz-adv-x="1000" />

<glyph glyph-name="spin1" unicode="&#xe807;" d="M496 850c-176 0-331-90-421-226-18-27-33-55-46-85-12-29-21-60-28-92 0 0 0-1 0-1l0 0 0 0c0-1 0-2 0-2 0-7 5-12 11-12l101 0c5 0 10 4 11 9 29 113 109 206 214 253 20 10 41 17 63 23 31 7 62 11 95 11l0 0 0 0 0 0c25 0 50-2 74-7 5-1 10-2 14-3 6-1 10-3 14-4l0 0c5-1 11 1 13 6l51 87c0 0 1 1 1 2 2 6-1 13-7 15-22 7-43 13-65 17-5 1-9 1-13 2-27 5-54 7-82 7l0 0 0 0z m327-114c-5 0-9-2-11-6l-50-87c-3-4-2-10 2-14 29-29 54-63 73-101 4-7 7-14 11-22 19-46 30-97 30-151l0 0 0 0c0-77-22-149-62-209-7-11-15-23-24-33-9-11-18-21-28-31l0 0 0 0 0 0c-4-4-5-10-2-14l50-87c0-1 1-2 2-3 4-5 11-5 16-1 58 52 104 117 134 190 6 15 11 29 15 44 14 46 21 94 21 144 0 108-34 209-92 291-11 16-23 31-37 46-13 14-26 28-41 41l0 0c-1 1-1 1-2 1-2 1-4 2-5 2z m-811-468l0 0c-1 0-2 0-3 0-6-1-10-8-9-14 34-166 149-302 302-366 30-12 61-21 93-28 32-6 66-10 100-10l0 0 0 0c40 0 79 5 117 14 7 1 14 3 22 5 6 2 13 5 20 7 1 0 2 1 3 1 6 3 8 10 4 16l-50 87c-3 5-8 7-13 6-14-4-28-7-42-9-3-1-6-1-8-2-18-2-35-3-53-3l0 0 0 0c-128 0-242 63-311 160-1 0-1 0-1 0-13 19-25 40-35 61-10 21-18 43-24 65-1 6-6 10-11 10l-101 0z" horiz-adv-x="1000" />

<glyph glyph-name="ico-child-minding" unicode="&#xe808;" d="M832-141l-33 0c-69 29-42 93-50 144-76 17-95 56-69 128 22 61 43 122 63 183 3 12 2 31-6 39-40 45-84 88-123 128-34-36-71-74-106-115-13-16-26-38-27-57-2-119-2-238 0-357 1-42-10-73-48-93l-32 0c-36 22-49 54-46 95 2 24 2 48 0 72-2 13-11 25-17 38-6-12-17-24-18-36-3-29-3-59 0-88 2-37-11-63-41-81l-41 0c-31 18-42 45-41 81 1 119-1 238 0 357 0 31-7 53-33 73-59 47-101 109-130 178-7 17-16 34-24 50l0 57c47 31 62 25 92-23 29-45 60-90 97-128 41-42 94-66 154-59 94 10 188 100 214 193 4 16 31 35 48 36 15 1 43-18 46-33 17-70 62-117 116-156 76-56 161-58 232 2 48 42 84 98 121 150 17 24 31 47 63 33 32-13 31-40 22-68-29-94-77-175-155-237-18-14-26-27-18-51 22-64 40-129 60-193 14-44 6-88-32-101-38-14-37-39-36-69 1-9 1-19 0-28-4-35-29-58-62-58-33 0-57 22-60 58-1 18 0 35-1 53-1 31-1 31-35 24-12-114-12-114-44-141m191 915c57 53 77 54 139 10 23-16 46-32 71-51-69-59-125-15-188 19 0-22 0-40 0-58 0-95-62-160-154-160-96 0-155 60-155 158 0 18 0 37 0 60-62-29-119-82-191-18 37 25 70 50 105 71 43 25 75 3 104-31 35 46 80 67 137 66 56-1 100-20 132-66m-684 66c86 1 156-68 155-152 0-84-67-152-151-154-85-2-154 68-154 154 0 85 65 151 150 152" horiz-adv-x="1234" />

<glyph glyph-name="ico-close-menu" unicode="&#xe809;" d="M902 59l-699 700c-32 32-85 32-117-1-33-33-33-85-1-117l699-700c33-32 85-32 118 1 32 33 32 85 0 117l0 0z m-699-118l699 700c32 32 32 84 0 117-33 33-85 33-118 1l-699-700c-32-32-32-84 1-117 32-33 85-33 117-1l0 0z" horiz-adv-x="1000" />

<glyph glyph-name="ico-close-modal" unicode="&#xe80a;" d="M990 353c0-270-220-489-490-489-270 0-490 219-490 489 0 271 220 490 490 490 270 0 490-219 490-490z m-247-144c0 11-4 21-12 29l-116 115 116 116c8 8 12 18 12 29 0 10-4 21-12 29l-57 57c-8 8-19 12-30 12-11 0-21-4-29-12l-115-115-115 115c-8 8-18 12-29 12-11 0-22-4-29-12l-58-57c-7-8-12-19-12-29 0-11 5-21 12-29l116-116-116-115c-7-8-12-18-12-29 0-11 5-21 12-29l58-57c7-8 18-13 29-13 11 0 21 5 29 13l115 115 115-115c8-8 18-13 29-13 11 0 22 5 30 13l57 57c8 8 12 18 12 29z" horiz-adv-x="1000" />

<glyph glyph-name="ico-discount" unicode="&#xe80c;" d="M520 189c-2-19 1-41-25-45-16-2-26 16-26 46 0 29 10 48 26 45 27-4 22-28 25-46m-202-73c20-8 29-3 38 14 33 61 67 121 101 181 11 20 21 39 32 58-21 8-32 0-41-17-39-72-79-143-118-215-4-7-8-14-12-21l0 0z m62 179c1 47-24 76-64 77-43 1-72-30-73-77-1-45 27-77 68-77 41 0 69 31 69 77l0 0z m183-102c0 44-28 75-68 74-41 0-71-35-70-80 0-44 29-74 69-74 41 0 69 33 69 80l0 0z m-243-337c-18 14-39 25-53 42-79 95-157 192-235 288-37 46-33 92 12 130 120 98 240 197 361 294 50 40 109 50 173 39 53-10 107-17 165-26-17-23-25-48-52-61-30-14-42-50-30-80 11-31 41-48 72-43 33 6 56 33 56 66 0 42 0 42 29 77 17-18 22-40 21-63-3-70-4-139-9-208-4-53-26-100-67-134-122-102-245-202-368-302-9-7-20-13-30-19l-45 0z m419 654c-11 7-19 13-30 20 32 48 65 93 94 141 12 18 20 42 20 64 0 33-18 58-49 70-32 13-62 6-88-15-6-5-12-11-19-18-9 6-18 12-26 18 23 43 79 67 128 56 50-12 90-55 90-104 0-26-4-56-17-78-30-53-67-102-103-154z m-452-217c0 30 11 48 27 48 16 1 27-17 27-43 0-1 0-2 0-3-3-17-1-41-27-40-25 1-25 24-27 38" horiz-adv-x="865" />

<glyph glyph-name="ico-download" unicode="&#xe80d;" d="M816-28c0 11-4 21-12 29-8 8-17 12-28 12-11 0-21-4-29-12-8-8-12-18-12-29 0-11 4-20 12-28 8-8 18-12 29-12 11 0 20 4 28 12 8 8 12 17 12 28z m164 0c0 11-4 21-12 29-9 8-18 12-29 12-11 0-21-4-29-12-8-8-12-18-12-29 0-11 4-20 12-28 8-8 18-12 29-12 11 0 20 4 29 12 8 8 12 17 12 28z m81 143l0-204c0-17-6-31-18-43-11-12-26-18-43-18l-939 0c-17 0-31 6-43 18-12 12-18 26-18 43l0 204c0 17 6 32 18 44 12 12 26 18 43 18l297 0 86-87c25-24 53-36 87-36 33 0 62 12 86 36l87 87 296 0c17 0 32-6 43-18 12-12 18-27 18-44z m-207 363c7-17 4-32-9-44l-286-286c-7-8-17-12-28-12-12 0-21 4-29 12l-286 286c-13 12-16 27-9 44 8 17 20 25 38 25l163 0 0 286c0 11 4 20 12 29 8 8 18 12 29 12l163 0c11 0 21-4 29-12 8-9 12-18 12-29l0-286 163 0c18 0 31-8 38-25z" horiz-adv-x="1071" />

<glyph glyph-name="ico-duration" unicode="&#xe80e;" d="M218 630c30-29 58-57 88-87-103-18-203-37-306-56 19 103 37 204 56 306 28-30 56-58 82-84 30 22 57 44 87 63 98 61 206 86 321 76 219-19 402-185 443-400 48-252-97-496-341-572-125-39-248-28-366 28-3 1-6 3-10 6 18 31 36 62 54 92 26-9 51-19 77-26 216-57 436 82 479 300 41 212-95 417-310 457-128 24-243-9-343-94-3-3-6-5-11-9z m217-34l97 0 0-244 219 0 0-97-316 0 0 341z m-315-566c31 21 60 42 89 63 19-18 37-35 56-52-17-31-36-62-54-94-34 23-63 51-91 83z m13 189c12-24 22-46 33-68-29-21-58-42-90-65-17 36-33 70-50 106 38 9 73 18 107 27z m-23 143c2-24 4-48 5-73-34-9-69-18-106-28-3 34-6 67-8 101l109 0z" horiz-adv-x="1000" />

<glyph glyph-name="ico-envelope" unicode="&#xe80f;" d="M1148 5l0 514c-15-16-30-31-47-44-119-92-214-168-285-226-23-20-41-35-55-45-15-11-34-22-58-33-25-11-48-16-69-16l-1 0c-22 0-45 5-69 16-24 11-44 22-58 33-14 10-33 25-55 45-71 58-166 134-286 226-16 13-32 28-46 44l0-514c0-6 2-11 6-15 5-5 10-7 16-7l985 0c6 0 11 2 15 7 5 4 7 9 7 15z m0 704l0 16c0 2 0 5-1 9 0 4-1 6-2 8-1 2-2 4-3 6-2 2-4 4-6 5-3 1-6 2-10 2l-985 0c-6 0-11-2-16-7-4-4-6-9-6-15 0-75 33-138 99-190 86-68 175-138 268-212 3-2 11-9 23-20 13-11 24-19 31-25 8-6 18-13 30-21 12-8 24-14 34-18 10-4 20-6 29-6l1 0c9 0 19 2 29 6 10 4 21 10 34 18 12 8 22 15 29 21 8 6 18 14 31 25 13 11 21 18 24 20 93 74 182 144 268 212 24 19 47 45 68 78 20 32 31 61 31 88z m85 24l0-728c0-30-10-55-31-76-21-21-46-31-76-31l-985 0c-30 0-55 10-76 31-21 21-32 46-32 76l0 728c0 30 11 55 32 76 21 21 46 32 76 32l985 0c30 0 55-11 76-32 21-21 31-46 31-76z" horiz-adv-x="1267" />

<glyph glyph-name="ico-equipment" unicode="&#xe810;" d="M709 34c10 2 19 1 27 5 4 2 6 16 5 16-11 5-23 11-35 11-9 0-18-6-27-11-1-1 2-14 6-16 7-4 16-4 24-5l0 0z m-99 2l0-1c5 0 10-1 14 1 7 3 12 9 17 14-5 5-10 14-17 16-10 3-22 2-32 0-6-1-14-10-14-14 1-6 8-12 14-16 5-2 12 0 18 0l0 0z m-101 30l0 1c-5 0-11 1-15-1-6-4-12-10-18-16 6-5 11-12 17-14 11-2 22-2 32 0 6 2 13 10 15 16 0 4-8 11-14 14-4 2-11 0-17 0l0 0z m-101 0l0 1c-4 0-10 1-12-1-8-4-14-10-21-16 7-5 13-12 20-14 10-2 22-2 32 1 5 1 11 9 12 15 0 4-6 11-11 14-6 2-13 0-20 0l0 0z m-102-33c10 3 21 4 29 9 3 2 0 19-1 19-18 1-36 2-55 0-1 0-4-16-1-18 7-6 17-7 28-10l0 0z m-267 20c-1-47 36-85 83-85 45 0 83 37 84 82 0 45-37 83-83 83-46 1-83-34-84-80l0 0z m940-3c0 46-35 82-82 83-46 2-85-36-85-82 0-45 37-82 83-83 46 0 83 36 84 82l0 0z m-975 26c15 39 38 69 78 86 11 5 15 24 23 39 19 0 41 0 63 0 14 0 36-5 36 16 1 24-23 16-37 17-18 1-36 0-54 0-1 28 11 37 35 34 14-1 27 0 41 0 13 1 32-4 32 17-1 19-18 16-31 16-20 0-39 0-61 0 15 56 30 110 44 163 15 56 30 111 43 167 3 11 1 24-3 35-13 34-29 67-44 101-16 36-8 50 38 70 30 14 47 7 62-25 17-38 36-77 52-116 9-21 23-28 45-28 59 1 118 0 177 0 38 0 51-14 51-51-1-35-15-50-51-50-18 0-36 3-53-1-23-5-47-11-65-24-31-24-61-43-104-41-15-110-30-220-45-333l31 0c193 0 385 0 578 0 66 0 110-33 125-90 17-65-29-133-96-142-14-2-28-2-43-2-240 0-481 1-721-1-72-1-122 24-146 93l0 50z m355-190c5-22-3-32-27-32-57 1-114 1-170 0-24 0-31 11-28 32l225 0z m423 0l95 0c4-26 0-31-24-32-15 0-29 1-44 0-23-1-31 9-27 32" horiz-adv-x="1018" />

<glyph glyph-name="ico-events" unicode="&#xe811;" d="M55-89l989 0 0 799-82 0c0-16 1-31 0-45 0-19-12-33-28-32-15 0-26 13-26 31-1 15 0 31 0 47l-54 0c0-18 1-35 0-51 0-16-9-25-24-27-14-2-28 9-30 24-1 12-1 23 0 35 1 15-4 20-20 20-151 0-301 0-452 0-6 0-12-1-18-1-1-3-2-4-2-5 0-14 0-27 0-41-1-19-12-32-28-32-15 0-27 13-27 32 0 15 0 30 0 45l-53 0c0-17 0-33 0-49-1-16-13-29-28-28-16 2-26 11-27 27 0 13 1 26 0 39-1 4-7 12-10 12-27 1-53 1-80 1l0-801z m86 855c0 18 0 32 0 47 1 19 11 30 27 30 18 0 28-11 28-32 0-13 0-26 1-40 0-1 1-2 2-4l50 0c0 15 0 30 0 44 0 20 11 32 28 32 16 0 26-11 27-32 0-14 0-28 0-44l487 0c0 16 0 31 1 46 0 20 10 30 27 30 16 0 27-11 28-30 0-15 0-30 0-46l53 0c0 16-1 31 0 46 0 19 11 30 27 30 17 0 27-11 27-30 1-8 0-15 0-23 0-7 0-14 0-22 6-1 11-2 16-2 30 0 60 0 90 0 34 0 42-9 42-44 0-114 0-228 0-343 0-161 0-322 0-483 0-34-7-41-41-41-341 0-681 0-1022 0-32 0-39 6-39 39 0 274 0 549 0 823 0 43 6 49 49 49 30 0 59 0 92 0l0 0z m538-655c-5 30-6 58-13 84-13 42-5 74 31 101 21 16 39 37 62 59-42 6-78 13-114 17-23 2-36 12-45 33-15 33-32 65-50 101-19-39-37-74-54-110-6-14-16-21-30-23-11-1-23-3-34-4-28-5-56-9-80-13 22-24 42-51 67-73 24-21 30-42 23-72-8-32-11-65-17-100 36 19 69 35 101 54 19 12 34 11 53 0 31-19 65-35 100-54m162 257c-2-4-6-11-12-17-35-35-71-69-106-104-8-7-11-14-9-26 9-50 17-101 24-152 1-9-4-24-11-29-6-5-21-4-29 0-44 21-87 44-129 68-13 7-23 8-36 0-43-23-86-46-129-67-9-5-24-6-30-1-8 5-12 20-10 30 6 50 15 99 24 148 3 13-1 20-9 28-34 33-67 67-101 100-10 10-21 21-15 36 6 17 21 19 35 21 48 7 95 14 142 22 7 1 16 8 19 14 22 43 43 87 65 131 6 13 12 24 28 23 16 0 23-11 29-24 21-43 42-86 64-129 3-7 13-14 20-15 48-9 96-15 144-22 22-4 32-12 32-35" horiz-adv-x="1102" />

<glyph glyph-name="ico-exercise-type" unicode="&#xe812;" d="M498 747c-218 0-395-177-395-395 0-219 177-396 395-396 219 0 396 177 396 396 0 218-177 395-396 395m499-395c0-276-223-499-499-499-275 0-498 223-498 499 0 275 223 498 498 498 276 0 499-223 499-498m-473-43c19 40 38 80 58 121 6-2 11-5 17-7-17-38-33-75-51-111-3-5-14-5-22-8-1 2-1 4-2 5z m-8 151c-9-19-17-36-25-54-14-29-27-59-42-89-2-4-7-10-12-10-78-1-157-1-237-1 0 5-1 8-1 11 0 34 0 67 2 100 1 23 12 41 34 49 23 9 45 3 60-14 28-30 60-30 96-22 28 7 54 19 76 39 4 3 12 5 17 3 10-2 20-8 32-12z m-317-178l18 0 563 0c19 0 22-3 15-21-7-19-24-30-46-30-75-1-151-1-226-1-100 0-199 0-299 0-24 0-25 2-25 27l0 25z m592 25l-218 0c17 35 33 70 49 106 50-24 99-47 146-72 11-6 18-20 26-30-1-1-2-3-3-4z m-252 143c7-3 12-6 20-9-8-17-15-32-23-48-11-24-23-47-33-71-6-15-15-18-30-14 22 47 43 94 66 142z" horiz-adv-x="1000" />

<glyph glyph-name="ico-ext-hours" unicode="&#xe813;" d="M941 595c39 41 78 81 117 120 0 0 1-1 2-2l0-335-338 0c48 48 96 96 143 144-19 39-43 72-72 101-86 85-191 125-313 118-198-12-334-172-360-316-44-246 134-423 308-457 200-40 377 74 446 235 7 18 7 17 26 17 30 0 60 0 92 0-21-73-56-138-106-194-80-90-179-145-299-165-267-44-490 131-555 335-75 232 27 482 252 598 193 100 497 70 657-199m-600-426c-14 23-28 46-43 70 57 33 113 67 167 99 11-12 20-26 32-34 12-8 28-12 43-17-65-39-131-78-199-118m163 411l72 0 0-169c-21 19-45 26-72 16l0 153z m30-169c23 0 42-19 42-42 0-23-19-43-42-43-23 1-42 20-43 43 0 22 20 42 43 42" horiz-adv-x="1061" />

<glyph glyph-name="ico-facebook" unicode="&#xe814;" d="M499 812l0-148-87 0c-32 0-54-6-65-20-11-13-17-33-17-60l0-106 164 0-22-165-142 0 0-423-170 0 0 423-143 0 0 165 143 0 0 122c0 69 19 123 58 161 38 38 90 57 154 57 55 0 97-2 127-6z" horiz-adv-x="500" />

<glyph glyph-name="ico-family" unicode="&#xe815;" d="M1151-21c-140-45-256-59-344-58-1 3-1 6-1 9 0 24 0 48 0 72-1 71-31 124-90 160-13 8-28 13-43 19 34 33 52 74 47 123-4 49-29 85-69 111 0 1 0 2 0 3 16 4 31 10 47 12 21 3 42 4 63 4 52 0 105 0 157-1 45-1 87-17 124-42 41-28 72-65 90-112 8-20 11-42 17-64 1-2 1-5 2-8l0-228z m-645 437c-41-28-66-64-70-113-5-48 12-88 47-122-11-4-21-8-30-13-64-31-98-84-102-155-2-27-1-54-1-82 0-3 0-6 0-8-21 0-40-1-60 0-80 5-159 21-236 42-14 4-27 8-41 12-4 2-6 4-6 9 0 70-2 140 0 210 4 76 37 139 98 187 45 35 96 51 153 50 51 0 102 0 154 0 28 0 56-4 83-13 3-1 6-2 11-4m-171 31c-110 1-198 90-197 198 1 110 90 198 198 197 109-1 197-91 196-199 0-108-90-197-197-196m488 0c-107-1-197 87-198 195-2 109 87 199 195 200 109 1 199-87 199-197 1-108-85-197-196-198m-447-480c1 25 0 51 3 76 4 33 19 60 43 83 31 30 68 44 111 43 32-1 63 0 94 0 48 0 87-19 117-54 24-29 35-62 35-99-1-38-1-75 0-112 0-5-2-8-7-10-31-14-63-22-97-28-73-12-146-7-218 8-25 6-49 13-74 19-5 1-7 4-6 10 0 21 0 43 0 64-1 0-1 0-1 0m202 454c69 0 125-56 126-125 0-69-57-125-125-125-69 0-125 56-125 125-1 68 55 124 124 125" horiz-adv-x="1154" />

<glyph glyph-name="ico-friend" unicode="&#xe816;" d="M581-141c4 116 7 230 56 336 39 84 104 140 192 170 14 5 29 9 43 14 1 0 2 2 4 8-77 55-124 128-116 229 5 62 31 113 75 156 92 86 235 88 329 2 59-55 87-123 78-204-8-80-53-139-122-186 31-12 55-21 78-29-50-168 34-277 200-245 9-83 17-165 27-251l-844 0z m119 485c-136-133-143-301-149-471l-547 0c9 231 48 440 316 520 3 7 6 14 10 21-16 7-35 10-46 21-100 94-101 244-5 340 95 95 250 95 345 0 95-95 93-246-5-340-42-40-42-41 14-61 15-5 29-11 43-17 7-3 13-7 24-13m638-203c-71 0-128 57-128 127 1 70 62 129 130 127 69-1 124-58 125-127 1-71-55-127-127-127" horiz-adv-x="1476" />

<glyph glyph-name="ico-functional-training" unicode="&#xe817;" d="M529 478c28 48 56 94 81 142 27 52 7 87-52 91-78 5-157 10-236 10-54-1-108-7-161-16-38-5-53-30-37-64 25-55 57-107 87-160 109 51 213 49 318-3m-154 365c83-12 163-25 244-37 76-12 147-100 105-202-23-57-56-110-88-162-15-25-13-40 4-64 136-187 45-455-176-517-34-10-71-4-107-6-139-8-233 64-291 181-61 122-45 243 37 352 15 20 16 32 4 53-26 41-50 83-74 126-20 35-29 73-26 113 5 56 50 112 108 123 86 16 173 27 260 40" horiz-adv-x="743" />

<glyph glyph-name="ico-gravatar" unicode="&#xe818;" d="M877-32c0 124-29 315-190 315-17 0-89-76-197-76-108 0-180 76-197 76-161 0-190-191-190-315 0-89 59-143 147-143l480 0c88 0 147 54 147 143l0 0z m-176 491c0 117-94 212-211 212-117 0-211-95-211-212 0-116 94-211 211-211 117 0 211 95 211 211l0 0z" horiz-adv-x="1000" />

<glyph glyph-name="ico-info" unicode="&#xe819;" d="M639 67l0 100c0 6-2 11-6 15-4 3-8 5-14 5l-60 0 0 320c0 5-2 10-6 14-3 4-8 6-14 6l-200 0c-5 0-10-2-14-6-4-4-6-9-6-14l0-100c0-6 2-11 6-15 4-3 9-5 14-5l60 0 0-200-60 0c-5 0-10-2-14-5-4-4-6-9-6-15l0-100c0-5 2-10 6-14 4-4 9-5 14-5l280 0c6 0 10 1 14 5 4 4 6 9 6 14z m-80 559l0 100c0 6-2 11-6 14-3 4-8 6-14 6l-120 0c-6 0-10-2-14-6-4-3-6-8-6-14l0-100c0-6 2-10 6-14 4-4 8-6 14-6l120 0c6 0 11 2 14 6 4 4 6 8 6 14z m399-259c0-87-21-167-64-241-43-73-101-131-175-174-73-43-153-64-240-64-87 0-167 21-240 64-74 43-132 101-175 174-43 74-64 154-64 241 0 87 21 167 64 240 43 74 101 132 175 175 73 42 153 64 240 64 87 0 167-22 240-64 74-43 132-101 175-175 43-73 64-153 64-240z" horiz-adv-x="1000" />

<glyph glyph-name="ico-instagram" unicode="&#xe81a;" d="M651 346c0 42-14 77-44 107-30 29-65 44-107 44-42 0-77-15-107-44-29-30-44-65-44-107 0-42 15-78 44-107 30-30 65-44 107-44 42 0 77 14 107 44 30 29 44 65 44 107z m82 0c0-65-23-120-68-165-45-45-100-68-165-68-65 0-120 23-165 68-45 45-68 100-68 165 0 64 23 119 68 165 45 45 100 68 165 68 65 0 120-23 165-68 45-46 68-101 68-165z m64 242c0-15-6-28-16-38-11-11-24-16-39-16-15 0-27 5-38 16-11 10-16 23-16 38 0 15 5 28 16 39 11 10 23 15 38 15 15 0 28-5 39-15 10-11 16-24 16-39z m-297 130c-3 0-18 0-45 0-28 1-48 1-62 0-15 0-34 0-58-1-23-1-44-3-60-6-17-3-31-7-43-11-19-8-37-20-52-34-15-15-26-33-34-52-4-12-8-26-11-43-3-16-5-37-6-61-1-23-1-42-1-57-1-14-1-35 0-62 0-27 0-42 0-45 0-3 0-18 0-45-1-28-1-49 0-63 0-14 0-33 1-57 1-24 3-44 6-61 3-16 7-30 11-42 8-20 19-37 34-52 15-15 33-26 52-34 12-5 26-8 43-11 16-3 37-5 60-6 24-1 43-2 58-2 14 0 34 0 62 0 27 0 42 1 45 1 3 0 18-1 45-1 28 0 48 0 63 0 14 0 33 1 57 2 23 1 44 3 60 6 17 3 31 6 43 11 19 8 37 19 52 34 15 15 26 32 34 52 4 12 8 26 11 42 3 17 5 37 6 61 1 24 1 43 2 57 0 14 0 35 0 63-1 27-1 42-1 45 0 3 0 18 1 45 0 27 0 48 0 62-1 15-1 34-2 57-1 24-3 45-6 61-3 17-7 31-11 43-8 19-19 37-34 52-15 14-33 26-52 34-12 4-26 8-43 11-16 3-37 5-60 6-24 1-43 1-57 1-15 1-35 1-63 0-27 0-42 0-45 0z m454-372c0-90-1-153-3-187-4-82-28-146-73-191-45-45-109-69-191-73-34-2-97-3-187-3-90 0-153 1-187 3-82 4-146 28-191 73-44 45-69 109-73 191-2 34-3 97-3 187 0 90 1 152 3 187 4 82 29 146 73 190 45 45 109 70 191 74 34 2 97 3 187 3 90 0 153-1 187-3 82-4 146-29 191-74 45-44 69-108 73-190 2-35 3-97 3-187z" horiz-adv-x="1000" />

<glyph glyph-name="ico-intensity" unicode="&#xe81b;" d="M210-31c-152 93-248 287-196 492 41 161 210 322 339 322-16-36-32-72-48-107-3-5-10-9-16-12-233-123-263-429-57-595 8-7 12-12 7-23-10-25-19-50-29-77z m17-114c58 157 115 313 173 471l-192 0c3 8 5 14 8 20 73 161 146 322 219 484 6 14 13 20 30 20 81-1 163 0 248 0-85-130-168-257-254-389l225 0c-154-205-304-407-453-608-2 1-3 1-4 2z m118 59c19 26 38 52 58 77 3 4 11 6 16 6 181-15 339 115 369 283 24 137-19 252-125 343-6 5-12 10-19 15 0 1 0 2-1 4 16 24 33 50 50 76 171-111 254-352 152-564-107-222-345-285-500-240z" horiz-adv-x="890" />

<glyph glyph-name="ico-kettlebell" unicode="&#xe81d;" d="M531 488c28 49 58 97 83 146 26 50 6 87-50 90-97 6-195 8-293 8-39 1-78-5-116-13-36-7-52-31-37-63 26-57 59-111 89-166 111 53 217 51 324-2m-414-66c-30 52-59 102-87 152-24 43-38 88-25 137 14 56 50 93 104 106 168 42 337 43 507 6 92-20 155-115 108-219-20-44-46-85-70-127-6-12-12-24-20-34-12-17-11-30 3-48 146-191 55-471-176-534-35-9-74-2-111-6-161-15-292 135-316 256-22 110 0 209 72 297 3 4 7 8 11 14" horiz-adv-x="746" />

<glyph glyph-name="ico-left-arrow" unicode="&#xe81e;" d="M2000 449c0 20-16 36-36 36l-1393 0 0 250c0 14-8 27-21 32-13 6-28 4-39-6l-428-395c-7-7-12-17-12-27 0-10 5-19 12-26l428-391c11-9 26-11 39-5 14 5 21 18 21 32l0 250 1393 0c20 0 36 16 36 36l0 214z" horiz-adv-x="2000" />

<glyph glyph-name="ico-left-chevron-sml" unicode="&#xe81f;" d="M587 779c17 16 17 43 0 59-16 16-44 16-61 0l-514-456c-9-9-13-20-12-32-1-11 3-23 12-32l514-456c17-16 45-16 61 0 17 17 17 43 0 59l-483 429 483 429z" horiz-adv-x="600" />

<glyph glyph-name="ico-mailing-list" unicode="&#xe820;" d="M64 364l471 0 0 27-471 0 0-27z m-63-271l481 0c-1 10-1 18-2 27l-480 0c1-10 1-18 1-27l0 0z m721 569l-722 0c1-10 1-18 2-27l720 0 0 27z m-120-349c9-6 11-8 13-9 109-71 218-141 326-213 15-9 25-5 38 3 102 68 205 134 308 201 7 5 14 10 25 18l-710 0z m213 537c8-6 11-9 15-11 169-111 339-221 507-332 16-9 25-5 38 3 166 108 332 216 498 324 5 4 10 9 19 16l-1077 0z m-214-1000l713 0 0 425c-13-8-23-13-32-19-101-66-202-131-303-197-16-11-26-11-42 0-102 67-204 133-306 199-9 5-18 10-30 17l0-425z m777 296l519 0 0 649c-13-8-22-14-31-20-163-106-326-211-488-317-17-12-29-13-47-1-163 108-327 213-490 320-9 5-18 10-29 16l0-418 566 0 0-229z" horiz-adv-x="1897" />

<glyph glyph-name="ico-menu" unicode="&#xe821;" d="M114 650l1187 0c55 0 99 45 99 100 0 55-44 100-99 100l-1187 0c-54 0-99-45-99-100 0-55 45-100 99-100l0 0z m1187-200l-1187 0c-54 0-99-45-99-100 0-55 45-100 99-100l1187 0c55 0 99 45 99 100 0 55-44 100-99 100l0 0z m0-400l-1187 0c-54 0-99-45-99-100 0-55 45-100 99-100l1187 0c55 0 99 45 99 100 0 55-44 100-99 100l0 0z" horiz-adv-x="1400" />

<glyph glyph-name="ico-music" unicode="&#xe822;" d="M855 850c0-223-1-446 0-669 0-62-33-103-86-129-73-34-145-30-213 16-38 27-60 65-58 113 2 29 13 53 31 74 31 35 71 53 117 60 37 5 73 1 108-12l0 349c-33-8-65-16-98-24-97-23-194-46-291-69-8-2-9-5-9-13 0-180 0-360 0-540 1-52-22-91-63-119-73-50-179-44-246 13-63 53-63 143 2 195 45 37 97 50 155 43 17-2 34-7 52-11l0 580c43 10 84 20 125 30 113 27 226 54 339 81 42 10 84 20 126 30 2 0 3 1 5 2l4 0z" horiz-adv-x="857" />

<glyph glyph-name="ico-nutritionist" unicode="&#xe823;" d="M254 489c-3 1-4 2-5 2-51 1-97-11-132-52-27-33-41-71-44-113-4-63 4-124 27-183 30-82 81-148 159-190 4-3 8-5 13-7-17 19-35 35-50 54-76 94-105 203-96 322 7 80 42 143 128 167m132 19c43 32 91 50 145 51 120 3 202-69 228-181 17-77 7-153-15-227-29-99-83-181-169-239-132-88-305-74-422 33-77 72-122 160-140 263-11 57-16 116 0 173 23 89 75 152 167 172 70 15 134 2 194-37 3-3 6-5 10-7 0-1 0-1 2-1m6 128c1 6 2 12 3 18 7 34 25 60 55 78 21 12 43 23 64 34 35 17 64 39 79 79 6-18 12-35 17-52 8-31 11-62 5-93-10-54-45-83-95-97-13-4-26-8-39-10-30-5-58-17-85-32-10-5-32 3-35 14-16 69-59 120-110 166-1 2-3 4-5 5 0 0 0 1-1 2 12 14 24 28 36 42 47-45 84-95 111-154" horiz-adv-x="771" />

<glyph glyph-name="ico-online" unicode="&#xe824;" d="M283 117c0 36 0 72 0 107 0 20-1 41 3 60 10 54 58 92 116 95 18 0 37 0 58 0-89 34-126 91-112 167 12 66 73 113 143 112 63-1 123-53 133-115 12-77-27-134-109-163 24-1 49 0 73-5 63-11 99-54 100-117 1-47 0-93 0-141l-405 0z m872 415c35-13 49-38 47-73-1-21 0-42 0-64l-202 0c0 31-2 62 1 92 2 24 22 37 43 45-26 43-23 83 9 109 28 23 70 22 97-3 31-27 33-66 5-106m-381-137c0 30-1 59 1 87 1 22 15 36 45 51-15 18-23 39-19 62 4 19 12 34 27 46 30 24 72 22 99-4 29-28 30-66 4-104 7-4 14-8 21-13 13-9 23-22 23-38 2-28 1-57 1-87l-202 0z m427-278l-204 0c2 32 1 64 5 95 3 22 22 34 42 42-26 46-23 81 8 108 28 23 68 23 95 0 32-26 35-62 9-108 4-2 9-4 13-6 19-11 31-27 32-49 1-27 0-54 0-82m-426 0c0 30-3 60 0 90 3 24 22 38 44 47-26 49-23 84 10 110 28 22 69 20 95-4 31-27 33-63 7-106 4-2 8-4 12-6 20-11 32-27 33-50 1-27 0-53 0-81l-201 0z m-636-166c8 0 14 0 20 0 145 0 290 0 435 0 9 0 15 0 20-11 6-15 19-23 36-23 62-1 123-1 185 0 17 0 30 8 36 23 4 10 10 11 19 11 146 0 292 0 438 0 5 0 11 1 18 1l0 20c0 268 0 537 0 805 0 22-2 23-23 24-77 0-154 0-231 0-310 0-621 0-932 0-18 0-21-3-21-21 0-270 0-541 0-811l0-18z m-135 1l88 0 0 14c0 267 0 534 0 801 0 4 0 9 0 14 0 42 25 67 67 67 197 0 394 0 591 0 187 0 375 0 562 0 5 0 10 0 14 0 42-1 67-25 67-66 0-89 0-178 0-267 0-183 0-366 0-549l0-15 86 0c3-21 5-39-17-50-7-4-13-9-18-14-25-26-54-30-89-30-398 1-796 1-1194 1-24 0-48-1-72 0-6 0-13 3-18 6-23 17-44 34-67 51l0 37z" horiz-adv-x="1481" />

<glyph glyph-name="ico-pt" unicode="&#xe825;" d="M224 362c-14-28-27-53-39-79-18-35-8-71 25-87 32-17 67-4 86 31 9 18 18 36 28 56 45-73 86-147 143-210 62 57 122 113 183 170 41 38 88 35 124-9 9-12 19-24 28-36 55-71 111-141 166-212 21-27 25-56 9-87-15-28-41-41-73-40-24 1-43 14-57 33-45 56-89 112-133 168-4 6-9 12-15 18-39-36-78-72-116-108-27-24-54-50-82-74-52-45-112-45-165-1-91 75-159 168-204 278-25 64-13 130 32 169 16 14 35 22 60 20m1252-285c38-25 76-50 114-75 37-25 47-70 25-106-24-39-70-49-112-22-63 41-125 83-188 124-28 19-56 37-84 56-31 21-44 52-36 86 7 30 33 51 69 57 75 14 150 28 228 42-9 24-17 46-27 68-5 11-5 18 3 27 45 54 67 116 69 186 1 34-24 61-58 64-30 3-59-21-64-53-6-27-11-54-16-81l-8-1c-11 27-22 54-34 82-10-37-20-75-30-112-3-8-5-16-9-24-8-18-11-19-33-20 31 44 33 97 50 145 10 27 19 56 37 78 35 45 95 53 148 23 21-12 41-29 57-48 72-93 116-199 136-315 11-72-17-123-87-145-48-15-98-24-150-36m-1197 366c-57-8-110-15-164-23-19-2-39-6-58-8-23-2-48 19-51 42-3 27 13 52 39 56 52 8 104 15 156 22 50 7 99 13 149 21 22 3 40 0 54-18 15-18 13-38 3-58-41-82-82-163-123-245-15-29-43-38-69-24-25 13-33 41-19 69 27 54 54 108 83 166m819 254c0 77 62 140 138 140 75 0 138-63 139-138 0-77-62-139-139-139-76 0-137 61-138 137m186-434c-47-2-93 4-138 18-27 8-41 34-34 60 8 27 33 41 62 34 37-9 75-16 114-13 58 4 99 33 121 87 8 23 14 48 17 72 4 30 22 49 51 49 28-1 50-22 48-50-7-111-63-233-214-255-9-2-18-1-27-2m-995 295c-90-13-180-26-270-39-13 43 22 126 102 145 77 19 151-28 168-106m818-196c-15 15-28 28-42 42-1 1-4 3-4 5-4 23 19 29 30 42 3 3 17 2 21-2 21-17 39-36 58-57-26 0-47-8-63-30m-1008 43c49 7 95 13 141 19-28-32-93-41-141-19" horiz-adv-x="1729" />

<glyph glyph-name="ico-redfox" unicode="&#xe826;" d="M1000 843c0 0-300-150-300-150l-400 0-300 150 100-400-100-100 300-200 200-250 201 250 299 200-100 100c0 0 100 400 100 400z" horiz-adv-x="1000" />

<glyph glyph-name="ico-results" unicode="&#xe827;" d="M587 172c17-7 33-14 49-20 15-6 23-4 31 10 13 22 26 44 39 67 2 3 4 6 7 12 4-13 7-24 9-35 6-22 11-26 33-26 44 1 88 1 132 2 4 0 8 0 15 0-7-9-13-16-20-23-83-90-177-168-272-244-23-19-46-38-69-56-8-6-14-8-22-1-83 74-167 147-249 223-32 29-60 63-92 98 7 0 11 1 15 1 59 0 118 0 177 0 7 0 15-5 20-9 10-8 17-17 27-25 12-11 30-5 32 11 10 74 20 149 31 224 3-18 5-36 7-55 4-45 9-89 14-134 3-26 5-52 8-78 1-11 4-20 15-22 12-3 19 3 25 13 12 22 25 44 38 67z m-45 5c-2 19-5 38-7 57-5 45-9 90-14 135-4 42-9 85-13 127-2 17-3 34-5 51-2 16-9 24-21 24-12 0-18-8-20-24-8-58-16-116-24-175-7-52-13-104-20-156-1-4-2-8-3-15-13 22-33 20-52 19-68 0-137 0-205 1-6 0-14 2-17 6-54 70-99 144-124 230-22 76-26 152 8 225 45 97 121 155 228 166 120 12 211-37 274-138 10-16 20-17 30 0 48 74 115 118 202 131 141 19 280-71 313-219 16-68 4-135-19-200-25-71-65-135-112-194-3-4-10-7-16-7-51-1-102 0-154-1-9 0-13 3-15 12-5 20-10 39-15 59-2 11-6 20-18 21-12 2-18-6-23-15-18-32-36-62-54-94-5-8-9-10-18-5-12 5-24 10-36 15-17 7-25 4-34-11-4-8-9-17-14-25 0 0-1 0-2 0z" horiz-adv-x="1088" />

<glyph glyph-name="ico-right-arrow" unicode="&#xe828;" d="M1929 345c0 11-5 19-12 26l-428 391c-11 9-26 11-39 5-14-5-21-18-21-32l0-250-1393 0c-20 0-36-16-36-36l0-214c0-20 16-36 36-36l1393 0 0-250c0-14 9-27 21-32 13-6 28-4 39 6l428 396c7 6 12 16 12 26z" horiz-adv-x="2000" />

<glyph glyph-name="ico-right-chevron-sml" unicode="&#xe829;" d="M13 779c-17 16-17 43 0 59 17 16 44 16 61 0l514-456c9-9 13-20 12-32 1-11-3-23-12-32l-514-456c-17-16-44-16-61 0-17 17-17 43 0 59l483 429-483 429z" horiz-adv-x="600" />

<glyph glyph-name="ico-rsl" unicode="&#xe82a;" d="M487 403c0 0 172-222 348-195 0 0-82-51-251-19 0 0-225 53-203 151 0 0 6 41 106 63m822 4c0 0-118-154-314-186 0 0 85-49 254-17 0 0 209 52 180 131 0 0-2 51-120 72m-711 202c0 0 46-248 185-355 0 0-266 59-314 295 0 0-18 103 129 60m610-2c0 0-13-181-138-320 0 0 197 74 261 237 53 133-114 87-123 83m-457-87c0 0 4-156 34-209 0 0-111 123-139 277 0 0 62-22 105-68m19 201c0 0-22-111-19-144 0 0-88 58-109 59 0 0-5 78 21 100 45 39 107-15 107-15m50 13c0 0 71-71 86-110 0 0 61 87 86 107 0 0-30 109-84 108 0 0-52 4-88-105m220-14c0 0 22-106 20-135 0 0 73 49 108 56 0 0 8 92-42 106-49 15-86-27-86-27m20-188c0 0 60 49 102 60 0 0 4-131-143-299 0 0 46 108 41 239m-253 154c0 0 62-73 75-107 0 0-33-81-34-95 0 0-40 46-55 58 0 0-3 78 14 144m123-109c0 0 25 56 75 107 0 0 17-81 11-130 0 0-46-39-54-50 0 0-24 63-32 73m45-118c0 0 27 27 41 38 0 0-1-97-24-142 0 0-2 58-17 104m-179 17c0 0 35-29 38-43 0 0-13-89-8-105 0 0-26 59-30 148m113 47c0 0-74-157-20-256 0 0 17-34 39-4 0 0 56 62-19 260m-433-359l-84-77c0 0-103 91-384 23 0 0 320 214 468 54m45-7c0 0-9-239 69-249 0 0-80-17-166 44 0 0-62 42 2 108l95 97z m130-27l136 8-58-108c0 0-56-90-81-105 0 0-38-31-67 11 0 0-30 51-36 132l106 62z m250 36c0 0-67-92-78-114-11-22-51-72-20-130 0 0 16-30 47-13 0 0 102 56 115 106l118-116c0 0 16-15 6 9 0 0-19 75-80 139 0 0-97 106-108 119m70-188c0 0-12-30-50-56-27-19-64-40-64-40 0 0 129-51 212-4 0 0-83 71-98 100m26 179c0 0 16-27 59-43 42-16 116-66 155-123l48-62c0 0 64-80 193-78 0 0-39 50-57 127 0 0-19 165-159 174 0 0-108-21-239 5m434 58c0 0 259-43 337 35 0 0-76-167-221-154 0 0-139 6-217 71l101 48z" horiz-adv-x="1776" />

<glyph glyph-name="ico-search" unicode="&#xe82b;" d="M647 430c0 69-24 128-73 177-49 49-108 73-177 73-68 0-127-24-176-73-49-49-74-108-74-177 0-68 25-127 74-176 49-49 108-74 176-74 69 0 128 25 177 74 49 49 73 108 73 176z m286-464c0-19-7-36-21-50-14-14-31-21-50-21-20 0-37 7-51 21l-191 191c-67-46-141-69-223-69-53 0-104 10-152 31-49 20-91 48-126 83-35 35-63 77-84 126-20 48-30 99-30 152 0 54 10 104 30 153 21 49 49 90 84 126 35 35 77 63 126 83 48 21 99 31 152 31 54 0 104-10 153-31 49-20 90-48 126-83 35-36 63-77 83-126 21-49 31-99 31-153 0-81-23-156-69-222l191-192c14-13 21-30 21-50z" horiz-adv-x="938" />

<glyph glyph-name="ico-sgac" unicode="&#xe82c;" d="M1128-116c-16-32-33-39-75-31-32 7-60 21-85 43-10 9-20 18-31 27-35 30-81 30-117 1-14-12-27-24-41-35-65-52-155-51-219 2-14 12-28 25-42 36-32 25-76 25-108 0-13-10-25-21-37-32-65-59-168-60-236 4-8 7-16 15-24 22-16 13-33 24-54 23-25 0-41 11-51 33l0 22c10 25 27 35 53 33 37-3 71-15 99-39 14-11 27-23 40-34 35-29 80-29 116 0 11 9 21 19 32 28 68 60 161 61 231 2 11-9 21-19 33-29 35-30 81-31 117-1 10 8 20 17 30 26 58 51 122 61 193 31 26-11 46-31 66-50 20-18 42-29 69-29 18 0 30-10 38-26 0-2 2-3 3-5l0-22z m-1120 284c15 36 36 35 64 32 40-4 73-22 102-49 7-6 14-12 21-19 33-33 91-34 125 0 12 12 25 23 39 33 64 51 154 49 217-4 11-9 22-20 34-30 37-32 83-33 122-1 13 12 25 24 39 34 64 51 152 50 215 0 15-12 29-25 43-37 13-11 29-19 46-19 25 0 43-10 53-33l0-23c-9-19-22-32-45-32-40 1-77 13-108 39-14 12-27 24-41 36-32 26-78 27-111 1-14-12-27-25-41-36-63-52-151-54-216-5-14 12-27 24-41 36-38 32-85 32-122 0-11-10-22-20-34-30-64-54-153-55-219-3-14 11-27 23-41 35-15 13-32 21-52 21-24 0-40 11-49 34l0 20z m890 78c-22-3-43-4-63-8-28-6-52-21-74-40-10-9-20-19-31-27-35-28-80-28-115 0-13 10-24 21-37 31-70 57-161 56-230-2-11-9-21-19-32-28-36-29-81-30-117-1-17 13-32 28-49 41-12 8-25 15-38 22 154 87 308 174 463 261-23 41-45 81-67 120-7 14-15 27-22 41-22 43 0 95 47 106 112 26 225 51 337 76 41 9 79-17 87-58 8-39-17-78-57-87-75-17-150-34-225-51-3 0-6-1-11-3 79-131 156-262 234-393m191 242c0-72-59-130-130-130-73 0-131 58-131 131 0 72 59 130 131 129 72 0 130-58 130-130" horiz-adv-x="1130" />

<glyph glyph-name="ico-sport-clinic" unicode="&#xe82d;" d="M474 252c-49 148-98 293-147 441-11-26-21-49-31-72-33-76-65-151-97-227-3-7-7-10-15-10-44 1-88 0-131 1-4 0-10 3-11 6-26 61-42 126-35 193 13 119 77 202 189 241 110 38 209 12 293-68 3-3 5-5 7-7 1-1 2-1 2-1 14 11 26 23 40 34 166 128 412 33 448-174 12-68 1-134-23-199-29-80-75-150-130-214-60-69-122-136-184-204-28-32-56-65-84-97-6-6-12-13-19-19-27-26-68-26-95 0-15 16-29 33-44 50-56 61-113 122-169 184-55 60-108 123-151 193-2 3-4 6-6 11 4 0 8 0 11 0 46 0 92 0 138 0 8 0 11 2 14 9 22 53 45 105 68 158 2 4 4 8 7 16 45-135 89-268 134-402 3 5 5 8 7 11 29 43 58 87 87 130 7 11 29 11 36 1 21-27 55-35 85-22 30 14 46 46 40 79-7 31-35 55-68 55-23 0-42-9-56-27-4-6-9-8-16-8-15 0-30 1-45 0-4 0-10-3-12-7-12-17-24-35-37-55" horiz-adv-x="1000" />

<glyph glyph-name="ico-steam" unicode="&#xe82e;" d="M467 849c11-8 24-14 33-23 83-87 105-189 68-303-24-73-71-133-121-191-38-46-78-91-115-139-62-78-72-166-39-259 8-24 13-48 20-75-28-1-41 15-53 28-80 83-99 204-51 312 35 77 90 139 144 202 25 30 51 61 75 91 65 83 80 174 49 274-8 25-13 51-19 76 3 3 6 5 9 7m213-619c0-37-22-76-51-111-19-24-40-48-61-71-30-32-37-68-22-109 6-16 12-33 15-50 2-8 1-23-5-27-6-5-20-3-28 1-53 26-85 69-93 128-7 55 16 100 50 139 23 27 48 51 73 76 27 28 47 59 44 100 0 5 2 10 3 15 5 23 18 28 36 13 28-25 40-56 39-104m-678 43c2 56 14 91 38 119 29 33 60 63 93 92 32 29 56 60 53 106-1 23 13 30 33 17 31-19 48-67 39-108-7-38-28-69-53-97-18-21-38-42-58-62-41-39-47-83-24-134 8-15 13-31 17-47 2-8 1-21-4-26-5-5-18-4-26-2-44 15-111 81-108 142" horiz-adv-x="683" />

<glyph glyph-name="ico-supplements" unicode="&#xe82f;" d="M530 450c-136-1-247-111-246-247 0-136 111-246 247-246 135 0 246 111 246 247-1 136-111 246-247 246m279-269c0-82 0-164 1-247 0-12-4-22-13-27-16-10-33-20-50-26-39-14-80-19-121-20-65-2-130-2-196 0-45 1-90 8-133 26-7 3-14 6-21 10-17 10-25 24-25 45 1 160 1 321 0 481 0 24 7 46 16 67 17 37 35 74 53 111 3 6 6 6 12 6 122-8 244-6 366-1 11 0 21 1 32 2 3 0 7-2 8-4 25-47 51-95 67-146 3-10 4-20 4-30 1-82 0-164 0-247m-583-222c-2-1-4-1-5-1-53-2-105-4-157 7-16 4-31 11-46 18-9 4-13 13-13 24 0 100 0 200 0 300 0 14 4 28 9 41 11 26 24 51 37 77 1 3 3 6 5 10-6 1-11 2-15 2-14 2-20 9-20 22 0 28 0 56 0 84 0 14 6 21 20 22 30 3 60 6 90 7 48 1 96-1 146-1-3-7-4-11-6-14-14-34-28-68-41-102-3-9-4-19-4-28 0-152 0-304 0-456l0-12z m298 661c-66 3-132 6-199 8-8 1-17 2-25 4-15 3-24 15-24 30 0 47 0 95 0 142 0 17 12 30 29 31 67 4 134 8 201 8 66 1 132-2 199-4 15 0 30-2 44-4 15-1 27-14 27-29 1-48 1-97 0-145 0-16-12-29-29-30-28-3-56-6-84-6-46-1-92-1-139-1 0-1 0-2 0-4m101-337c-1 1-1 2-1 4-25-2-51-1-77-4-29-3-57-11-83-26-21-13-37-29-44-53-4-15-6-31-3-47 2 1 2 1 2 1 2 2 4 3 5 5 25 32 56 56 93 73 15 6 31 13 46 20 20 9 41 18 62 27m51-7c-53-26-106-50-157-77-56-28-88-76-106-134-2-7-4-15-6-23-3-9-12-15-21-14-10 2-13 10-11 18 3 19 8 37 11 55 1 8 2 15 0 22-7 27-10 53-4 80 9 45 37 75 77 94 39 19 81 27 124 29 29 1 58 0 87 0 6 0 11 1 15 6 6 8 14 14 25 9 10-4 12-13 11-24-5-52-15-102-41-148-41-77-107-103-186-96-16 1-31 4-47 8-12 2-17 10-15 20 2 10 10 15 22 14 14-2 29-6 44-7 56-5 102 15 135 61 22 31 35 66 43 103 1 1 0 2 0 4" horiz-adv-x="813" />

<glyph glyph-name="ico-swim" unicode="&#xe830;" d="M1212 553c95 0 170-72 169-166 0-91-75-164-168-164-100 0-171 69-171 165 1 93 74 166 170 165z m203-703c-31 1-61 9-90 22-59 25-118 25-176-2-58-26-115-26-173-1-51 23-104 29-158 10-11-3-21-7-31-12-55-24-110-22-164 2-61 28-123 28-184 0-49-21-98-25-149-8-19 7-37 15-56 21-46 14-92 10-136-8-31-14-64-23-98-24l0 129c34 1 66 10 97 23 57 24 114 23 170-3 58-26 116-27 175 0 59 28 120 27 180 0 57-25 113-27 170-1 60 28 121 29 181 2 60-28 118-26 178 0 59 27 120 26 179-2 27-12 56-18 85-19l0-129z m-570 753c93-165 185-330 280-497-18-3-34-8-51-9-33-3-66 4-97 18-63 28-127 27-190-1-52-24-104-24-156-2-38 15-75 26-116 23-29-2-56-9-82-21-53-24-107-23-161-1-14 5-28 10-43 15 165 90 329 178 494 267-12 21-22 41-33 60-33 57-65 115-99 172-13 22-16 44-11 68 7 32 40 61 72 67 65 11 130 23 195 34 98 17 197 32 294 52 49 11 96-26 108-62 18-52-12-108-68-120-40-9-80-15-120-23-69-12-138-25-207-38-3 0-5-1-9-2z" horiz-adv-x="1415" />

<glyph glyph-name="ico-twitter" unicode="&#xe831;" d="M1263 722c-35-51-76-94-125-129 0-8 0-18 0-33 0-67-9-134-29-200-20-67-49-131-89-192-40-62-88-116-143-163-55-47-121-85-199-113-78-28-161-42-250-42-139 0-267 37-383 112 18-2 38-3 60-3 116 0 219 35 310 107-54 1-102 17-145 49-43 33-72 74-88 124 17-3 33-4 47-4 22 0 44 3 66 8-58 12-106 41-144 86-38 46-57 99-57 159l0 3c36-19 73-30 113-31-34 22-61 52-81 89-20 36-30 76-30 119 0 45 11 87 34 125 62-76 138-138 228-184 89-46 185-72 287-77-4 20-7 39-7 57 0 70 25 128 73 177 49 49 108 73 177 73 72 0 133-26 182-79 57 11 109 31 159 61-19-60-56-106-110-138 48 5 96 18 144 39z" horiz-adv-x="1308" />

<glyph glyph-name="favicon" unicode="&#xe832;" d="M337 633c0 22-16 36-38 35-21-1-39-15-39-39-1-172-1-344-1-517 0-23 17-34 39-31 21 4 38 20 38 43 0 170 1 339 1 509m-39-702c-115-23-204 40-204 163l0 517c0 123 90 207 205 206 115-1 204-77 204-188-1-158-1-315-2-472 0-111-90-203-203-226m528 722c-43 2-86 3-129 5-4-66-7-132-10-197 25 31 63 45 108 42 68-5 115-67 115-149l0-270c0-117-77-178-192-155-113 24-173 122-174 209l0 84c46-5 91-11 137-17 0-25 0-50 0-75 0-30 17-50 41-54 25-4 40 10 40 36 0 77 0 153 0 230 0 23-18 43-36 45-19 1-36-13-36-31-46 9-91 18-136 26 6 139 12 279 19 419 112 0 225-1 337-1-6-106-33-149-84-147" horiz-adv-x="1002" />

<glyph glyph-name="ico-access" unicode="&#xe834;" d="M285 222c72-1 129 55 128 127 0 68-58 127-126 127-67 1-125-58-126-127-2-69 55-126 124-127l0 0z m-271 173c8 31 14 63 24 93 63 191 193 310 389 340 187 29 345-39 459-194 25-34 50-47 92-47 291 2 582 1 873 2 32 0 55-9 77-33 42-47 87-92 131-137 26-27 28-54-1-81-69-64-137-129-210-198-31 33-68 73-109 116-41-45-78-85-117-129-41 45-75 84-115 129-38-47-71-86-107-129-51 48-90 85-135 128-39-41-79-80-116-122-23-25-47-38-81-35-36 3-73-1-109 2-31 2-48-10-66-35-114-161-274-232-466-202-199 30-328 153-391 344-11 34-15 71-22 106l0 82z" horiz-adv-x="2086" />
</font>
</defs>
</svg>
